SplineFontDB: 3.0
FontName: Samyak-Malayalam
FullName: Samyak Malayalam
FamilyName: Samyak Malayalam
Weight: Medium
Copyright: Created by:\nRahul Bhalerao <b.rahul.pm@gmail.com>, \nSandeep Shedmake <sandeep.shedmake@gmail.com>, \nBageshri Salvi <sbageshri@gmail.com>, \nPravin Satpute <pravin.d.s@gmail.com>\n\nModified by Hiran Venugopalan <hiran.v@gmail.com>\n\nGNU GPL V.3 or later (with Font Exception), Copyright `2005-2006 by  H.B.C.S.E., T.I.F.R.,\nHomi Bhabha Centre For Science Education, \nTata Institute Of Fundamental Research,\nV.N. Purav Marg, Mankhurd, \nMumbai 400 088, INDIA.\n\nAs a special exception, if you create a document which uses this font, and embed this font or unaltered portions of this font into the document, this font does not by itself cause the resulting document to be covered by the GNU General Public License. This exception does not however invalidate any other reasons why the document might be covered by the GNU General Public License. If you modify this font, you may extend this exception to your version of the font, but you are not obligated to do so. If you do not wish to do so, delete this exception statement from your version.  \n\nFor detailed license see: \nwww.gnu.org and\nhttp://www.gnu.org/licenses/gpl-faq.html#FontException\n\nFurther info :http://sarovar.org/projects/samyak/\nwww.gnowledge.org\n\nCONTACTS:\nNagarjuna G.\nEmail:nagarjun@gnowledge.org
Version: 1.2.2
ItalicAngle: 0
UnderlinePosition: -100
UnderlineWidth: 50
Ascent: 819
Descent: 205
LayerCount: 2
Layer: 0 1 "Back"  1
Layer: 1 1 "Fore"  0
XUID: [1021 722 38139966 13641320]
FSType: 0
OS2Version: 1
OS2_WeightWidthSlopeOnly: 0
OS2_UseTypoMetrics: 1
CreationTime: 1136575263
ModificationTime: 1273578889
PfmFamily: 17
TTFWeight: 400
TTFWidth: 5
LineGap: 0
VLineGap: 0
Panose: 0 0 4 0 0 0 0 0 0 0
OS2TypoAscent: -59
OS2TypoAOffset: 1
OS2TypoDescent: -275
OS2TypoDOffset: 1
OS2TypoLinegap: 0
OS2WinAscent: -10
OS2WinAOffset: 1
OS2WinDescent: 18
OS2WinDOffset: 1

StartChar: .notdef
Encoding: 65536 -1 0
Width: 443
Flags: W
LayerCount: 2
Fore
SplineSet
34 0 m 1,0,-1
 34 682 l 1,1,-1
 375 682 l 1,2,-1
 375 0 l 1,3,-1
 34 0 l 1,0,-1
68 34 m 1,4,-1
 341 34 l 1,5,-1
 341 648 l 1,6,-1
 68 648 l 1,7,-1
 68 34 l 1,4,-1
EndSplineSet
EndChar

StartChar: uni0D02
Encoding: 3330 3330 4
Width: 375
GlyphClass: 2
Flags: W
LayerCount: 2
Fore
SplineSet
291.5 131.5 m 128,-1,1
 290 66 290 66 246.5 29.5 c 128,-1,2
 203 -7 203 -7 144.5 -7.5 c 128,-1,3
 86 -8 86 -8 43 31 c 128,-1,4
 0 70 0 70 0 135 c 128,-1,5
 0 200 0 200 44 238 c 128,-1,6
 88 276 88 276 146.5 276 c 128,-1,7
 205 276 205 276 249 236.5 c 128,-1,0
 293 197 293 197 291.5 131.5 c 128,-1,1
236 134 m 0,8,9
 238 250 238 250 146 252 c 0,10,11
 55 248 55 248 56 133.5 c 128,-1,12
 57 19 57 19 146 17 c 0,13,14
 189 16 189 16 212.5 49 c 128,-1,15
 236 82 236 82 236 134 c 0,8,9
EndSplineSet
EndChar

StartChar: uni0D03
Encoding: 3331 3331 5
Width: 346
GlyphClass: 2
Flags: W
LayerCount: 2
Fore
SplineSet
227 387 m 128,-1,1
 226 336 226 336 192 307.5 c 128,-1,2
 158 279 158 279 112.5 278.5 c 128,-1,3
 67 278 67 278 34 308 c 128,-1,4
 1 338 1 338 0.5 389 c 128,-1,5
 0 440 0 440 35 469.5 c 128,-1,6
 70 499 70 499 115 499.5 c 128,-1,7
 160 500 160 500 194 469 c 128,-1,0
 228 438 228 438 227 387 c 128,-1,1
35 20 m 0,8,9
 0 50 0 50 0 101 c 128,-1,10
 0 152 0 152 34.5 181.5 c 128,-1,11
 69 211 69 211 114.5 211.5 c 128,-1,12
 160 212 160 212 194 181 c 128,-1,13
 228 150 228 150 227 99 c 128,-1,14
 226 48 226 48 192 19.5 c 128,-1,15
 158 -9 158 -9 112.5 -9.5 c 128,-1,16
 67 -10 67 -10 35 20 c 0,8,9
184 388 m 0,17,18
 186 478 186 478 114 480 c 0,19,20
 44 478 44 478 44.5 389 c 128,-1,21
 45 300 45 300 114 298 c 0,22,23
 148 297 148 297 166 322.5 c 128,-1,24
 184 348 184 348 184 388 c 0,17,18
184 100 m 0,25,26
 185 190 185 190 114 192 c 0,27,28
 43 190 43 190 43.5 100.5 c 128,-1,29
 44 11 44 11 114 10 c 0,30,31
 148 8 148 8 166 34 c 128,-1,32
 184 60 184 60 184 100 c 0,25,26
EndSplineSet
EndChar

StartChar: uni0D05
Encoding: 3333 3333 6
Width: 1428
GlyphClass: 2
Flags: W
LayerCount: 2
Fore
SplineSet
450 550 m 1,0,1
 303 476 303 476 292 292 c 0,2,3
 284 202 284 202 342 119 c 0,4,5
 377 63 377 63 417 53.5 c 128,-1,6
 457 44 457 44 478.5 51.5 c 128,-1,7
 500 59 500 59 518 72.5 c 128,-1,8
 536 86 536 86 554 122 c 1,9,10
 568 180 568 180 549 222 c 0,11,12
 521 274 521 274 431 276 c 0,13,14
 386 279 386 279 386 295.5 c 128,-1,15
 386 312 386 312 429 318 c 0,16,17
 525 331 525 331 547 364 c 0,18,19
 559 385 559 385 557 424 c 0,20,21
 556 428 556 428 556 432 c 0,22,23
 549 504 549 504 450 550 c 1,0,1
466 610 m 1,24,25
 518 626 518 626 574 629 c 2,26,-1
 590 629 l 2,27,28
 737 629 737 629 804 553 c 0,29,30
 822 530 822 530 831 508 c 1,31,32
 873 590 873 590 985 620 c 0,33,34
 1018 629 1018 629 1064 631 c 0,35,36
 1195 629 1195 629 1280 522 c 0,37,38
 1333 455 1333 455 1357 356 c 0,39,40
 1386 216 1386 216 1324 108 c 128,-1,41
 1262 0 1262 0 1150 0 c 128,-1,42
 1038 0 1038 0 989 79 c 0,43,44
 959 127 959 127 965 204 c 2,45,-1
 967 226 l 2,46,47
 978 307 978 307 1053.5 378.5 c 128,-1,48
 1129 450 1129 450 1205 446 c 2,49,-1
 1210 446 l 2,50,51
 1228 444 1228 444 1244 439 c 1,52,53
 1208 522 1208 522 1150 556 c 1,54,-1
 1118 569 l 1,55,-1
 1091 574 l 2,56,57
 952 583 952 583 894 487 c 0,58,59
 867 449 867 449 867 402 c 2,60,-1
 867 52 l 2,61,62
 867 21 867 21 845 5 c 1,63,64
 833 0 833 0 828 0 c 0,65,66
 798 0 798 0 789 35 c 0,67,68
 786 44 786 44 786 55 c 2,69,-1
 786 398 l 2,70,71
 786 465 786 465 743 524 c 128,-1,72
 700 583 700 583 590 583 c 0,73,74
 569 583 569 583 540 578 c 1,75,76
 638 520 638 520 644 428 c 0,77,78
 647 363 647 363 603 325 c 1,79,-1
 578 309 l 1,80,81
 555 300 555 300 554 300 c 1,82,83
 632 260 632 260 642 199 c 0,84,85
 654 66 654 66 539 18 c 0,86,87
 492 0 492 0 433 0 c 0,88,89
 357 0 357 0 295 62 c 0,90,91
 211 147 211 147 213 295 c 2,92,-1
 213 300 l 2,93,94
 216 441 216 441 335 538 c 0,95,96
 358 556 358 556 382 572 c 1,97,98
 355 577 355 577 327 577 c 0,99,100
 178 577 178 577 110 432 c 0,101,102
 88 384 88 384 81 336 c 0,103,104
 69 276 69 276 76 230 c 0,105,106
 94 116 94 116 139 52 c 0,107,108
 172 0 172 0 154 0 c 1,109,-1
 138 6 l 1,110,111
 122 16 122 16 107 32 c 0,112,113
 59 74 59 74 22 178 c 0,114,115
 -4 256 -4 256 1 326 c 2,116,-1
 3 346 l 2,117,118
 16 455 16 455 108.5 542 c 128,-1,119
 201 629 201 629 327 629 c 0,120,121
 404 629 404 629 466 610 c 1,24,25
1068 246 m 0,122,123
 1042 151 1042 151 1086 93 c 0,124,125
 1117 48 1117 48 1171 51 c 2,126,-1
 1176 51 l 2,127,128
 1252 59 1252 59 1277 174 c 0,129,130
 1292 250 1292 250 1282 303.5 c 128,-1,131
 1272 357 1272 357 1262 390 c 1,132,133
 1192 412 1192 412 1139 368 c 2,134,-1
 1118 347 l 1,135,-1
 1097 315 l 1,136,-1
 1075 266 l 2,137,138
 1072 260 1072 260 1068 246 c 0,122,123
EndSplineSet
EndChar

StartChar: uni0D06
Encoding: 3334 3334 7
Width: 1606
GlyphClass: 2
Flags: W
LayerCount: 2
Fore
SplineSet
1068 246 m 0,0,1
 1042 151 1042 151 1086 93 c 0,2,3
 1117 48 1117 48 1171 51 c 2,4,-1
 1176 51 l 2,5,6
 1252 59 1252 59 1277 174 c 0,7,8
 1292 250 1292 250 1282 303.5 c 128,-1,9
 1272 357 1272 357 1262 390 c 1,10,11
 1192 412 1192 412 1139 368 c 2,12,-1
 1118 347 l 1,13,-1
 1097 315 l 1,14,-1
 1075 266 l 2,15,16
 1072 260 1072 260 1068 246 c 0,0,1
466 610 m 1,17,18
 518 626 518 626 574 629 c 2,19,-1
 590 629 l 2,20,21
 737 629 737 629 804 553 c 0,22,23
 822 530 822 530 831 508 c 1,24,25
 873 590 873 590 985 620 c 0,26,27
 1018 629 1018 629 1064 631 c 0,28,29
 1195 629 1195 629 1280 522 c 0,30,31
 1310 484 1310 484 1332 434 c 1,32,33
 1422 414 1422 414 1480 354 c 0,34,35
 1582 250 1582 250 1547 94 c 0,36,37
 1523 -6 1523 -6 1462 -84 c 0,38,39
 1370 -202 1370 -202 1214 -208 c 2,40,-1
 1158 -206 l 2,41,42
 1108 -206 1108 -206 1071 -182 c 0,43,44
 1028 -158 1028 -158 1001 -124 c 0,45,46
 994 -114 994 -114 994 -110 c 1,47,48
 1000 -108 1000 -108 1018 -116 c 2,49,-1
 1080 -146 l 2,50,51
 1133 -166 1133 -166 1186 -162 c 2,52,-1
 1202 -160 l 1,53,-1
 1214 -158 l 2,54,55
 1464 -107 1464 -107 1464 180 c 0,56,57
 1464 278 1464 278 1396 340 c 0,58,59
 1384 351 1384 351 1356 358 c 1,60,61
 1386 218 1386 218 1324 109 c 128,-1,62
 1262 0 1262 0 1150 0 c 128,-1,63
 1038 0 1038 0 989 79 c 0,64,65
 959 127 959 127 965 204 c 2,66,-1
 967 226 l 2,67,68
 978 307 978 307 1053.5 378.5 c 128,-1,69
 1129 450 1129 450 1205 446 c 2,70,-1
 1210 446 l 2,71,72
 1228 444 1228 444 1244 439 c 1,73,74
 1208 522 1208 522 1150 556 c 1,75,-1
 1118 569 l 1,76,-1
 1091 574 l 2,77,78
 952 583 952 583 894 487 c 0,79,80
 867 449 867 449 867 402 c 2,81,-1
 867 52 l 2,82,83
 867 21 867 21 845 5 c 1,84,85
 833 0 833 0 828 0 c 0,86,87
 798 0 798 0 789 35 c 0,88,89
 786 44 786 44 786 55 c 2,90,-1
 786 398 l 2,91,92
 786 465 786 465 743 524 c 128,-1,93
 700 583 700 583 590 583 c 0,94,95
 569 583 569 583 540 578 c 1,96,97
 638 520 638 520 644 428 c 0,98,99
 647 363 647 363 603 325 c 1,100,-1
 578 309 l 1,101,102
 555 300 555 300 554 300 c 1,103,104
 632 260 632 260 642 199 c 0,105,106
 654 66 654 66 539 18 c 0,107,108
 492 0 492 0 433 0 c 0,109,110
 357 0 357 0 295 62 c 0,111,112
 211 147 211 147 213 295 c 2,113,-1
 213 300 l 2,114,115
 216 441 216 441 335 538 c 0,116,117
 358 556 358 556 382 572 c 1,118,119
 355 577 355 577 327 577 c 0,120,121
 178 577 178 577 110 432 c 0,122,123
 88 384 88 384 81 336 c 0,124,125
 69 276 69 276 76 230 c 0,126,127
 94 116 94 116 139 52 c 0,128,129
 172 0 172 0 154 0 c 1,130,-1
 138 6 l 1,131,132
 122 16 122 16 107 32 c 0,133,134
 59 74 59 74 22 178 c 0,135,136
 -4 256 -4 256 1 326 c 2,137,-1
 3 346 l 2,138,139
 16 455 16 455 108.5 542 c 128,-1,140
 201 629 201 629 327 629 c 0,141,142
 404 629 404 629 466 610 c 1,17,18
450 550 m 1,143,144
 303 476 303 476 292 292 c 0,145,146
 284 202 284 202 342 119 c 0,147,148
 377 63 377 63 417 53.5 c 128,-1,149
 457 44 457 44 478.5 51.5 c 128,-1,150
 500 59 500 59 518 72.5 c 128,-1,151
 536 86 536 86 554 122 c 1,152,153
 568 180 568 180 549 222 c 0,154,155
 521 274 521 274 431 276 c 0,156,157
 386 279 386 279 386 295.5 c 128,-1,158
 386 312 386 312 429 318 c 0,159,160
 525 331 525 331 547 364 c 0,161,162
 559 385 559 385 557 424 c 0,163,164
 556 428 556 428 556 432 c 0,165,166
 549 504 549 504 450 550 c 1,143,144
EndSplineSet
EndChar

StartChar: uni0D07
Encoding: 3335 3335 8
Width: 996
GlyphClass: 2
Flags: W
LayerCount: 2
Fore
SplineSet
539 164 m 0,0,1
 468 164 468 164 468 250 c 2,2,-1
 468 433 l 2,3,4
 468 462 468 462 444 496 c 0,5,6
 406 550 406 550 319 573 c 2,7,-1
 300 578 l 1,8,-1
 284 580 l 1,9,-1
 232 573 l 2,10,11
 166 564 166 564 132 526 c 0,12,13
 78 466 78 466 72 402 c 1,14,15
 91 438 91 438 140 461 c 0,16,17
 165 473 165 473 208.5 471.5 c 128,-1,18
 252 470 252 470 287 445 c 0,19,20
 337 409 337 409 337 325 c 0,21,22
 337 314 337 314 332 294 c 0,23,24
 321 233 321 233 266 195 c 0,25,26
 224 166 224 166 164 167 c 0,27,28
 69 170 69 170 32 247 c 0,29,30
 -14 342 -14 342 7 428 c 0,31,32
 17 468 17 468 46 516 c 0,33,34
 117 632 117 632 264 631 c 0,35,36
 387 630 387 630 454 559 c 2,37,-1
 489 522 l 1,38,-1
 506 501 l 1,39,40
 542 578 542 578 629 611 c 0,41,42
 677 629 677 629 727 629 c 0,43,44
 832 629 832 629 881 560 c 1,45,46
 881 559 881 559 886 552 c 0,47,48
 928 488 928 488 930 394 c 0,49,50
 937 188 937 188 846 106 c 0,51,52
 735 6 735 6 485 6 c 2,53,-1
 470 6 l 1,54,55
 446 12 446 12 383.5 12 c 128,-1,56
 321 12 321 12 291 14 c 2,57,-1
 276 15 l 2,58,59
 171 22 171 22 132 1 c 0,60,61
 95 -17 95 -17 90.5 -59.5 c 128,-1,62
 86 -102 86 -102 113 -125 c 0,63,64
 126 -136 126 -136 156 -148 c 128,-1,65
 186 -160 186 -160 224 -160 c 2,66,-1
 813 -159 l 1,67,-1
 896 -160 l 2,68,69
 908 -160 908 -160 923.5 -156.5 c 128,-1,70
 939 -153 939 -153 936 -162 c 0,71,72
 932 -178 932 -178 896.5 -195.5 c 128,-1,73
 861 -213 861 -213 813 -213 c 2,74,-1
 176 -213 l 2,75,76
 90 -213 90 -213 43 -159 c 0,77,78
 4 -115 4 -115 4 -61 c 2,79,-1
 4 -56 l 2,80,81
 4 42 4 42 141 70 c 0,82,83
 175 77 175 77 219 77 c 128,-1,84
 263 77 263 77 374 70.5 c 128,-1,85
 485 64 485 64 638 80 c 0,86,87
 679 84 679 84 698 93 c 0,88,89
 782 131 782 131 809 183 c 0,90,91
 824 212 824 212 836.5 258.5 c 128,-1,92
 849 305 849 305 845.5 352 c 128,-1,93
 842 399 842 399 832.5 435.5 c 128,-1,94
 823 472 823 472 794.5 517 c 128,-1,95
 766 562 766 562 689 556 c 2,96,-1
 677 555 l 2,97,98
 645 552 645 552 603.5 529.5 c 128,-1,99
 562 507 562 507 555 492.5 c 128,-1,100
 548 478 548 478 548 454 c 2,101,-1
 548 263 l 2,102,103
 548 226 548 226 570 226 c 128,-1,104
 592 226 592 226 597 257 c 0,105,106
 598 264 598 264 599 263 c 1,107,108
 599 206 599 206 581 185 c 128,-1,109
 563 164 563 164 539 164 c 0,0,1
88 358 m 0,110,111
 75 337 75 337 79 315 c 1,112,113
 79 299 79 299 92 276 c 0,114,115
 120 225 120 225 161 220.5 c 128,-1,116
 202 216 202 216 225 229 c 0,117,118
 234 235 234 235 243 250 c 0,119,120
 263 283 263 283 260 322 c 0,121,122
 260 336 260 336 244 369.5 c 128,-1,123
 228 403 228 403 178 402 c 2,124,-1
 174 402 l 2,125,126
 108 397 108 397 88 358 c 0,110,111
EndSplineSet
EndChar

StartChar: uni0D09
Encoding: 3337 3337 10
Width: 747
GlyphClass: 2
Flags: W
LayerCount: 2
Fore
SplineSet
92 358 m 0,0,1
 81 336 81 336 84 312 c 0,2,3
 84 302 84 302 96 276 c 0,4,5
 126 224 126 224 168 219.5 c 128,-1,6
 210 215 210 215 229 229 c 0,7,8
 239 235 239 235 248 250 c 0,9,10
 267 281 267 281 264 320 c 0,11,12
 264 340 264 340 250 368 c 0,13,14
 233 404 233 404 178 402 c 0,15,16
 112 397 112 397 92 358 c 0,0,1
612 141 m 0,17,18
 524 8 524 8 335 13 c 0,19,20
 300 13 300 13 260 16 c 0,21,22
 188 22 188 22 142 1 c 0,23,24
 107 -18 107 -18 100 -65 c 0,25,26
 96 -120 96 -120 163 -146 c 0,27,28
 195 -160 195 -160 234 -160 c 2,29,-1
 562 -159 l 1,30,-1
 644 -160 l 2,31,32
 663 -158 663 -158 675 -155.5 c 128,-1,33
 687 -153 687 -153 684 -162 c 0,34,35
 681 -178 681 -178 645.5 -195.5 c 128,-1,36
 610 -213 610 -213 562 -213 c 2,37,-1
 186 -213 l 2,38,39
 107 -213 107 -213 53 -159 c 0,40,41
 12 -117 12 -117 14 -56 c 0,42,43
 20 34 20 34 129 67 c 0,44,45
 185 81 185 81 257 78 c 2,46,-1
 284 76 l 2,47,48
 451 64 451 64 524 165 c 0,49,50
 538 182 538 182 545 200 c 0,51,52
 586 288 586 288 561 381 c 0,53,54
 544 443 544 443 503 490 c 0,55,56
 448 557 448 557 337 574 c 0,57,58
 288 583 288 583 254 578 c 2,59,60
 249 578 249 578 247 577 c 2,61,62
 167 562 167 562 136 526 c 0,63,64
 85 470 85 470 77 402 c 1,65,66
 118 475 118 475 216 472 c 0,67,68
 260 470 260 470 292 445 c 0,69,70
 347 408 347 408 342 324 c 0,71,72
 341 319 341 319 341 313.5 c 128,-1,73
 341 308 341 308 337 294 c 0,74,75
 326 233 326 233 270 195 c 0,76,77
 229 167 229 167 169 167 c 0,78,79
 69 170 69 170 30 241 c 0,80,81
 -18 330 -18 330 11 432 c 0,82,83
 24 472 24 472 50 516 c 0,84,85
 122 629 122 629 286 629 c 0,86,87
 483 629 483 629 581 516 c 0,88,89
 641 451 641 451 655 365 c 0,90,91
 676 239 676 239 612 141 c 0,17,18
EndSplineSet
EndChar

StartChar: uni0D0B
Encoding: 3339 3339 12
Width: 918
GlyphClass: 2
Flags: W
LayerCount: 2
Fore
SplineSet
415 -246 m 2,0,1
 15 -244 15 -244 15 -46 c 0,2,3
 15 84 15 84 216 113 c 1,4,5
 136 142 136 142 82 198 c 0,6,7
 0 277 0 277 0 391 c 128,-1,8
 0 505 0 505 69 571 c 0,9,10
 120 621 120 621 184 625 c 0,11,12
 275 631 275 631 333 564 c 0,13,14
 370 520 370 520 376 462 c 0,15,16
 384 376 384 376 326 316 c 0,17,18
 285 271 285 271 232 268 c 0,19,20
 160 262 160 262 110 315 c 0,21,22
 89 342 89 342 72 380 c 1,23,24
 87 204 87 204 269 155 c 0,25,26
 332 136 332 136 420 136 c 0,27,28
 560 136 560 136 665 209.5 c 128,-1,29
 770 283 770 283 770 390 c 1,30,31
 743 299 743 299 669 274 c 0,32,33
 600 253 600 253 539 299 c 0,34,35
 467 353 467 353 470 463 c 2,36,-1
 470 468 l 2,37,38
 475 564 475 564 554.5 604.5 c 128,-1,39
 634 645 634 645 716 614 c 0,40,41
 807 583 807 583 840 487 c 0,42,43
 855 446 855 446 855 395 c 0,44,45
 853 258 853 258 719 168 c 0,46,47
 664 131 664 131 600 110 c 1,48,49
 800 86 800 86 811 -39 c 0,50,51
 812 -45 812 -45 812 -56 c 0,52,53
 812 -187 812 -187 610 -228 c 0,54,55
 516 -247 516 -247 419 -246 c 2,56,-1
 415 -246 l 2,0,1
80 424 m 2,57,58
 81 388 81 388 124.5 356 c 128,-1,59
 168 324 168 324 208 329 c 0,60,61
 212 329 212 329 216 330 c 0,62,63
 271 342 271 342 286 403 c 0,64,65
 291 423 291 423 290 445 c 2,66,-1
 290 451 l 2,67,68
 282 521 282 521 238 551 c 0,69,70
 217 565 217 565 189 564 c 0,71,72
 126 562 126 562 95 501 c 0,73,74
 77 465 77 465 80 429 c 2,75,-1
 80 424 l 2,57,58
642 568 m 0,76,77
 552 568 552 568 552 440 c 0,78,79
 552 374 552 374 591 344 c 0,80,81
 605 333 605 333 630 329 c 0,82,83
 670 323 670 323 723 370 c 0,84,85
 764 408 764 408 764 438 c 0,86,87
 764 496 764 496 720 537 c 0,88,89
 688 568 688 568 642 568 c 0,76,77
444 69 m 2,90,91
 435 70 435 70 376 70.5 c 128,-1,92
 317 71 317 71 266 68 c 2,93,-1
 215 61 l 2,94,95
 101 42 101 42 101 -40 c 0,96,97
 101 -181 101 -181 405 -190 c 0,98,99
 544 -194 544 -194 637 -148 c 0,100,101
 720 -111 720 -111 722 -50 c 0,102,103
 723 11 723 11 645 40 c 2,104,-1
 597 54 l 1,105,-1
 543 62 l 1,106,-1
 444 69 l 2,90,91
EndSplineSet
EndChar

StartChar: uni0D0C
Encoding: 3340 3340 13
Width: 1208
GlyphClass: 2
Flags: W
LayerCount: 2
Fore
SplineSet
108 245 m 0,0,1
 95 218 95 218 98 188 c 0,2,3
 98 173 98 173 112 139 c 0,4,5
 143 78 143 78 192 68 c 0,6,7
 254 52 254 52 278 104 c 0,8,9
 300 149 300 149 296 194 c 2,10,-1
 294 206 l 2,11,12
 290 228 290 228 280 256 c 0,13,14
 261 302 261 302 200 299 c 128,-1,15
 139 296 139 296 108 245 c 0,0,1
1045 209 m 0,16,17
 1045 228 1045 228 1034 245 c 0,18,19
 1006 296 1006 296 942 300 c 0,20,21
 902 302 902 302 880 282 c 1,22,-1
 867 266 l 1,23,-1
 862 256 l 2,24,25
 832 174 832 174 865 104 c 0,26,27
 873 87 873 87 886 78 c 0,28,29
 910 56 910 56 950 68 c 0,30,31
 1000 78 1000 78 1030 139 c 0,32,33
 1048 176 1048 176 1045 209 c 0,16,17
572 0 m 0,34,35
 540 0 540 0 530 33 c 0,36,37
 527 44 527 44 527 55 c 2,38,-1
 527 398 l 2,39,40
 527 463 527 463 483 515 c 0,41,42
 477 523 477 523 462 535 c 0,43,44
 417 570 417 570 351 574 c 2,45,-1
 325 574 l 2,46,47
 206 560 206 560 149 489 c 128,-1,48
 92 418 92 418 81 304 c 1,49,50
 89 331 89 331 136 358 c 0,51,52
 181 387 181 387 235 387 c 128,-1,53
 289 387 289 387 325 354 c 0,54,55
 381 308 381 308 378 209 c 2,56,-1
 378 202 l 2,57,58
 378 191 378 191 377 186 c 2,59,-1
 375 162 l 2,60,61
 363 87 363 87 302 36 c 0,62,63
 256 -3 256 -3 197 0 c 2,64,-1
 191 0 l 2,65,66
 81 9 81 9 33 128 c 0,67,68
 -8 229 -8 229 2 324 c 0,69,70
 6 408 6 408 67 501 c 0,71,72
 158 630 158 630 314 631 c 2,73,-1
 325 631 l 2,74,75
 471 628 471 628 542 554 c 2,76,-1
 567 523 l 2,77,78
 576 508 576 508 577 506 c 1,79,80
 648 626 648 626 782 631 c 2,81,-1
 817 631 l 2,82,83
 989 622 989 622 1073 504 c 128,-1,84
 1157 386 1157 386 1144 254 c 0,85,86
 1141 212 1141 212 1110 128 c 0,87,88
 1060 9 1060 9 952 0 c 0,89,90
 887 -4 887 -4 841 36 c 0,91,92
 778 89 778 89 768 162 c 2,93,-1
 766 186 l 2,94,95
 755 300 755 300 817 354 c 0,96,97
 856 387 856 387 897.5 387 c 128,-1,98
 939 387 939 387 978 373 c 0,99,100
 1034 348 1034 348 1057 316 c 1,101,-1
 1063 304 l 1,102,103
 1051 417 1051 417 997 486 c 0,104,105
 927 575 927 575 817 574 c 0,106,107
 730 572 730 572 683.5 536.5 c 128,-1,108
 637 501 637 501 619 435 c 0,109,110
 614 413 614 413 614 398 c 2,111,-1
 614 55 l 2,112,113
 614 12 614 12 584 2 c 0,114,115
 576 0 576 0 572 0 c 0,34,35
EndSplineSet
EndChar

StartChar: uni0D0E
Encoding: 3342 3342 14
Width: 1316
GlyphClass: 2
Flags: W
LayerCount: 2
Fore
SplineSet
781 -240 m 2,0,1
 608 -236 608 -236 584 10 c 1,2,-1
 389 10 l 2,3,4
 330 10 330 10 323 18 c 0,5,6
 312 30 312 30 348 68 c 0,7,8
 398 117 398 117 403 163 c 2,9,-1
 404 210 l 2,10,11
 402 272 402 272 351 318 c 0,12,13
 307 360 307 360 249 362 c 0,14,15
 175 360 175 360 124 314 c 2,16,-1
 102 293 l 1,17,18
 72 250 72 250 72 204 c 0,19,20
 70 172 70 172 82 137 c 0,21,22
 92 99 92 99 118 60 c 128,-1,23
 144 21 144 21 141 11 c 1,24,-1
 133 13 l 1,25,-1
 94 39 l 2,26,27
 86 46 86 46 73 54 c 1,28,29
 2 130 2 130 0 208 c 0,30,31
 1 321 1 321 103 383 c 0,32,33
 168 420 168 420 238 420 c 0,34,35
 345 420 345 420 414 357 c 0,36,37
 474 305 474 305 474 227.5 c 128,-1,38
 474 150 474 150 423 87 c 2,39,-1
 401 62 l 1,40,-1
 580 62 l 1,41,42
 578 168 578 168 606 306 c 0,43,44
 674 629 674 629 936 629 c 0,45,46
 1108 629 1108 629 1195 443 c 0,47,48
 1236 356 1236 356 1251.5 232 c 128,-1,49
 1267 108 1267 108 1224 -13.5 c 128,-1,50
 1181 -135 1181 -135 1105 -206 c 0,51,52
 1068 -239 1068 -239 1042 -232 c 1,53,54
 1042 -218 1042 -218 1072 -178 c 0,55,56
 1132 -100 1132 -100 1159 57 c 0,57,58
 1178 167 1178 167 1165 232 c 0,59,60
 1123 502 1123 502 1001 562 c 0,61,62
 968 577 968 577 937 577 c 0,63,64
 760 577 760 577 695 311 c 2,65,-1
 693 300 l 2,66,67
 664 176 664 176 666 62 c 1,68,-1
 828 62 l 2,69,70
 866 62 866 62 878 78 c 1,71,72
 886 86 886 86 889 108 c 2,73,-1
 889 406 l 2,74,75
 889 436 889 436 922 446 c 0,76,77
 954 457 954 457 960 462 c 128,-1,78
 966 467 966 467 972 475 c 1,79,-1
 972 -46 l 2,80,81
 972 -99 972 -99 953 -143 c 0,82,83
 926 -205 926 -205 858 -228 c 0,84,85
 821 -242 821 -242 785 -240 c 2,86,-1
 781 -240 l 2,0,1
879 -116 m 0,87,88
 889 -92 889 -92 889 -47 c 2,89,-1
 889 14 l 1,90,91
 864 10 864 10 828 10 c 2,92,-1
 668 10 l 1,93,94
 669 -8 669 -8 671 -26 c 0,95,96
 692 -183 692 -183 772 -186 c 2,97,-1
 777 -186 l 2,98,99
 851 -184 851 -184 879 -116 c 0,87,88
EndSplineSet
EndChar

StartChar: uni0D0F
Encoding: 3343 3343 15
Width: 1337
GlyphClass: 2
Flags: W
LayerCount: 2
Fore
SplineSet
889 14 m 1,0,1
 864 10 864 10 828 10 c 2,2,-1
 668 10 l 1,3,4
 669 -8 669 -8 671 -26 c 0,5,6
 692 -183 692 -183 772 -186 c 2,7,-1
 777 -186 l 2,8,9
 851 -184 851 -184 879 -116 c 0,10,11
 889 -92 889 -92 889 -47 c 2,12,-1
 889 14 l 1,0,1
781 -240 m 2,13,14
 608 -236 608 -236 584 10 c 1,15,-1
 389 10 l 2,16,17
 330 10 330 10 323 18 c 0,18,19
 312 30 312 30 348 68 c 0,20,21
 398 117 398 117 403 163 c 2,22,-1
 404 210 l 2,23,24
 402 272 402 272 351 318 c 0,25,26
 307 360 307 360 249 362 c 0,27,28
 175 360 175 360 124 314 c 2,29,-1
 102 293 l 1,30,31
 72 250 72 250 72 204 c 0,32,33
 70 172 70 172 82 137 c 0,34,35
 92 99 92 99 118 60 c 128,-1,36
 144 21 144 21 141 11 c 1,37,-1
 133 13 l 1,38,-1
 94 39 l 2,39,40
 86 46 86 46 73 54 c 1,41,42
 2 130 2 130 0 208 c 0,43,44
 1 321 1 321 103 383 c 0,45,46
 168 420 168 420 238 420 c 0,47,48
 345 420 345 420 414 357 c 0,49,50
 474 305 474 305 474 227.5 c 128,-1,51
 474 150 474 150 423 87 c 2,52,-1
 401 62 l 1,53,-1
 580 62 l 1,54,55
 578 168 578 168 606 306 c 0,56,57
 674 629 674 629 936 629 c 0,58,59
 1107 629 1107 629 1190 540 c 0,60,61
 1240 484 1240 484 1245 398 c 0,62,63
 1248 342 1248 342 1230 291 c 0,64,65
 1206 226 1206 226 1155 214 c 1,66,67
 1226 191 1226 191 1256 111 c 0,68,69
 1279 55 1279 55 1274 -20 c 0,70,71
 1274 -34 1274 -34 1272 -48 c 0,72,73
 1259 -133 1259 -133 1203 -189 c 2,74,-1
 1177 -212 l 2,75,76
 1136 -242 1136 -242 1095 -242 c 128,-1,77
 1054 -242 1054 -242 1018 -201 c 1,78,79
 1002 -174 1002 -174 1003 -148 c 0,80,81
 1003 -130 1003 -130 1025 -152 c 1,82,83
 1090 -200 1090 -200 1143 -136 c 0,84,85
 1173 -99 1173 -99 1185 -36 c 0,86,87
 1202 92 1202 92 1150 144 c 0,88,89
 1119 179 1119 179 1055 181 c 0,90,91
 1022 183 1022 183 1019 206 c 0,92,93
 1018 220 1018 220 1029 228 c 1,94,95
 1037 236 1037 236 1052 239 c 1,96,-1
 1053 239 l 1,97,98
 1127 252 1127 252 1149 308 c 0,99,100
 1162 341 1162 341 1163 390 c 0,101,102
 1168 484 1168 484 1087 537 c 0,103,104
 1024 577 1024 577 937 577 c 0,105,106
 760 577 760 577 695 311 c 2,107,-1
 693 300 l 2,108,109
 664 176 664 176 666 62 c 1,110,-1
 828 62 l 2,111,112
 866 62 866 62 878 78 c 1,113,114
 886 86 886 86 889 108 c 2,115,-1
 889 406 l 2,116,117
 889 436 889 436 922 446 c 0,118,119
 954 457 954 457 960 462 c 128,-1,120
 966 467 966 467 972 475 c 1,121,-1
 972 -46 l 2,122,123
 972 -99 972 -99 953 -143 c 0,124,125
 926 -205 926 -205 858 -228 c 0,126,127
 821 -242 821 -242 785 -240 c 2,128,-1
 781 -240 l 2,13,14
EndSplineSet
EndChar

StartChar: uni0D12
Encoding: 3346 3346 17
Width: 784
GlyphClass: 2
Flags: W
LayerCount: 2
Fore
SplineSet
109 245 m 0,0,1
 94 215 94 215 101 176 c 0,2,3
 102 170 102 170 113 139 c 0,4,5
 148 65 148 65 193 56 c 0,6,7
 223 52 223 52 249 72 c 1,8,9
 266 76 266 76 283.5 112.5 c 128,-1,10
 301 149 301 149 297 194 c 2,11,-1
 295 206 l 2,12,13
 291 228 291 228 281 256 c 0,14,15
 262 302 262 302 201 299 c 128,-1,16
 140 296 140 296 109 245 c 0,0,1
389 574 m 0,17,18
 267 574 267 574 182 516 c 0,19,20
 158 499 158 499 147 486 c 0,21,22
 96 434 96 434 84 326 c 2,23,-1
 82 304 l 1,24,25
 90 331 90 331 137 358 c 0,26,27
 179 387 179 387 234.5 387 c 128,-1,28
 290 387 290 387 326 354 c 0,29,30
 382 308 382 308 379 209 c 2,31,-1
 379 202 l 2,32,33
 379 191 379 191 378 186 c 2,34,-1
 376 162 l 2,35,36
 364 87 364 87 303 36 c 0,37,38
 261 0 261 0 187.5 0 c 128,-1,39
 114 0 114 0 55 89 c 0,40,41
 48 100 48 100 35 128 c 0,42,43
 -22 251 -22 251 13 377 c 0,44,45
 29 437 29 437 68 486 c 0,46,47
 186 627 186 627 404 629 c 0,48,49
 586 629 586 629 669 557 c 0,50,51
 717 515 717 515 718 464 c 128,-1,52
 719 413 719 413 690 380 c 2,53,-1
 669 362 l 2,54,55
 638 339 638 339 585 332 c 1,56,57
 678 317 678 317 705 247 c 0,58,59
 724 200 724 200 707 140 c 0,60,61
 671 0 671 0 487 0 c 0,62,63
 435 0 435 0 395 30 c 1,64,65
 377 48 377 48 375.5 61 c 128,-1,66
 374 74 374 74 384 74 c 1,67,68
 394 72 394 72 403 65 c 1,69,70
 510 25 510 25 581 81 c 0,71,72
 612 104 612 104 629 155.5 c 128,-1,73
 646 207 646 207 614 247 c 0,74,75
 599 266 599 266 572 280 c 2,76,-1
 536 295 l 2,77,78
 496 306 496 306 448 308 c 128,-1,79
 400 310 400 310 396 324 c 0,80,81
 393 333 393 333 402 340 c 1,82,83
 416 347 416 347 439 350 c 0,84,85
 576 365 576 365 611 398 c 0,86,87
 632 420 632 420 630 464 c 0,88,89
 624 535 624 535 507 562 c 0,90,91
 456 574 456 574 389 574 c 0,17,18
EndSplineSet
EndChar

StartChar: uni0D15
Encoding: 3349 3349 20
Width: 1022
GlyphClass: 2
Flags: W
LayerCount: 2
Fore
SplineSet
472 629 m 0,0,1
 627 629 627 629 666 451 c 0,2,3
 676 412 676 412 678 362 c 1,4,-1
 801 362 l 2,5,6
 919 362 919 362 950 261 c 0,7,8
 961 229 961 229 960 188 c 2,9,-1
 960 184 l 2,10,11
 957 80 957 80 884 29 c 0,12,13
 846 0 846 0 799 0 c 128,-1,14
 752 0 752 0 722 40 c 0,15,16
 707 60 707 60 707 83 c 1,17,18
 754 38 754 38 803 50 c 0,19,20
 857 68 857 68 872 164 c 0,21,22
 880 211 880 211 861 252 c 128,-1,23
 842 293 842 293 811 305 c 1,24,-1
 787 310 l 1,25,-1
 679 310 l 1,26,27
 676 110 676 110 573 35 c 0,28,29
 525 0 525 0 456 0 c 0,30,31
 344 2 344 2 285 115 c 1,32,33
 270 22 270 22 195 4 c 0,34,35
 183 0 183 0 163 0 c 0,36,37
 81 0 81 0 31 76 c 0,38,39
 0 125 0 125 0 188 c 0,40,41
 0 271 0 271 62 323 c 0,42,43
 112 362 112 362 172 362 c 2,44,-1
 239 362 l 1,45,46
 248 516 248 516 336 586 c 0,47,48
 391 629 391 629 472 629 c 0,0,1
474 577 m 0,49,50
 382 577 382 577 341 470 c 0,51,52
 322 424 322 424 320 362 c 1,53,-1
 596 362 l 1,54,55
 587 577 587 577 474 577 c 0,49,50
241 132 m 0,56,57
 254 180 254 180 244 241 c 0,58,59
 240 266 240 266 238 310 c 1,60,-1
 176 310 l 2,61,62
 110 310 110 310 90 240 c 0,63,64
 70 174 70 174 98 108 c 0,65,66
 102 97 102 97 108 88 c 0,67,68
 134 48 134 48 172 53 c 0,69,70
 175 53 175 53 178 54 c 0,71,72
 224 65 224 65 241 132 c 0,56,57
597 310 m 1,73,-1
 320 310 l 1,74,75
 328 151 328 151 387 83 c 0,76,77
 415 48 415 48 456 48 c 0,78,79
 562 48 562 48 588 191 c 0,80,81
 596 240 596 240 597 310 c 1,73,-1
EndSplineSet
EndChar

StartChar: uni0D16
Encoding: 3350 3350 21
Width: 1082
GlyphClass: 2
Flags: W
LayerCount: 2
Fore
SplineSet
106 244 m 0,0,1
 94 221 94 221 95 189 c 1,2,-1
 97 178 l 2,3,4
 101 161 101 161 110 139 c 0,5,6
 141 78 141 78 190 68 c 0,7,8
 229 58 229 58 256 78 c 0,9,10
 270 90 270 90 276 104 c 0,11,12
 299 154 299 154 291 206 c 0,13,14
 285 234 285 234 278 256 c 0,15,16
 259 302 259 302 197.5 299 c 128,-1,17
 136 296 136 296 106 244 c 0,0,1
662 347 m 2,18,-1
 657 283 l 2,19,20
 637 147 637 147 519 52 c 1,21,-1
 900 52 l 2,22,23
 922 52 922 52 933 70 c 0,24,25
 938 78 938 78 938 111 c 2,26,-1
 938 563 l 2,27,28
 938 594 938 594 971 604 c 0,29,30
 1005 614 1005 614 1012 621 c 1,31,32
 1018 625 1018 625 1021 632 c 1,33,-1
 1021 112 l 2,34,35
 1021 56 1021 56 1008 34 c 0,36,37
 992 0 992 0 913 0 c 2,38,-1
 493 0 l 2,39,40
 426 0 426 0 426 17 c 0,41,42
 425 26 425 26 441 39 c 0,43,44
 542 118 542 118 566.5 200.5 c 128,-1,45
 591 283 591 283 585 345 c 2,46,-1
 581 370 l 2,47,48
 574 412 574 412 558 440 c 0,49,50
 517 526 517 526 418 562 c 0,51,52
 335 592 335 592 260 560 c 0,53,54
 203 534 203 534 146.5 473 c 128,-1,55
 90 412 90 412 78 283 c 1,56,57
 114 346 114 346 163 373 c 0,58,59
 194 387 194 387 240.5 387 c 128,-1,60
 287 387 287 387 323 354 c 0,61,62
 379 308 379 308 376 209 c 2,63,-1
 376 202 l 2,64,65
 376 201 376 201 371 161 c 0,66,67
 361 88 361 88 300 35 c 0,68,69
 254 -3 254 -3 195 0 c 2,70,-1
 189 0 l 2,71,72
 80 9 80 9 30 128 c 0,73,74
 -19 254 -19 254 13 360 c 0,75,76
 31 428 31 428 69 482 c 0,77,78
 175 629 175 629 360 629 c 0,79,80
 485 629 485 629 568 562 c 2,81,-1
 582 549 l 2,82,83
 662 470 662 470 662 347 c 2,18,-1
EndSplineSet
EndChar

StartChar: uni0D17
Encoding: 3351 3351 22
Width: 914
GlyphClass: 2
Flags: W
LayerCount: 2
Fore
SplineSet
639 45 m 0,0,1
 766 147 766 147 766 321 c 0,2,3
 766 520 766 520 653 564 c 0,4,5
 627 574 627 574 593 574 c 0,6,7
 484 574 484 574 455 430 c 0,8,9
 444 370 444 370 441 211 c 2,10,-1
 441 200 l 2,11,12
 438 66 438 66 333 18 c 0,13,14
 291 0 291 0 238 0 c 0,15,16
 137 2 137 2 68 83 c 0,17,18
 0 164 0 164 0 297 c 0,19,20
 6 485 6 485 131 581 c 0,21,22
 175 616 175 616 225 629 c 0,23,24
 236 633 236 633 240 627 c 1,25,-1
 230 609 l 1,26,-1
 166 535 l 2,27,28
 118 481 118 481 101 394 c 0,29,30
 92 352 92 352 92 306 c 0,31,32
 92 183 92 183 147 109 c 0,33,34
 189 56 189 56 242 56 c 0,35,36
 333 56 333 56 358 165 c 0,37,38
 375 235 375 235 375 359 c 2,39,-1
 375 364 l 2,40,41
 375 564 375 564 497 614 c 0,42,43
 534 629 534 629 575 629 c 0,44,45
 752 629 752 629 819 485 c 0,46,47
 851 416 851 416 852 333 c 0,48,49
 851 184 851 184 725 72 c 0,50,51
 692 40 692 40 650 16 c 0,52,53
 612 -3 612 -3 604 5 c 1,54,55
 604 17 604 17 639 45 c 0,0,1
EndSplineSet
EndChar

StartChar: uni0D18
Encoding: 3352 3352 23
Width: 1531
GlyphClass: 2
Flags: W
LayerCount: 2
Fore
SplineSet
639 210 m 1,0,-1
 389 210 l 2,1,2
 330 210 330 210 323 217 c 0,3,4
 311 229 311 229 354.5 273.5 c 128,-1,5
 398 318 398 318 403 361 c 2,6,-1
 404 409 l 2,7,8
 402 467 402 467 352 516 c 0,9,10
 307 563 307 563 249 562 c 0,11,12
 176 560 176 560 124 514 c 2,13,-1
 102 492 l 1,14,15
 72 451 72 451 72 402 c 0,16,17
 70 369 70 369 82 337 c 0,18,19
 91 302 91 302 110 271 c 0,20,21
 144 220 144 220 141 211 c 1,22,-1
 133 213 l 1,23,24
 109 226 109 226 73 254 c 1,25,26
 1 330 1 330 0 407 c 0,27,28
 1 520 1 520 103 582 c 0,29,30
 166 618 166 618 238 618 c 0,31,32
 361 618 361 618 425 551 c 0,33,34
 473 500 473 500 473.5 425 c 128,-1,35
 474 350 474 350 423 287 c 2,36,-1
 401 262 l 1,37,-1
 639 262 l 1,38,-1
 639 367 l 2,39,40
 639 534 639 534 765 598 c 0,41,42
 830 629 830 629 912 629 c 0,43,44
 1052 629 1052 629 1111 558 c 0,45,46
 1148 516 1148 516 1165 426 c 0,47,48
 1173 390 1173 390 1172 354 c 2,49,-1
 1172 308 l 2,50,51
 1172 258 1172 258 1138 229 c 0,52,53
 1115 210 1115 210 1028 210 c 2,54,-1
 721 210 l 1,55,-1
 721 113 l 2,56,57
 721 78 721 78 726 70 c 0,58,59
 737 52 737 52 759 52 c 2,60,-1
 1348 52 l 2,61,62
 1370 52 1370 52 1380 70 c 0,63,64
 1385 78 1385 78 1385 111 c 2,65,-1
 1385 563 l 2,66,67
 1385 593 1385 593 1419 604 c 0,68,69
 1453 614 1453 614 1459 620 c 128,-1,70
 1465 626 1465 626 1468 632 c 1,71,-1
 1468 112 l 2,72,73
 1468 56 1468 56 1456 34 c 0,74,75
 1440 0 1440 0 1361 0 c 2,76,-1
 746 0 l 2,77,78
 689 0 689 0 664 20 c 0,79,80
 639 43 639 43 639 104 c 2,81,-1
 639 210 l 1,0,-1
721 262 m 1,82,-1
 1028 262 l 2,83,84
 1064 262 1064 262 1074 272 c 0,85,86
 1077 275 1077 275 1079 276 c 1,87,88
 1090 290 1090 290 1090 327 c 2,89,-1
 1090 346 l 2,90,91
 1090 559 1090 559 942 575 c 2,92,-1
 912 578 l 2,93,94
 782 578 782 578 740 469 c 0,95,96
 721 424 721 424 721 358 c 2,97,-1
 721 262 l 1,82,-1
EndSplineSet
EndChar

StartChar: uni0D19
Encoding: 3353 3353 24
Width: 1052
GlyphClass: 2
Flags: W
LayerCount: 2
Fore
SplineSet
712 574 m 2,0,1
 645 571 645 571 591 526 c 2,2,-1
 576 513 l 1,3,4
 542 462 542 462 542 386 c 2,5,-1
 543 52 l 2,6,7
 543 17 543 17 523 7 c 0,8,9
 511 1 511 1 495 2 c 0,10,11
 462 4 462 4 462 55 c 2,12,-1
 462 398 l 2,13,14
 462 468 462 468 423 520 c 0,15,16
 387 572 387 572 328 574 c 0,17,18
 216 576 216 576 149 486 c 0,19,20
 95 414 95 414 84 304 c 1,21,22
 93 332 93 332 140.5 359.5 c 128,-1,23
 188 387 188 387 240 387 c 128,-1,24
 292 387 292 387 328 354 c 0,25,26
 386 306 386 306 381 210 c 2,27,-1
 381 202 l 2,28,29
 381 191 381 191 380 186 c 2,30,-1
 378 162 l 2,31,32
 366 85 366 85 305 36 c 0,33,34
 259 -3 259 -3 200 0 c 2,35,-1
 194 0 l 2,36,37
 87 9 87 9 37 128 c 0,38,39
 -47 322 -47 322 70 501 c 0,40,41
 161 629 161 629 328 631 c 0,42,43
 450 631 450 631 507 493 c 1,44,45
 542 580 542 580 638 614 c 0,46,47
 680 631 680 631 728 631 c 0,48,49
 980 631 980 631 989 468 c 2,50,-1
 989 460 l 2,51,52
 990 413 990 413 961 380 c 2,53,-1
 940 362 l 2,54,55
 909 338 909 338 857 332 c 1,56,57
 950 317 950 317 977 247 c 0,58,59
 994 203 994 203 979 140 c 0,60,61
 944 0 944 0 758 0 c 0,62,63
 707 0 707 0 666 30 c 1,64,65
 651 47 651 47 648 65 c 1,66,67
 648 74 648 74 655 74 c 1,68,69
 664 72 664 72 675 65 c 1,70,71
 784 24 784 24 853 81 c 0,72,73
 887 107 887 107 899 148 c 0,74,75
 926 236 926 236 843 280 c 2,76,-1
 808 295 l 2,77,78
 770 306 770 306 721.5 308 c 128,-1,79
 673 310 673 310 667 324 c 1,80,81
 665 334 665 334 674.5 340 c 128,-1,82
 684 346 684 346 710 350 c 0,83,84
 841 363 841 363 875 396 c 0,85,86
 898 417 898 417 901.5 461 c 128,-1,87
 905 505 905 505 870 533 c 2,88,-1
 843 549 l 2,89,90
 835 553 835 553 825 557 c 2,91,-1
 782 569 l 2,92,93
 753 575 753 575 720 574 c 2,94,-1
 712 574 l 2,0,1
111 245 m 0,95,96
 98 218 98 218 101 188 c 0,97,98
 101 173 101 173 115 139 c 0,99,100
 146 78 146 78 195 68 c 0,101,102
 257 52 257 52 281 104 c 0,103,104
 303 149 303 149 299 194 c 2,105,-1
 297 206 l 2,106,107
 295 222 295 222 283 256 c 0,108,109
 266 302 266 302 203 300 c 0,110,111
 142 296 142 296 111 245 c 0,95,96
EndSplineSet
EndChar

StartChar: uni0D1A
Encoding: 3354 3354 25
Width: 990
GlyphClass: 2
Flags: W
LayerCount: 2
Fore
SplineSet
391 52 m 1,0,-1
 807 52 l 2,1,2
 829 52 829 52 839 70 c 0,3,4
 845 80 845 80 845 111 c 2,5,-1
 845 563 l 2,6,7
 845 594 845 594 878 604 c 0,8,9
 912 614 912 614 918 620 c 128,-1,10
 924 626 924 626 927 632 c 1,11,-1
 927 112 l 2,12,13
 927 56 927 56 915 34 c 0,14,15
 897 0 897 0 819 0 c 2,16,-1
 0 0 l 1,17,18
 20 5 20 5 29 18 c 2,19,-1
 35 27 l 2,20,21
 46 45 46 45 50 48.5 c 128,-1,22
 54 52 54 52 63 52 c 2,23,-1
 329 52 l 1,24,25
 396 90 396 90 414 151 c 0,26,27
 421 169 421 169 421 186 c 0,28,29
 422 252 422 252 383.5 299 c 128,-1,30
 345 346 345 346 293 348 c 0,31,32
 223 350 223 350 188 304 c 2,33,-1
 181 294 l 2,34,35
 152 246 152 246 168 202 c 2,36,-1
 185 167 l 1,37,-1
 184 158 l 1,38,39
 163 130 163 130 130 150 c 0,40,41
 113 159 113 159 106 172 c 0,42,43
 72 237 72 237 114 305 c 0,44,45
 138 338 138 338 163 354 c 0,46,47
 250 416 250 416 341 396 c 0,48,49
 436 380 436 380 479 290 c 0,50,51
 485 272 485 272 488 264 c 0,52,53
 522 149 522 149 391 52 c 1,0,-1
EndSplineSet
EndChar

StartChar: uni0D1B
Encoding: 3355 3355 26
Width: 1373
GlyphClass: 2
Flags: W
LayerCount: 2
Fore
SplineSet
798 0 m 1,0,-1
 0 0 l 1,1,2
 20 5 20 5 29 18 c 2,3,-1
 35 27 l 2,4,5
 46 45 46 45 50 48.5 c 128,-1,6
 54 52 54 52 63 52 c 2,7,-1
 329 52 l 1,8,9
 396 90 396 90 414 151 c 0,10,11
 421 169 421 169 421 186 c 0,12,13
 422 252 422 252 383.5 299 c 128,-1,14
 345 346 345 346 293 348 c 0,15,16
 223 350 223 350 188 304 c 2,17,-1
 181 294 l 2,18,19
 152 246 152 246 168 202 c 2,20,-1
 185 167 l 1,21,-1
 184 158 l 1,22,23
 163 130 163 130 130 150 c 0,24,25
 113 159 113 159 106 172 c 0,26,27
 72 237 72 237 114 305 c 0,28,29
 138 338 138 338 163 354 c 0,30,31
 250 416 250 416 341 396 c 0,32,33
 436 380 436 380 479 290 c 0,34,35
 485 272 485 272 488 264 c 0,36,37
 522 149 522 149 391 52 c 1,38,-1
 767 52 l 1,39,40
 697 102 697 102 667.5 183 c 128,-1,41
 638 264 638 264 641 335 c 2,42,-1
 641 343 l 2,43,44
 648 457 648 457 743 543 c 128,-1,45
 838 629 838 629 964 629 c 0,46,47
 1126 629 1126 629 1223 506 c 0,48,49
 1310 395 1310 395 1310 244 c 0,50,51
 1303 95 1303 95 1205 33 c 0,52,53
 1158 0 1158 0 1084 0 c 0,54,55
 978 0 978 0 925 79 c 0,56,57
 898 120 898 120 897 172 c 0,58,59
 892 280 892 280 986 367 c 0,60,61
 1062 437 1062 437 1147 446 c 1,62,63
 1068 566 1068 566 958 570 c 0,64,65
 860 574 860 574 791 494 c 0,66,67
 740 434 740 434 723 344 c 0,68,69
 711 299 711 299 715 262 c 0,70,71
 728 136 728 136 794 72 c 2,72,-1
 838 37 l 2,73,74
 845 31 845 31 846.5 20 c 128,-1,75
 848 9 848 9 840 5 c 2,76,-1
 830 1 l 1,77,-1
 798 0 l 1,0,-1
1222 268 m 0,78,79
 1210 356 1210 356 1165 418 c 1,80,81
 1147 421 1147 421 1116 403 c 2,82,-1
 1080 377 l 2,83,84
 1003 313 1003 313 992 239 c 0,85,86
 991 236 991 236 991 230 c 0,87,88
 987 172 987 172 997 134 c 0,89,90
 1002 113 1002 113 1011 97 c 0,91,92
 1039 52 1039 52 1094 52 c 0,93,94
 1167 52 1167 52 1202 133 c 0,95,96
 1225 186 1225 186 1223 257 c 1,97,98
 1222 262 1222 262 1222 268 c 0,78,79
EndSplineSet
EndChar

StartChar: uni0D1C
Encoding: 3356 3356 27
Width: 954
GlyphClass: 2
Flags: W
LayerCount: 2
Fore
SplineSet
93 508 m 1,0,1
 174 546 174 546 234 505 c 0,2,3
 272 478 272 478 275 422 c 0,4,5
 275 384 275 384 221 352 c 0,6,7
 150 312 150 312 79 334 c 0,8,9
 21 351 21 351 4 417 c 0,10,11
 -6 463 -6 463 11 510 c 0,12,13
 61 626 61 626 250 629 c 0,14,15
 348 630 348 630 413 589 c 0,16,17
 457 562 457 562 475 526 c 1,18,19
 504 594 504 594 590 620 c 0,20,21
 624 629 624 629 663 629 c 0,22,23
 841 629 841 629 870 511 c 0,24,25
 877 486 877 486 876 470.5 c 128,-1,26
 875 455 875 455 875 451 c 0,27,28
 869 319 869 319 751 280 c 2,29,-1
 700 267 l 2,30,31
 655 259 655 259 483 259 c 2,32,-1
 458 259 l 2,33,34
 316 259 316 259 227 248 c 0,35,36
 170 241 170 241 128 202 c 0,37,38
 92 166 92 166 107 130 c 0,39,40
 146 44 146 44 304 88 c 0,41,42
 335 97 335 97 480.5 155 c 128,-1,43
 626 213 626 213 682 226 c 0,44,45
 832 265 832 265 877 178 c 0,46,47
 893 149 893 149 891.5 103 c 128,-1,48
 890 57 890 57 832 24 c 0,49,50
 783 -5 783 -5 731 -1 c 0,51,52
 727 -1 727 -1 722 0 c 0,53,54
 652 9 652 9 622 61 c 0,55,56
 602 99 602 99 613 146 c 1,57,58
 564 132 564 132 428 74.5 c 128,-1,59
 292 17 292 17 205 17 c 0,60,61
 158 16 158 16 115 28 c 0,62,63
 33 54 33 54 24.5 124 c 128,-1,64
 16 194 16 194 62 242 c 0,65,66
 82 262 82 262 111 274 c 0,67,68
 181 315 181 315 490 317 c 0,69,70
 608 318 608 318 611 318 c 0,71,72
 769 325 769 325 777 446 c 0,73,74
 782 522 782 522 736 559 c 1,75,-1
 713 571 l 2,76,77
 697 579 697 579 671 579 c 0,78,79
 585 579 585 579 531 498 c 0,80,81
 501 452 501 452 496.5 403.5 c 128,-1,82
 492 355 492 355 476 352 c 0,83,84
 454 348 454 348 445 376 c 1,85,86
 445 380 445 380 443 390 c 0,87,88
 432 541 432 541 319 572 c 0,89,90
 292 582 292 582 259 581 c 2,91,-1
 255 581 l 2,92,93
 154 580 154 580 93 508 c 1,0,1
133 487 m 2,94,95
 98 486 98 486 85 463.5 c 128,-1,96
 72 441 72 441 78 427 c 0,97,98
 94 390 94 390 127.5 387 c 128,-1,99
 161 384 161 384 181 416 c 0,100,101
 199 438 199 438 188 464 c 128,-1,102
 177 490 177 490 138 487 c 2,103,-1
 133 487 l 2,94,95
723 169 m 0,104,105
 688 164 688 164 674.5 142.5 c 128,-1,106
 661 121 661 121 667 108 c 0,107,108
 680 78 680 78 710.5 69 c 128,-1,109
 741 60 741 60 759.5 68 c 128,-1,110
 778 76 778 76 788 83 c 0,111,112
 811 99 811 99 809 122 c 0,113,114
 809 125 809 125 808 128 c 0,115,116
 799 165 799 165 750 169 c 0,117,118
 737 171 737 171 723 169 c 0,104,105
EndSplineSet
EndChar

StartChar: uni0D1D
Encoding: 3357 3357 28
Width: 1642
GlyphClass: 2
Flags: W
LayerCount: 2
Fore
SplineSet
256 172 m 0,0,1
 219 307 219 307 276 429 c 0,2,3
 317 521 317 521 391 560 c 1,4,5
 269 615 269 615 174 526 c 0,6,7
 98 455 98 455 82 344 c 0,8,9
 59 217 59 217 119 112 c 0,10,11
 148 60 148 60 183 26 c 0,12,13
 204 1 204 1 194 0 c 1,14,15
 182 2 182 2 150 26 c 0,16,17
 93 65 93 65 48 150 c 0,18,19
 -4 241 -4 241 0 335 c 2,20,-1
 0 343 l 2,21,22
 9 487 9 487 122 566 c 0,23,24
 206 629 206 629 322 629 c 0,25,26
 400 629 400 629 462 602 c 1,27,28
 519 629 519 629 587 629 c 0,29,30
 843 629 843 629 843 330 c 0,31,32
 833 247 833 247 836 201 c 2,33,-1
 839 176 l 2,34,35
 847 146 847 146 858 124 c 0,36,37
 902 52 902 52 983 55 c 0,38,39
 988 55 988 55 992 56 c 0,40,41
 1059 76 1059 76 1082.5 109 c 128,-1,42
 1106 142 1106 142 1112 200 c 2,43,-1
 1112 563 l 2,44,45
 1112 614 1112 614 1145 627 c 0,46,47
 1171 636 1171 636 1189 606 c 0,48,49
 1198 590 1198 590 1198 562 c 2,50,-1
 1198 214 l 2,51,52
 1202 108 1202 108 1288 71 c 0,53,54
 1314 56 1314 56 1351 55 c 0,55,56
 1420 53 1420 53 1477 144 c 0,57,58
 1514 200 1514 200 1513 308 c 0,59,60
 1510 373 1510 373 1494 418 c 0,61,62
 1480 467 1480 467 1419 553 c 0,63,64
 1414 560 1414 560 1406 570 c 0,65,66
 1359 629 1359 629 1382 629 c 0,67,68
 1397 629 1397 629 1443.5 592.5 c 128,-1,69
 1490 556 1490 556 1535 494 c 2,70,-1
 1552 466 l 2,71,72
 1647 294 1647 294 1542 114 c 0,73,74
 1493 32 1493 32 1403 6 c 0,75,76
 1375 0 1375 0 1349 0 c 0,77,78
 1224 0 1224 0 1160 106 c 1,79,80
 1112 26 1112 26 1016 6 c 0,81,82
 918 -10 918 -10 863.5 18 c 128,-1,83
 809 46 809 46 784 94 c 0,84,85
 735 186 735 186 759 305 c 0,86,87
 784 442 784 442 725 517 c 0,88,89
 677 572 677 572 597 572 c 0,90,91
 557 572 557 572 524 566 c 1,92,93
 561 537 561 537 591 495 c 0,94,95
 658 398 658 398 661.5 266 c 128,-1,96
 665 134 665 134 593 59 c 0,97,98
 535 0 535 0 442 0 c 0,99,100
 296 0 296 0 256 172 c 0,0,1
580 268 m 0,101,102
 571 380 571 380 516 469 c 0,103,104
 476 529 476 529 440 526 c 0,105,106
 390 520 390 520 354 440 c 0,107,108
 323 376 323 376 321 297 c 128,-1,109
 319 218 319 218 340 156 c 0,110,111
 350 124 350 124 367 100 c 0,112,113
 403 52 403 52 452 52 c 0,114,115
 511 52 511 52 552 123 c 0,116,117
 584 181 584 181 581 258 c 1,118,119
 580 263 580 263 580 268 c 0,101,102
EndSplineSet
EndChar

StartChar: uni0D1E
Encoding: 3358 3358 29
Width: 1482
GlyphClass: 2
Flags: W
LayerCount: 2
Fore
SplineSet
109 245 m 0,0,1
 96 218 96 218 99 188 c 0,2,3
 99 173 99 173 113 139 c 0,4,5
 144 78 144 78 193 68 c 0,6,7
 222 60 222 60 240 69 c 1,8,9
 266 76 266 76 279 104 c 0,10,11
 301 149 301 149 297 194 c 2,12,-1
 295 206 l 2,13,14
 293 222 293 222 281 256 c 0,15,16
 264 302 264 302 201 300 c 0,17,18
 140 296 140 296 109 245 c 0,0,1
942 580 m 1,19,20
 1028 631 1028 631 1119 631 c 0,21,22
 1274 628 1274 628 1350 540 c 0,23,24
 1435 441 1435 441 1419 313 c 0,25,26
 1416 295 1416 295 1412 276 c 0,27,28
 1401 224 1401 224 1368 166 c 0,29,30
 1321 87 1321 87 1269.5 44 c 128,-1,31
 1218 1 1218 1 1191 1 c 0,32,33
 1170 2 1170 2 1216 48 c 0,34,35
 1226 58 1226 58 1233 63 c 1,36,37
 1300 140 1300 140 1325 222 c 0,38,39
 1327 228 1327 228 1327 229 c 0,40,41
 1370 399 1370 399 1282 499 c 2,42,-1
 1256 523 l 2,43,44
 1198 574 1198 574 1107 574 c 0,45,46
 1046 574 1046 574 991 544 c 1,47,48
 1080 467 1080 467 1123 356 c 0,49,50
 1174 236 1174 236 1121 125 c 0,51,52
 1083 42 1083 42 1009 11 c 0,53,54
 978 0 978 0 947 0 c 0,55,56
 850 0 850 0 786 87 c 0,57,58
 736 157 736 157 738 249 c 2,59,-1
 738 254 l 2,60,61
 745 400 745 400 856 514 c 0,62,63
 872 530 872 530 889 544 c 1,64,65
 846 566 846 566 794 574 c 0,66,67
 668 582 668 582 604 498 c 2,68,-1
 597 487 l 2,69,70
 570 446 570 446 570 402 c 2,71,-1
 570 52 l 2,72,73
 570 20 570 20 548 5 c 0,74,75
 538 0 538 0 531 0 c 0,76,77
 501 0 501 0 492 35 c 0,78,79
 489 44 489 44 489 55 c 2,80,-1
 489 398 l 2,81,82
 489 469 489 469 450 520 c 0,83,84
 423 561 423 561 350 572 c 0,85,86
 334 574 334 574 326 574 c 0,87,88
 214 576 214 576 147 486 c 0,89,90
 93 414 93 414 82 304 c 1,91,92
 91 332 91 332 138.5 359.5 c 128,-1,93
 186 387 186 387 238 387 c 128,-1,94
 290 387 290 387 326 354 c 0,95,96
 384 306 384 306 379 210 c 2,97,-1
 379 202 l 2,98,99
 379 191 379 191 378 186 c 2,100,-1
 376 162 l 2,101,102
 364 85 364 85 303 36 c 0,103,104
 257 -3 257 -3 198 0 c 2,105,-1
 192 0 l 2,106,107
 85 9 85 9 35 128 c 0,108,109
 -49 322 -49 322 68 501 c 0,110,111
 159 629 159 629 326 631 c 0,112,113
 417 631 417 631 484 575 c 0,114,115
 520 546 520 546 534 508 c 1,116,117
 580 590 580 590 688 620 c 0,118,119
 722 629 722 629 767 631 c 0,120,121
 862 630 862 630 942 580 c 1,19,20
940 508 m 1,122,123
 858 438 858 438 832 332 c 0,124,125
 815 266 815 266 820 222 c 0,126,127
 837 51 837 51 943 51 c 0,128,129
 1018 51 1018 51 1045 154 c 0,130,131
 1069 240 1069 240 1047 318 c 0,132,133
 1013 443 1013 443 940 508 c 1,122,123
EndSplineSet
EndChar

StartChar: uni0D1F
Encoding: 3359 3359 30
Width: 620
GlyphClass: 2
Flags: W
LayerCount: 2
Fore
SplineSet
482 553 m 0,0,1
 508 529 508 529 523.5 508.5 c 128,-1,2
 539 488 539 488 532.5 488 c 128,-1,3
 526 488 526 488 491 514 c 0,4,5
 417 571 417 571 285 577 c 2,6,-1
 272 577 l 2,7,8
 163 577 163 577 120 513 c 0,9,10
 98 482 98 482 98 436 c 0,11,12
 98 367 98 367 157 349 c 0,13,14
 200 337 200 337 358 337 c 0,15,16
 521 334 521 334 550 243 c 0,17,18
 557 219 557 219 557 186 c 0,19,20
 557 54 557 54 409 14 c 0,21,22
 351 0 351 0 286 0 c 0,23,24
 188 -1 188 -1 48 112 c 0,25,26
 15 137 15 137 2 152 c 1,27,28
 -4 173 -4 173 8 168 c 1,29,30
 15 167 15 167 63 135 c 2,31,-1
 118 106 l 2,32,33
 163 82 163 82 173 79 c 0,34,35
 236 50 236 50 305 51 c 0,36,37
 430 56 430 56 461 135 c 0,38,39
 470 160 470 160 469 190 c 0,40,41
 466 267 466 267 381 286 c 2,42,-1
 326 292 l 1,43,-1
 204 292 l 2,44,45
 66 289 66 289 28 359 c 0,46,47
 12 394 12 394 12 439 c 0,48,49
 12 549 12 549 118 600 c 0,50,51
 177 629 177 629 273 629 c 0,52,53
 394 629 394 629 482 553 c 0,0,1
EndSplineSet
EndChar

StartChar: uni0D20
Encoding: 3360 3360 31
Width: 779
GlyphClass: 2
Flags: W
LayerCount: 2
Fore
SplineSet
539 506 m 0,0,1
 468 572 468 572 363 574 c 128,-1,2
 258 576 258 576 176.5 498.5 c 128,-1,3
 95 421 95 421 94 323 c 0,4,5
 94 171 94 171 210 97 c 0,6,7
 286 48 286 48 389 52 c 2,8,-1
 398 52 l 2,9,10
 501 56 501 56 570 148 c 0,11,12
 625 222 625 222 626 305 c 0,13,14
 626 428 626 428 539 506 c 0,0,1
122 549 m 0,15,16
 230 625 230 625 367 626.5 c 128,-1,17
 504 628 504 628 609 548 c 0,18,19
 637 523 637 523 658 498 c 0,20,21
 715 427 715 427 717 334 c 0,22,23
 720 194 720 194 609 95 c 0,24,25
 528 26 528 26 420 7 c 0,26,27
 284 -16 284 -16 162 61 c 0,28,29
 49 137 49 137 12 251 c 0,30,31
 -1 297 -1 297 0 347 c 2,32,-1
 0 351 l 2,33,34
 6 469 6 469 122 549 c 0,15,16
EndSplineSet
EndChar

StartChar: uni0D21
Encoding: 3361 3361 32
Width: 1355
GlyphClass: 2
Flags: W
LayerCount: 2
Fore
SplineSet
463 305 m 0,0,1
 488 446 488 446 430 517 c 0,2,3
 422 525 422 525 406 539 c 0,4,5
 366 572 366 572 302 572 c 0,6,7
 186 572 186 572 125 472 c 0,8,9
 87 411 87 411 82 316 c 0,10,11
 82 152 82 152 166 62 c 0,12,13
 207 4 207 4 197 -1 c 0,14,15
 195 -2 195 -2 192 -2 c 1,16,-1
 172 7 l 1,17,-1
 126 40 l 2,18,19
 43 102 43 102 13 215 c 0,20,21
 0 266 0 266 0 323 c 0,22,23
 4 489 4 489 111 573 c 0,24,25
 185 631 185 631 291 629 c 0,26,27
 548 622 548 622 547 330 c 0,28,29
 537 247 537 247 540 201 c 2,30,-1
 543 176 l 2,31,32
 551 145 551 145 563 124 c 0,33,34
 607 52 607 52 687 55 c 0,35,36
 694 55 694 55 697 56 c 0,37,38
 763 76 763 76 788 112 c 0,39,40
 811 143 811 143 816 200 c 2,41,-1
 816 563 l 2,42,43
 816 614 816 614 849 627 c 0,44,45
 875 636 875 636 893 606 c 0,46,47
 902 590 902 590 902 562 c 2,48,-1
 902 214 l 2,49,50
 906 108 906 108 992 71 c 0,51,52
 1019 56 1019 56 1051 56 c 0,53,54
 1114 53 1114 53 1165 120 c 0,55,56
 1219 186 1219 186 1218 308 c 0,57,58
 1217 365 1217 365 1198 418 c 0,59,60
 1184 467 1184 467 1123 553 c 0,61,62
 1118 560 1118 560 1110 570 c 0,63,64
 1062 629 1062 629 1087 629 c 0,65,66
 1101 629 1101 629 1146.5 594 c 128,-1,67
 1192 559 1192 559 1239 494 c 2,68,-1
 1256 466 l 2,69,70
 1320 350 1320 350 1292 226 c 0,71,72
 1278 167 1278 167 1246 114 c 0,73,74
 1197 32 1197 32 1107 6 c 0,75,76
 1080 0 1080 0 1053 0 c 0,77,78
 927 0 927 0 865 106 c 1,79,80
 815 25 815 25 720 6 c 0,81,82
 696 2 696 2 652.5 0 c 128,-1,83
 609 -2 609 -2 562.5 20 c 128,-1,84
 516 42 516 42 488 94 c 0,85,86
 444 182 444 182 463 305 c 0,0,1
EndSplineSet
EndChar

StartChar: uni0D22
Encoding: 3362 3362 33
Width: 1425
GlyphClass: 2
Flags: W
LayerCount: 2
Fore
SplineSet
1209 343 m 0,0,1
 1245 371 1245 371 1251.5 432.5 c 128,-1,2
 1258 494 1258 494 1222 535.5 c 128,-1,3
 1186 577 1186 577 1143 577 c 0,4,5
 1090 577 1090 577 1069 514 c 0,6,7
 1055 472 1055 472 1061 442.5 c 128,-1,8
 1067 413 1067 413 1075 394 c 0,9,10
 1099 345 1099 345 1146 333 c 0,11,12
 1182 323 1182 323 1209 343 c 0,0,1
1249 86 m 2,13,14
 1163 0 1163 0 1035.5 0 c 128,-1,15
 908 0 908 0 844 106 c 1,16,17
 794 25 794 25 699 6 c 0,18,19
 603 -10 603 -10 553 15 c 0,20,21
 519 32 519 32 503 47 c 128,-1,22
 487 62 487 62 467 94 c 0,23,24
 422 185 422 185 442 305 c 0,25,26
 472 468 472 468 386 539 c 0,27,28
 344 572 344 572 280 572 c 0,29,30
 149 572 149 572 101 434 c 0,31,32
 82 373 82 373 82 316 c 0,33,34
 82 152 82 152 166 62 c 0,35,36
 207 4 207 4 197 -1 c 0,37,38
 195 -2 195 -2 192 -2 c 1,39,-1
 172 7 l 1,40,-1
 126 40 l 2,41,42
 43 102 43 102 13 215 c 0,43,44
 0 266 0 266 0 323 c 0,45,46
 6 504 6 504 116 584 c 0,47,48
 182 630 182 630 270 629 c 0,49,50
 486 628 486 628 521 411 c 0,51,52
 526 369 526 369 526 330 c 0,53,54
 517 246 517 246 520 202 c 2,55,-1
 523 176 l 2,56,57
 528 149 528 149 541 124 c 0,58,59
 586 52 586 52 666 55 c 0,60,61
 673 55 673 55 676 56 c 0,62,63
 742 76 742 76 767 112 c 0,64,65
 790 143 790 143 795 200 c 2,66,-1
 795 563 l 2,67,68
 795 614 795 614 828 627 c 0,69,70
 854 636 854 636 872 606 c 0,71,72
 881 590 881 590 881 562 c 2,73,-1
 881 214 l 2,74,75
 886 107 886 107 972 71 c 0,76,77
 1033 36 1033 36 1117 74 c 0,78,79
 1136 83 1136 83 1149 92 c 128,-1,80
 1162 101 1162 101 1189 126 c 0,81,82
 1261 190 1261 190 1270 330 c 0,83,84
 1271 341 1271 341 1271 348 c 1,85,86
 1243 279 1243 279 1160 276 c 0,87,88
 1130 276 1130 276 1098 288 c 0,89,90
 1037 307 1037 307 1000 375 c 0,91,92
 974 421 974 421 978 472 c 0,93,94
 978 477 978 477 979 482 c 0,95,96
 998 629 998 629 1149 629 c 0,97,98
 1254 629 1254 629 1315 541 c 0,99,100
 1363 474 1363 474 1363 382 c 0,101,102
 1363 205 1363 205 1258 94 c 2,103,-1
 1249 86 l 2,13,14
EndSplineSet
EndChar

StartChar: uni0D23
Encoding: 3363 3363 34
Width: 1436
GlyphClass: 2
Flags: W
LayerCount: 2
Fore
SplineSet
531 0 m 0,0,1
 501 0 501 0 492 35 c 0,2,3
 489 44 489 44 489 55 c 2,4,-1
 489 398 l 2,5,6
 489 469 489 469 450 520 c 0,7,8
 423 561 423 561 350 572 c 0,9,10
 334 574 334 574 326 574 c 0,11,12
 214 576 214 576 147 486 c 0,13,14
 93 414 93 414 82 304 c 1,15,16
 91 332 91 332 138.5 359.5 c 128,-1,17
 186 387 186 387 238 387 c 128,-1,18
 290 387 290 387 326 354 c 0,19,20
 384 306 384 306 379 210 c 2,21,-1
 379 202 l 2,22,23
 379 191 379 191 378 186 c 2,24,-1
 376 162 l 2,25,26
 364 85 364 85 303 36 c 0,27,28
 257 -3 257 -3 198 0 c 2,29,-1
 192 0 l 2,30,31
 85 9 85 9 35 128 c 0,32,33
 -49 322 -49 322 68 501 c 0,34,35
 159 629 159 629 326 631 c 0,36,37
 417 631 417 631 484 575 c 0,38,39
 520 546 520 546 534 508 c 1,40,41
 553 572 553 572 635 608 c 0,42,43
 685 631 685 631 745 632 c 0,44,45
 834 632 834 632 896 580 c 2,46,-1
 918 557 l 2,47,48
 934 537 934 537 943 514 c 1,49,50
 990 631 990 631 1130 631 c 0,51,52
 1240 631 1240 631 1309 562 c 2,53,-1
 1330 537 l 2,54,55
 1334 531 1334 531 1335 528 c 1,56,57
 1441 348 1441 348 1333 166 c 0,58,59
 1304 110 1304 110 1243 54 c 2,60,-1
 1229 42 l 2,61,62
 1173 -5 1173 -5 1157 5 c 1,63,64
 1153 19 1153 19 1191.5 64.5 c 128,-1,65
 1230 110 1230 110 1275 214 c 0,66,67
 1308 282 1308 282 1291 388 c 0,68,69
 1281 455 1281 455 1258 486 c 1,70,71
 1228 546 1228 546 1172 566 c 2,72,-1
 1142 573 l 2,73,74
 1137 574 1137 574 1128 574 c 0,75,76
 1072 574 1072 574 1025 534 c 2,77,-1
 1005 513 l 1,78,79
 982 480 982 480 979 436 c 2,80,-1
 979 54 l 2,81,82
 974 10 974 10 943 3 c 0,83,84
 924 -2 924 -2 914.5 7.5 c 128,-1,85
 905 17 905 17 899 29 c 1,86,87
 896 40 896 40 893 53 c 1,88,-1
 893 422 l 2,89,90
 883 500 883 500 822 551 c 0,91,92
 787 577 787 577 755 577 c 0,93,94
 699 577 699 577 663 558 c 0,95,96
 648 549 648 549 623 526 c 0,97,98
 570 472 570 472 570 402 c 2,99,-1
 570 52 l 2,100,101
 570 20 570 20 548 5 c 0,102,103
 538 0 538 0 531 0 c 0,0,1
109 245 m 0,104,105
 96 218 96 218 99 188 c 0,106,107
 99 173 99 173 113 139 c 0,108,109
 144 78 144 78 193 68 c 0,110,111
 222 60 222 60 240 69 c 1,112,113
 266 76 266 76 279 104 c 0,114,115
 301 149 301 149 297 194 c 2,116,-1
 295 206 l 2,117,118
 293 222 293 222 281 256 c 0,119,120
 264 302 264 302 201 300 c 0,121,122
 140 296 140 296 109 245 c 0,104,105
EndSplineSet
EndChar

StartChar: uni0D24
Encoding: 3364 3364 35
Width: 985
GlyphClass: 2
Flags: W
LayerCount: 2
Fore
SplineSet
444 580 m 1,0,1
 531 631 531 631 621 631 c 0,2,3
 776 628 776 628 852 540 c 0,4,5
 936 437 936 437 921 313 c 0,6,7
 918 295 918 295 909 257 c 128,-1,8
 900 219 900 219 870 166 c 0,9,10
 824 89 824 89 771.5 45 c 128,-1,11
 719 1 719 1 693 1 c 0,12,13
 672 2 672 2 718 48 c 0,14,15
 728 58 728 58 735 63 c 1,16,17
 802 140 802 140 829 229 c 0,18,19
 870 398 870 398 784 499 c 0,20,21
 719 574 719 574 611 574 c 0,22,23
 548 574 548 574 492 544 c 1,24,25
 582 468 582 468 625 356 c 0,26,27
 674 234 674 234 623 125 c 0,28,29
 584 39 584 39 505 9 c 0,30,31
 478 0 478 0 449 0 c 0,32,33
 350 0 350 0 287 87 c 0,34,35
 236 163 236 163 239 249 c 2,36,-1
 239 254 l 2,37,38
 248 428 248 428 391 544 c 1,39,40
 349 566 349 566 295 573.5 c 128,-1,41
 241 581 241 581 202.5 563.5 c 128,-1,42
 164 546 164 546 131 508 c 0,43,44
 69 436 69 436 76 307 c 0,45,46
 76 202 76 202 149 98 c 2,47,-1
 175 68 l 2,48,49
 233 3 233 3 218 2 c 1,50,51
 204 -2 204 -2 159 32 c 0,52,53
 74 96 74 96 29 198 c 0,54,55
 -40 394 -40 394 55 526 c 0,56,57
 129 625 129 625 260 631 c 2,58,-1
 269 631 l 2,59,60
 363 630 363 630 444 580 c 1,0,1
442 508 m 1,61,62
 360 437 360 437 334 332 c 0,63,64
 308 237 308 237 336.5 144 c 128,-1,65
 365 51 365 51 442.5 51 c 128,-1,66
 520 51 520 51 547 154 c 0,67,68
 570 237 570 237 549 318 c 0,69,70
 515 443 515 443 442 508 c 1,61,62
EndSplineSet
EndChar

StartChar: uni0D25
Encoding: 3365 3365 36
Width: 930
GlyphClass: 2
Flags: W
LayerCount: 2
Fore
SplineSet
608 578 m 0,0,1
 478 578 478 578 436 469 c 0,2,3
 417 424 417 424 417 358 c 2,4,-1
 417 52 l 1,5,-1
 724 52 l 2,6,7
 766 51 766 51 775 68 c 1,8,9
 786 79 786 79 786 118 c 2,10,-1
 786 314 l 2,11,12
 786 507 786 507 698 557 c 2,13,-1
 666 570 l 1,14,-1
 627 577 l 2,15,16
 621 578 621 578 608 578 c 0,0,1
335 52 m 1,17,-1
 335 367 l 2,18,19
 335 534 335 534 461 598 c 0,20,21
 526 629 526 629 608 629 c 0,22,23
 725 629 725 629 799 558 c 2,24,-1
 813 543 l 2,25,26
 868 481 868 481 868 316 c 2,27,-1
 868 98 l 2,28,29
 868 48 868 48 834 19 c 0,30,31
 811 0 811 0 724 0 c 2,32,-1
 106 0 l 2,33,34
 50 0 50 0 24 20 c 0,35,36
 0 42 0 42 0 104 c 2,37,-1
 0 564 l 2,38,39
 0 595 0 595 31 605 c 0,40,41
 65 615 65 615 72 621 c 128,-1,42
 79 627 79 627 82 633 c 1,43,-1
 82 113 l 2,44,45
 82 78 82 78 87 70 c 0,46,47
 97 52 97 52 119 52 c 2,48,-1
 335 52 l 1,17,-1
EndSplineSet
EndChar

StartChar: uni0D26
Encoding: 3366 3366 37
Width: 638
GlyphClass: 2
Flags: W
LayerCount: 2
Fore
SplineSet
486 148 m 0,0,1
 513 236 513 236 431 280 c 2,2,-1
 395 295 l 2,3,4
 355 306 355 306 306.5 307.5 c 128,-1,5
 258 309 258 309 256 324 c 128,-1,6
 254 339 254 339 270 344 c 128,-1,7
 286 349 286 349 298 350 c 0,8,9
 428 363 428 363 462 396 c 0,10,11
 485 417 485 417 488 462 c 0,12,13
 494 530 494 530 411 561 c 0,14,15
 368 577 368 577 322 577 c 0,16,17
 188 577 188 577 115 447 c 0,18,19
 48 317 48 317 86 161 c 0,20,21
 101 98 101 98 134 52 c 0,22,23
 168 0 168 0 149 0 c 1,24,25
 135 2 135 2 102 32 c 0,26,27
 52 80 52 80 18 186 c 0,28,29
 -3 260 -3 260 0 328 c 0,30,31
 0 335 0 335 1 341 c 0,32,33
 10 445 10 445 95 532 c 0,34,35
 191 629 191 629 322 629 c 0,36,37
 521 629 521 629 566 519 c 0,38,39
 576 493 576 493 576 460 c 0,40,41
 576 388 576 388 507 350 c 0,42,43
 478 336 478 336 444 332 c 1,44,45
 537 317 537 317 564 247 c 0,46,47
 582 203 582 203 566 140 c 0,48,49
 531 0 531 0 356 0 c 0,50,51
 306 0 306 0 263 31 c 0,52,53
 236 50 236 50 233 70 c 1,54,55
 233 84 233 84 262 65 c 1,56,57
 371 24 371 24 440 81 c 0,58,59
 474 107 474 107 486 148 c 0,0,1
EndSplineSet
EndChar

StartChar: uni0D27
Encoding: 3367 3367 38
Width: 966
GlyphClass: 2
Flags: W
LayerCount: 2
Fore
SplineSet
652 56 m 0,0,1
 593 56 593 56 547 102 c 0,2,3
 506 146 506 146 503 214 c 2,4,-1
 503 562 l 2,5,6
 507 592 507 592 483 618 c 128,-1,7
 459 644 459 644 439 621 c 0,8,9
 423 604 423 604 415 563 c 1,10,11
 416 451 416 451 416 200 c 0,12,13
 407 100 407 100 338 71 c 2,14,-1
 298 56 l 2,15,16
 247 44 247 44 204 67 c 128,-1,17
 161 90 161 90 132 124 c 0,18,19
 71 195 71 195 77 326 c 0,20,21
 77 356 77 356 88 402 c 0,22,23
 113 490 113 490 176 564 c 0,24,25
 235 628 235 628 219 630 c 0,26,27
 210 630 210 630 160 600 c 0,28,29
 91 551 91 551 30 434 c 1,30,31
 -17 296 -17 296 10 200 c 0,32,33
 22 153 22 153 56 104 c 0,34,35
 127 24 127 24 184 8 c 0,36,37
 215 -1 215 -1 240.5 -0.5 c 128,-1,38
 266 0 266 0 270 0 c 0,39,40
 383 1 383 1 450 85 c 0,41,42
 459 96 459 96 465 106 c 1,43,44
 529 0 529 0 654 0 c 0,45,46
 732 0 732 0 811 73 c 0,47,48
 835 94 835 94 847 114 c 0,49,50
 929 234 929 234 894 374 c 0,51,52
 869 484 869 484 767 577 c 2,53,-1
 752 589 l 2,54,55
 695 637 695 637 681 626 c 1,56,57
 679 618 679 618 691 598 c 2,58,-1
 710 570 l 1,59,60
 752 524 752 524 798 418 c 0,61,62
 833 348 833 348 815 245 c 0,63,64
 806 180 806 180 782 144 c 0,65,66
 754 93 754 93 710 71 c 0,67,68
 684 55 684 55 652 56 c 0,0,1
EndSplineSet
EndChar

StartChar: uni0D28
Encoding: 3368 3368 39
Width: 965
GlyphClass: 2
Flags: W
LayerCount: 2
Fore
SplineSet
651 574 m 0,0,1
 589 574 589 574 546 528 c 2,2,-1
 527 506 l 1,3,4
 505 469 505 469 502 418 c 2,5,-1
 502 60 l 2,6,7
 502 13 502 13 471.5 3.5 c 128,-1,8
 441 -6 441 -6 424 20 c 1,9,10
 415 40 415 40 415 57 c 2,11,-1
 415 432 l 2,12,13
 406 530 406 530 337 561 c 2,14,-1
 297 574 l 2,15,16
 214 598 214 598 131 508 c 0,17,18
 70 435 70 435 76 304 c 0,19,20
 76 276 76 276 87 228 c 0,21,22
 106 159 106 159 149 98 c 0,23,24
 157 88 157 88 175 68 c 0,25,26
 234 2 234 2 217 2 c 1,27,-1
 205 5 l 2,28,29
 190 11 190 11 159 32 c 0,30,31
 93 77 93 77 29 198 c 1,32,33
 -17 334 -17 334 9 432 c 0,34,35
 21 478 21 478 55 526 c 0,36,37
 124 610 124 610 215 626 c 0,38,39
 231 629 231 629 269 631 c 0,40,41
 383 630 383 630 449 547 c 0,42,43
 457 537 457 537 464 524 c 1,44,45
 526 631 526 631 653 631 c 0,46,47
 732 631 732 631 793 585 c 0,48,49
 819 567 819 567 839 541 c 0,50,51
 912 456 912 456 902 325 c 0,52,53
 894 232 894 232 858.5 169.5 c 128,-1,54
 823 107 823 107 766 54 c 2,55,-1
 751 42 l 2,56,57
 697 -4 697 -4 679 4 c 1,58,59
 671 14 671 14 709 60 c 0,60,61
 768 114 768 114 797 214 c 0,62,63
 833 317 833 317 810 418 c 0,64,65
 801 455 801 455 781 486 c 0,66,67
 755 537 755 537 709 561 c 0,68,69
 681 575 681 575 651 574 c 0,0,1
EndSplineSet
EndChar

StartChar: uni0D2A
Encoding: 3370 3370 40
Width: 944
GlyphClass: 2
Flags: W
LayerCount: 2
Fore
SplineSet
473 214 m 0,0,1
 475 126 475 126 401 52 c 1,2,-1
 761 52 l 2,3,4
 783 52 783 52 793 70 c 0,5,6
 798 78 798 78 798 111 c 2,7,-1
 798 563 l 2,8,9
 798 593 798 593 832 604 c 0,10,11
 866 614 866 614 872 620 c 128,-1,12
 878 626 878 626 881 632 c 1,13,-1
 881 112 l 2,14,15
 881 56 881 56 869 34 c 0,16,17
 851 0 851 0 773 0 c 2,18,-1
 389 0 l 2,19,20
 330 0 330 0 323 7 c 0,21,22
 311 19 311 19 354.5 63.5 c 128,-1,23
 398 108 398 108 403 152 c 2,24,-1
 404 200 l 2,25,26
 403 257 403 257 352 306 c 0,27,28
 307 353 307 353 249 352 c 0,29,30
 175 350 175 350 124 304 c 2,31,-1
 102 282 l 1,32,33
 72 241 72 241 72 193 c 0,34,35
 70 159 70 159 82 127 c 0,36,37
 91 92 91 92 110 61 c 0,38,39
 143 13 143 13 141 1 c 1,40,-1
 133 3 l 1,41,-1
 94 29 l 2,42,43
 86 36 86 36 73 44 c 1,44,45
 1 120 1 120 0 198 c 0,46,47
 2 311 2 311 103 373 c 0,48,49
 169 409 169 409 238 409 c 0,50,51
 360 409 360 409 425 341 c 0,52,53
 473 290 473 290 473 214 c 0,0,1
EndSplineSet
EndChar

StartChar: uni0D2B
Encoding: 3371 3371 41
Width: 1287
GlyphClass: 2
Flags: W
LayerCount: 2
Fore
SplineSet
473 214 m 0,0,1
 475 126 475 126 401 52 c 1,2,-1
 692 52 l 1,3,-1
 692 367 l 2,4,5
 692 533 692 533 817 598 c 0,6,7
 882 629 882 629 964 629 c 0,8,9
 1082 629 1082 629 1156 558 c 2,10,-1
 1170 543 l 2,11,12
 1224 480 1224 480 1224 316 c 2,13,-1
 1224 98 l 2,14,15
 1224 49 1224 49 1191 19 c 0,16,17
 1168 0 1168 0 1080 0 c 2,18,-1
 389 0 l 2,19,20
 330 0 330 0 323 7 c 0,21,22
 311 19 311 19 354.5 63.5 c 128,-1,23
 398 108 398 108 403 152 c 2,24,-1
 404 200 l 2,25,26
 403 257 403 257 352 306 c 0,27,28
 307 353 307 353 249 352 c 0,29,30
 175 350 175 350 124 304 c 2,31,-1
 102 282 l 1,32,33
 72 241 72 241 72 193 c 0,34,35
 70 159 70 159 82 127 c 0,36,37
 91 92 91 92 110 61 c 0,38,39
 143 13 143 13 141 1 c 1,40,-1
 133 3 l 1,41,-1
 94 29 l 2,42,43
 86 36 86 36 73 44 c 1,44,45
 1 120 1 120 0 198 c 0,46,47
 2 311 2 311 103 373 c 0,48,49
 169 409 169 409 238 409 c 0,50,51
 360 409 360 409 425 341 c 0,52,53
 473 290 473 290 473 214 c 0,0,1
773 52 m 1,54,-1
 1080 52 l 2,55,56
 1122 50 1122 50 1132 68 c 1,57,58
 1143 81 1143 81 1143 118 c 2,59,-1
 1143 314 l 2,60,61
 1143 507 1143 507 1054 557 c 2,62,-1
 1023 570 l 1,63,-1
 984 577 l 2,64,65
 978 578 978 578 964 578 c 0,66,67
 836 578 836 578 792 469 c 0,68,69
 773 420 773 420 773 358 c 2,70,-1
 773 52 l 1,54,-1
EndSplineSet
EndChar

StartChar: uni0D2C
Encoding: 3372 3372 42
Width: 1371
GlyphClass: 2
Flags: W
LayerCount: 2
Fore
SplineSet
696 572 m 0,0,1
 629 570 629 570 582 523 c 2,2,-1
 574 513 l 2,3,4
 541 464 541 464 541 386 c 2,5,-1
 541 52 l 2,6,7
 541 18 541 18 521 7 c 0,8,9
 509 1 509 1 493 2 c 0,10,11
 460 4 460 4 460 55 c 2,12,-1
 460 398 l 2,13,14
 460 468 460 468 421.5 520 c 128,-1,15
 383 572 383 572 326 574 c 0,16,17
 214 576 214 576 147 486 c 0,18,19
 93 414 93 414 82 304 c 1,20,21
 90 331 90 331 137 358 c 0,22,23
 179 387 179 387 234.5 387 c 128,-1,24
 290 387 290 387 326 354 c 0,25,26
 379 310 379 310 379 202 c 0,27,28
 379 191 379 191 378 186 c 2,29,-1
 376 162 l 2,30,31
 364 87 364 87 303 36 c 0,32,33
 257 -3 257 -3 198 0 c 2,34,-1
 192 0 l 2,35,36
 85 9 85 9 35 128 c 0,37,38
 -48 323 -48 323 68 501 c 0,39,40
 159 629 159 629 326 631 c 0,41,42
 448 631 448 631 505 493 c 1,43,44
 541 587 541 587 637 618 c 0,45,46
 672 631 672 631 711 631 c 0,47,48
 854 631 854 631 926 532 c 0,49,50
 984 456 984 456 983 330 c 0,51,52
 979 187 979 187 875 79 c 2,53,-1
 849 52 l 1,54,-1
 1189 52 l 2,55,56
 1211 52 1211 52 1221 70 c 0,57,58
 1226 78 1226 78 1226 111 c 2,59,-1
 1226 563 l 2,60,61
 1226 593 1226 593 1259 603.5 c 128,-1,62
 1292 614 1292 614 1299 620 c 128,-1,63
 1306 626 1306 626 1309 632 c 1,64,-1
 1309 112 l 2,65,66
 1309 56 1309 56 1296 34 c 0,67,68
 1280 0 1280 0 1201 0 c 2,69,-1
 836 0 l 2,70,71
 777 0 777 0 770 7 c 0,72,73
 758 20 758 20 794 56 c 0,74,75
 861 126 861 126 881 185 c 128,-1,76
 901 244 901 244 902 320 c 0,77,78
 904 430 904 430 847.5 502 c 128,-1,79
 791 574 791 574 696 572 c 0,0,1
109 245 m 0,80,81
 96 218 96 218 99 188 c 0,82,83
 99 173 99 173 113 139 c 0,84,85
 144 78 144 78 193 68 c 0,86,87
 220 60 220 60 240 69 c 1,88,89
 266 76 266 76 279 104 c 0,90,91
 301 149 301 149 297 194 c 2,92,-1
 295 206 l 2,93,94
 291 228 291 228 281 256 c 0,95,96
 262 302 262 302 201 299 c 128,-1,97
 140 296 140 296 109 245 c 0,80,81
EndSplineSet
EndChar

StartChar: uni0D2D
Encoding: 3373 3373 43
Width: 666
GlyphClass: 2
Flags: W
LayerCount: 2
Fore
SplineSet
518 477 m 0,0,1
 516 578 516 578 338 578 c 0,2,3
 202 578 202 578 127 455 c 0,4,5
 58 342 58 342 89 177 c 0,6,7
 104 100 104 100 139 52 c 0,8,9
 169 8 169 8 160 2 c 0,10,11
 158 1 158 1 154 1 c 0,12,13
 138 3 138 3 107 32 c 0,14,15
 34 111 34 111 11 217 c 0,16,17
 -3 274 -3 274 1 325 c 0,18,19
 1 336 1 336 3 346 c 0,20,21
 16 455 16 455 108.5 542 c 128,-1,22
 201 629 201 629 327 629 c 0,23,24
 542 629 542 629 586 536 c 0,25,26
 599 510 599 510 599 474 c 0,27,28
 599 393 599 393 516 381 c 0,29,30
 498 378 498 378 437 378 c 2,31,-1
 396 379 l 1,32,-1
 339 378 l 2,33,34
 276 370 276 370 276 318 c 0,35,36
 276 263 276 263 338 254 c 2,37,-1
 444 253 l 2,38,39
 542 253 542 253 577 215 c 0,40,41
 592 197 592 197 598 173 c 0,42,43
 630 48 630 48 490 11 c 0,44,45
 440 0 440 0 368.5 0 c 128,-1,46
 297 0 297 0 244 33 c 0,47,48
 236 37 236 37 229 44 c 1,49,50
 201 65 201 65 195 90 c 1,51,52
 190 102 190 102 201 100 c 0,53,54
 209 98 209 98 221 88 c 0,55,56
 282 43 282 43 380 41.5 c 128,-1,57
 478 40 478 40 510 90 c 0,58,59
 522 107 522 107 520 133 c 2,60,-1
 520 139 l 1,61,62
 512 195 512 195 435 206 c 2,63,-1
 293 216 l 2,64,65
 195 228 195 228 195 316 c 0,66,67
 195 387 195 387 281 404 c 0,68,69
 296 408 296 408 402 413 c 0,70,71
 491 419 491 419 510 447 c 0,72,73
 518 461 518 461 518 477 c 0,0,1
EndSplineSet
EndChar

StartChar: uni0D2E
Encoding: 3374 3374 44
Width: 650
GlyphClass: 2
Flags: W
LayerCount: 2
Fore
SplineSet
0 103 m 2,0,-1
 0 367 l 2,1,2
 0 507 0 507 122 581 c 0,3,4
 203 629 203 629 311.5 629 c 128,-1,5
 420 629 420 629 500 572 c 0,6,7
 588 521 588 521 588 316 c 2,8,-1
 588 98 l 2,9,10
 588 48 588 48 554 19 c 0,11,12
 531 0 531 0 444 0 c 2,13,-1
 105 0 l 2,14,15
 49 0 49 0 23 20 c 0,16,17
 0 43 0 43 0 103 c 2,0,-1
82 112 m 1,18,-1
 83 77 l 1,19,-1
 86 72 l 1,20,21
 126 89 126 89 175 128 c 0,22,23
 302 227 302 227 310 351.5 c 128,-1,24
 318 476 318 476 260 510 c 1,25,26
 168 546 168 546 108 470 c 1,27,28
 82 424 82 424 82 358 c 2,29,-1
 82 112 l 1,18,-1
116 52 m 1,30,-1
 444 52 l 2,31,32
 486 51 486 51 495 68 c 1,33,34
 506 79 506 79 506 118 c 2,35,-1
 506 314 l 2,36,37
 506 578 506 578 311 578 c 0,38,39
 286 578 286 578 264 574 c 1,40,41
 319 566 319 566 363 514 c 2,42,-1
 379 492 l 2,43,44
 406 449 406 449 401 387 c 2,45,-1
 399 371 l 2,46,47
 395 342 395 342 384 310 c 0,48,49
 310 124 310 124 116 52 c 1,30,-1
104 467 m 1,50,51
 97 456 97 456 93 445 c 1,52,-1
 104 467 l 1,50,51
EndSplineSet
EndChar

StartChar: uni0D2F
Encoding: 3375 3375 45
Width: 1072
GlyphClass: 2
Flags: W
LayerCount: 2
Fore
SplineSet
742 454 m 0,0,1
 771 328 771 328 715 203 c 0,2,3
 670 105 670 105 592 70 c 1,4,5
 713 16 713 16 813 90 c 0,6,7
 896 149 896 149 923 258 c 0,8,9
 927 271 927 271 928 281 c 0,10,11
 951 412 951 412 892 515 c 0,12,13
 870 554 870 554 829 601 c 0,14,15
 803 626 803 626 817 626 c 0,16,17
 826 625 826 625 861 601 c 0,18,19
 919 558 919 558 967 468.5 c 128,-1,20
 1015 379 1015 379 1011 291 c 1,21,22
 1010 286 1010 286 1010 282 c 0,23,24
 1001 146 1001 146 885 62 c 0,25,26
 795 -3 795 -3 671 -2 c 0,27,28
 583 -1 583 -1 517 33 c 1,29,30
 461 4 461 4 364 0 c 2,31,-1
 347 0 l 2,32,33
 210 0 210 0 108 97 c 0,34,35
 30 175 30 175 7.5 292.5 c 128,-1,36
 -15 410 -15 410 34 512.5 c 128,-1,37
 83 615 83 615 183 628.5 c 128,-1,38
 283 642 283 642 329 570 c 0,39,40
 349 541 349 541 355 496 c 1,41,42
 373 536 373 536 404 568 c 0,43,44
 463 628 463 628 556 628 c 0,45,46
 701 627 701 627 742 454 c 0,0,1
415 359 m 2,47,48
 424 243 424 243 486 157 c 0,49,50
 522 104 522 104 559 100 c 128,-1,51
 596 96 596 96 625 138 c 0,52,53
 669 203 669 203 674 328.5 c 128,-1,54
 679 454 679 454 631 525 c 0,55,56
 599 571 599 571 546 575 c 0,57,58
 486 575 486 575 449 511.5 c 128,-1,59
 412 448 412 448 415 367 c 2,60,-1
 415 359 l 2,47,48
479 56 m 1,61,62
 437 87 437 87 404 133 c 0,63,64
 337 230 337 230 334 362 c 0,65,66
 333 386 333 386 335 408 c 1,67,68
 324 480 324 480 283 529 c 0,69,70
 247 577 247 577 195 573 c 1,71,72
 192 572 192 572 189 572 c 0,73,74
 102 562 102 562 75 462 c 0,75,76
 60 396 60 396 69 344 c 0,77,78
 87 249 87 249 116 200 c 0,79,80
 175 96 175 96 287 55 c 0,81,82
 390 20 390 20 479 56 c 1,61,62
EndSplineSet
EndChar

StartChar: uni0D30
Encoding: 3376 3376 46
Width: 724
GlyphClass: 2
Flags: W
LayerCount: 2
Fore
SplineSet
257 172 m 0,0,1
 296 0 296 0 443 0 c 0,2,3
 576 0 576 0 633 116 c 0,4,5
 666 183 666 183 663 266 c 0,6,7
 657 433 657 433 559 536 c 2,8,-1
 526 564 l 1,9,-1
 488 589 l 2,10,11
 414 629 414 629 323 629 c 0,12,13
 179 629 179 629 88 538 c 2,14,-1
 60 507 l 2,15,16
 7 438 7 438 1 347 c 128,-1,17
 -5 256 -5 256 34 174 c 0,18,19
 55 132 55 132 88 90 c 0,20,21
 115 52 115 52 154 23 c 128,-1,22
 193 -6 193 -6 199 2 c 1,23,24
 199 6 199 6 184 26 c 0,25,26
 76 140 76 140 76 276 c 0,27,28
 76 300 76 300 83 344 c 0,29,30
 99 453 99 453 176 524 c 0,31,32
 270 609 270 609 389 564 c 2,33,-1
 403 558 l 1,34,35
 319 518 319 518 272.5 404 c 128,-1,36
 226 290 226 290 257 172 c 0,0,1
369 485 m 0,37,38
 399 529 399 529 440 525.5 c 128,-1,39
 481 522 481 522 527.5 443 c 128,-1,40
 574 364 574 364 581.5 263 c 128,-1,41
 589 162 589 162 536 98 c 0,42,43
 499 53 499 53 453 52 c 0,44,45
 373 52 373 52 341 162 c 0,46,47
 321 223 321 223 323 302 c 2,48,-1
 323 310 l 2,49,50
 326 419 326 419 369 485 c 0,37,38
EndSplineSet
EndChar

StartChar: uni0D31
Encoding: 3377 3377 47
Width: 651
GlyphClass: 2
Flags: W
LayerCount: 2
Fore
SplineSet
82 316 m 0,0,1
 82 152 82 152 166 62 c 0,2,3
 207 4 207 4 197 -1 c 0,4,5
 195 -2 195 -2 192 -2 c 1,6,-1
 172 7 l 1,7,-1
 126 40 l 2,8,9
 43 104 43 104 13 218 c 0,10,11
 0 267 0 267 0 323 c 0,12,13
 4 495 4 495 122 578 c 0,14,15
 193 628 193 628 296 629 c 0,16,17
 458 630 458 630 533 526 c 0,18,19
 590 451 590 451 589 330 c 0,20,21
 583 186 583 186 492 89 c 2,22,-1
 467 62 l 2,23,24
 417 15 417 15 378 0 c 0,25,26
 363 -6 363 -6 361 -2 c 0,27,28
 354 10 354 10 410 67.5 c 128,-1,29
 466 125 466 125 487 187.5 c 128,-1,30
 508 250 508 250 509 324 c 0,31,32
 510 428 510 428 450 504 c 0,33,34
 392 572 392 572 302 572 c 0,35,36
 187 572 187 572 125 472 c 0,37,38
 87 410 87 410 82 316 c 0,0,1
EndSplineSet
EndChar

StartChar: uni0D32
Encoding: 3378 3378 48
Width: 891
GlyphClass: 2
Flags: W
LayerCount: 2
Fore
SplineSet
0 104 m 2,0,-1
 0 367 l 2,1,2
 0 534 0 534 126 598 c 0,3,4
 191 629 191 629 272 629 c 0,5,6
 413 629 413 629 472 558 c 0,7,8
 510 514 510 514 526 426 c 0,9,10
 533 388 533 388 532 353 c 2,11,-1
 532 308 l 2,12,13
 532 257 532 257 498 229 c 0,14,15
 476 210 476 210 389 210 c 2,16,-1
 82 209 l 1,17,-1
 82 113 l 2,18,19
 82 78 82 78 87 70 c 0,20,21
 97 52 97 52 119 52 c 2,22,-1
 708 52 l 2,23,24
 731 52 731 52 741 70 c 0,25,26
 746 78 746 78 746 111 c 2,27,-1
 746 563 l 2,28,29
 746 593 746 593 779 603.5 c 128,-1,30
 812 614 812 614 819 620 c 128,-1,31
 826 626 826 626 829 632 c 1,32,-1
 829 112 l 2,33,34
 829 56 829 56 816 34 c 0,35,36
 800 0 800 0 721 0 c 2,37,-1
 106 0 l 2,38,39
 50 0 50 0 24 20 c 0,40,41
 0 42 0 42 0 104 c 2,0,-1
389 262 m 2,42,43
 426 262 426 262 440 276 c 1,44,45
 450 290 450 290 450 327 c 2,46,-1
 450 346 l 2,47,48
 450 558 450 558 303 575 c 0,49,50
 288 578 288 578 272 578 c 0,51,52
 144 578 144 578 100 469 c 0,53,54
 82 422 82 422 82 358 c 2,55,-1
 82 262 l 1,56,-1
 389 262 l 2,42,43
EndSplineSet
EndChar

StartChar: uni0D33
Encoding: 3379 3379 49
Width: 789
GlyphClass: 2
Flags: W
LayerCount: 2
Fore
SplineSet
138 528 m 0,0,1
 81 470 81 470 78 402 c 1,2,3
 96 439 96 439 144 461 c 0,4,5
 171 473 171 473 215.5 471.5 c 128,-1,6
 260 470 260 470 292 445 c 0,7,8
 347 408 347 408 342 324 c 0,9,10
 341 319 341 319 341 314 c 1,11,-1
 337 295 l 1,12,-1
 337 294 l 1,13,14
 324 232 324 232 270 195 c 0,15,16
 229 167 229 167 169 167 c 0,17,18
 69 170 69 170 30 241 c 0,19,20
 -17 326 -17 326 9 428 c 0,21,22
 51 592 51 592 257 623 c 0,23,24
 296 629 296 629 342 629 c 0,25,26
 704 629 704 629 712 460 c 0,27,28
 715 412 715 412 683 380 c 2,29,-1
 661 361 l 1,30,31
 653 356 653 356 645 352 c 2,32,-1
 610 338 l 2,33,34
 593 333 593 333 576 332 c 1,35,36
 643 319 643 319 687 270 c 0,37,38
 753 200 753 200 706 114 c 0,39,40
 655 20 655 20 454 12 c 2,41,-1
 336 12 l 1,42,-1
 286 15 l 2,43,44
 182 23 182 23 143.5 2.5 c 128,-1,45
 105 -18 105 -18 100.5 -60 c 128,-1,46
 96 -102 96 -102 126 -126 c 0,47,48
 171 -160 171 -160 234 -160 c 2,49,-1
 574 -160 l 2,50,51
 627 -160 627 -160 685 -144 c 0,52,53
 694 -142 694 -142 696 -145 c 128,-1,54
 698 -148 698 -148 697 -154 c 0,55,56
 694 -171 694 -171 657 -193 c 1,57,-1
 625 -206 l 2,58,59
 604 -213 604 -213 574 -213 c 2,60,-1
 186 -213 l 2,61,62
 105 -213 105 -213 53 -159 c 0,63,64
 11 -116 11 -116 14 -61 c 2,65,-1
 14 -56 l 2,66,67
 20 39 20 39 127 65 c 0,68,69
 195 83 195 83 298 62 c 0,70,71
 370 49 370 49 426 58 c 0,72,73
 603 84 603 84 629 151 c 0,74,75
 657 230 657 230 603 270 c 0,76,77
 559 306 559 306 463 308 c 0,78,79
 422 310 422 310 418 324 c 0,80,81
 412 339 412 339 439 346 c 0,82,83
 446 348 446 348 461 350 c 0,84,85
 628 368 628 368 625 447 c 0,86,87
 624 458 624 458 624 464 c 0,88,89
 620 528 620 528 508 564 c 0,90,91
 447 584 447 584 374 586 c 0,92,93
 197 591 197 591 138 528 c 0,0,1
92 358 m 0,94,95
 79 334 79 334 85 305 c 0,96,97
 87 296 87 296 96 276 c 0,98,99
 126 224 126 224 167.5 219.5 c 128,-1,100
 209 215 209 215 229 229 c 0,101,102
 236 234 236 234 248 250 c 0,103,104
 267 284 267 284 264 322 c 0,105,106
 264 340 264 340 250 368 c 0,107,108
 233 404 233 404 178 402 c 0,109,110
 112 397 112 397 92 358 c 0,94,95
EndSplineSet
EndChar

StartChar: uni0D34
Encoding: 3380 3380 50
Width: 659
GlyphClass: 2
Flags: W
LayerCount: 2
Fore
SplineSet
269 561 m 0,0,1
 190 448 190 448 248 332 c 2,2,-1
 267 302 l 2,3,4
 286 278 286 278 310 266 c 1,5,6
 190 256 190 256 123 335 c 0,7,8
 88 371 88 371 81 428.5 c 128,-1,9
 74 486 74 486 98 535 c 0,10,11
 113 567 113 567 159 611 c 0,12,13
 178 627 178 627 174 629 c 1,14,-1
 170 629 l 2,15,16
 155 627 155 627 132 611 c 0,17,18
 66 573 66 573 26 507 c 0,19,20
 0 460 0 460 0 413 c 0,21,22
 0 313 0 313 100 253 c 0,23,24
 177 207 177 207 281 207 c 0,25,26
 326 207 326 207 364 214 c 1,27,28
 380 192 380 192 375 165 c 0,29,30
 375 162 375 162 374 158 c 1,31,32
 372 157 372 157 369 142 c 0,33,34
 358 101 358 101 317 76 c 0,35,36
 290 56 290 56 260 56 c 0,37,38
 167 60 167 60 157 94 c 1,39,40
 157 97 157 97 164 107.5 c 128,-1,41
 171 118 171 118 170.5 120 c 128,-1,42
 170 122 170 122 168 124 c 0,43,44
 155 136 155 136 138 132 c 1,45,-1
 123 126 l 1,46,-1
 106 114 l 1,47,48
 95 99 95 99 100 84 c 128,-1,49
 105 69 105 69 113 56 c 1,50,51
 130 36 130 36 148 26 c 0,52,53
 223 -12 223 -12 316 6 c 128,-1,54
 409 24 409 24 437 93 c 0,55,56
 462 164 462 164 408 224 c 1,57,58
 492 251 492 251 540 313.5 c 128,-1,59
 588 376 588 376 594 442 c 0,60,61
 604 539 604 539 539 592 c 0,62,63
 490 629 490 629 422 629.5 c 128,-1,64
 354 630 354 630 309 600 c 0,65,66
 287 584 287 584 269 561 c 0,0,1
507 436 m 2,67,68
 499 352 499 352 426 303 c 0,69,70
 387 275 387 275 352 274 c 0,71,72
 317 272 317 272 306 366 c 2,73,-1
 303 406 l 2,74,75
 300 506 300 506 351 554 c 0,76,77
 380 583 380 583 425 583 c 0,78,79
 481 583 481 583 502 515 c 0,80,81
 510 487 510 487 508 453 c 2,82,-1
 507 436 l 2,67,68
EndSplineSet
EndChar

StartChar: uni0D35
Encoding: 3381 3381 51
Width: 1030
GlyphClass: 2
Flags: W
LayerCount: 2
Fore
SplineSet
400 56 m 0,0,1
 467 126 467 126 487.5 187.5 c 128,-1,2
 508 249 508 249 509 323 c 0,3,4
 510 428 510 428 450 504 c 0,5,6
 392 572 392 572 302 572 c 0,7,8
 186 572 186 572 125 472 c 0,9,10
 87 411 87 411 82 316 c 0,11,12
 82 152 82 152 166 62 c 0,13,14
 207 4 207 4 197 -1 c 0,15,16
 195 -2 195 -2 192 -2 c 1,17,-1
 172 7 l 1,18,-1
 126 40 l 2,19,20
 43 104 43 104 13 218 c 0,21,22
 0 267 0 267 0 323 c 0,23,24
 4 495 4 495 122 578 c 0,25,26
 193 628 193 628 296 629 c 0,27,28
 458 630 458 630 533 526 c 0,29,30
 590 451 590 451 589 330 c 0,31,32
 583 185 583 185 481 79 c 2,33,-1
 454 52 l 1,34,-1
 847 52 l 2,35,36
 869 52 869 52 879 70 c 0,37,38
 884 78 884 78 884 111 c 2,39,-1
 884 563 l 2,40,41
 884 593 884 593 918 604 c 0,42,43
 952 614 952 614 958 620 c 128,-1,44
 964 626 964 626 967 632 c 1,45,-1
 967 112 l 2,46,47
 967 56 967 56 955 34 c 0,48,49
 937 0 937 0 859 0 c 2,50,-1
 442 0 l 2,51,52
 383 0 383 0 376 7 c 0,53,54
 364 18 364 18 400 56 c 0,0,1
EndSplineSet
EndChar

StartChar: uni0D36
Encoding: 3382 3382 52
Width: 1064
GlyphClass: 2
Flags: W
LayerCount: 2
Fore
SplineSet
770 544 m 1,0,1
 719 574 719 574 658 574 c 0,2,3
 497 574 497 574 470 369 c 0,4,5
 465 322 465 322 465 272 c 0,6,7
 465 132 465 132 385 55 c 0,8,9
 327 0 327 0 232 0 c 128,-1,10
 137 0 137 0 68.5 82 c 128,-1,11
 0 164 0 164 0 297 c 0,12,13
 6 485 6 485 131 581 c 0,14,15
 175 616 175 616 225 629 c 0,16,17
 236 633 236 633 240 627 c 1,18,-1
 230 609 l 1,19,-1
 166 535 l 2,20,21
 85 444 85 444 85 316 c 128,-1,22
 85 188 85 188 141 114 c 0,23,24
 185 56 185 56 242 56 c 0,25,26
 356 56 356 56 379 237 c 0,27,28
 387 284 387 284 386 353 c 2,29,-1
 386 364 l 2,30,31
 386 522 386 522 513 591 c 0,32,33
 584 629 584 629 659 629 c 0,34,35
 799 629 799 629 899 526 c 0,36,37
 996 429 996 429 1002 295 c 2,38,-1
 1002 279 l 2,39,40
 1002 122 1002 122 925 49 c 0,41,42
 876 0 876 0 798 0 c 0,43,44
 691 0 691 0 638 102 c 0,45,46
 605 169 605 169 606 265 c 128,-1,47
 607 361 607 361 678 463 c 0,48,49
 723 528 723 528 770 544 c 1,0,1
808 518 m 1,50,51
 771 500 771 500 737 442 c 0,52,53
 683 353 683 353 685 256 c 2,54,-1
 685 252 l 2,55,56
 689 93 689 93 772 60 c 0,57,58
 790 54 790 54 811 54 c 0,59,60
 872 54 872 54 902 146 c 0,61,62
 923 205 923 205 919 265 c 0,63,64
 919 273 919 273 918 281 c 0,65,66
 903 434 903 434 808 518 c 1,50,51
EndSplineSet
EndChar

StartChar: uni0D37
Encoding: 3383 3383 53
Width: 1238
GlyphClass: 2
Flags: W
LayerCount: 2
Fore
SplineSet
473 214 m 0,0,1
 475 126 475 126 401 52 c 1,2,-1
 729 52 l 1,3,-1
 729 222 l 1,4,-1
 698 226 l 2,5,6
 643 236 643 236 595 264 c 0,7,8
 512 316 512 316 497 409 c 0,9,10
 486 480 486 480 520 539 c 0,11,12
 554 604 554 604 634 625 c 0,13,14
 651 629 651 629 670 629 c 0,15,16
 772 629 772 629 804 536 c 0,17,18
 815 501 815 501 815 460 c 2,19,-1
 814 284 l 1,20,21
 896 298 896 298 943 336 c 0,22,23
 1017 393 1017 393 1065 488 c 0,24,25
 1087 538 1087 538 1092 563 c 1,26,27
 1092 593 1092 593 1125 604 c 0,28,29
 1159 614 1159 614 1166 621 c 1,30,31
 1172 625 1172 625 1175 632 c 1,32,-1
 1175 112 l 2,33,34
 1175 56 1175 56 1162 34 c 0,35,36
 1146 0 1146 0 1067 0 c 2,37,-1
 389 0 l 2,38,39
 330 0 330 0 323 7 c 0,40,41
 311 19 311 19 354.5 63.5 c 128,-1,42
 398 108 398 108 403 152 c 2,43,-1
 404 200 l 2,44,45
 402 257 402 257 354.5 303.5 c 128,-1,46
 307 350 307 350 249 352 c 0,47,48
 175 350 175 350 124 304 c 2,49,-1
 102 282 l 1,50,51
 72 241 72 241 72 193 c 0,52,53
 70 159 70 159 82 127 c 0,54,55
 91 92 91 92 110 61 c 0,56,57
 146 6 146 6 138 0 c 1,58,-1
 134 0 l 1,59,-1
 114 9 l 1,60,-1
 73 44 l 2,61,62
 1 120 1 120 0 198 c 0,63,64
 2 311 2 311 103 373 c 0,65,66
 169 409 169 409 238 409 c 0,67,68
 360 409 360 409 425 341 c 0,69,70
 473 290 473 290 473 214 c 0,0,1
814 52 m 1,71,-1
 1054 52 l 2,72,73
 1076 52 1076 52 1087 70 c 0,74,75
 1092 78 1092 78 1092 111 c 2,76,-1
 1092 446 l 1,77,78
 1066 374 1066 374 1004 314 c 2,79,-1
 970 287 l 2,80,81
 956 275 956 275 935 264 c 0,82,83
 876 234 876 234 814 225 c 1,84,-1
 814 52 l 1,71,-1
729 284 m 1,85,-1
 729 457 l 2,86,87
 729 512 729 512 696 551 c 0,88,89
 672 576 672 576 637 568 c 0,90,91
 580 548 580 548 578 470 c 0,92,93
 576 376 576 376 643 323 c 0,94,95
 684 294 684 294 729 284 c 1,85,-1
EndSplineSet
EndChar

StartChar: uni0D38
Encoding: 3384 3384 54
Width: 1328
GlyphClass: 2
Flags: W
LayerCount: 2
Fore
SplineSet
652 631 m 0,0,1
 858 631 858 631 856 349 c 0,2,3
 853 58 853 58 1007 58 c 0,4,5
 1090 58 1090 58 1138 151 c 0,6,7
 1175 218 1175 218 1175 306 c 0,8,9
 1175 438 1175 438 1095 525 c 1,10,11
 1091 531 1091 531 1047.5 576.5 c 128,-1,12
 1004 622 1004 622 1011 627 c 1,13,14
 1012 630 1012 630 1026 626 c 0,15,16
 1139 595 1139 595 1205 496 c 0,17,18
 1262 412 1262 412 1265 297 c 0,19,20
 1265 146 1265 146 1167 61 c 2,21,-1
 1135 38 l 2,22,23
 1080 3 1080 3 1011 3 c 0,24,25
 882 3 882 3 815 109 c 0,26,27
 772 181 772 181 772 272 c 0,28,29
 772 432 772 432 766 472 c 0,30,31
 754 550 754 550 695 567 c 2,32,-1
 659 573 l 2,33,34
 653 574 653 574 640 574 c 0,35,36
 578 574 578 574 537 524 c 0,37,38
 505 481 505 481 502 418 c 2,39,-1
 502 60 l 2,40,41
 502 13 502 13 471.5 3.5 c 128,-1,42
 441 -6 441 -6 424 20 c 1,43,44
 415 40 415 40 415 57 c 2,45,-1
 415 432 l 2,46,47
 406 530 406 530 337 561 c 2,48,-1
 297 574 l 2,49,50
 214 598 214 598 131 508 c 0,51,52
 70 435 70 435 76 304 c 0,53,54
 76 276 76 276 87 228 c 0,55,56
 106 159 106 159 149 98 c 0,57,58
 157 88 157 88 175 68 c 0,59,60
 234 2 234 2 217 2 c 1,61,-1
 205 5 l 2,62,63
 190 11 190 11 159 32 c 0,64,65
 93 77 93 77 29 198 c 1,66,67
 -17 334 -17 334 9 432 c 0,68,69
 21 478 21 478 55 526 c 0,70,71
 124 610 124 610 215 626 c 0,72,73
 231 629 231 629 269 631 c 0,74,75
 383 630 383 630 449 547 c 0,76,77
 457 537 457 537 464 524 c 1,78,79
 526 631 526 631 652 631 c 0,0,1
EndSplineSet
EndChar

StartChar: uni0D39
Encoding: 3385 3385 55
Width: 1299
GlyphClass: 2
Flags: W
LayerCount: 2
Fore
SplineSet
805 62 m 0,0,1
 719 150 719 150 717 316 c 0,2,3
 722 455 722 455 807 525 c 0,4,5
 863 572 863 572 941 572 c 0,6,7
 1054 572 1054 572 1113 471 c 0,8,9
 1152 406 1152 406 1152 330 c 0,10,11
 1152 182 1152 182 1059 77 c 2,12,-1
 1041 57 l 2,13,14
 992 5 992 5 1001 -2 c 0,15,16
 1003 -3 1003 -3 1007 -3 c 0,17,18
 1033 -1 1033 -1 1088 46 c 2,19,-1
 1107 62 l 1,20,-1
 1160 117 l 2,21,22
 1234 200 1234 200 1237 321 c 0,23,24
 1235 490 1235 490 1119 572 c 0,25,26
 1042 630 1042 630 922.5 628.5 c 128,-1,27
 803 627 803 627 718.5 539 c 128,-1,28
 634 451 634 451 632 318 c 0,29,30
 632 160 632 160 766 53 c 1,31,32
 643 53 643 53 401 52 c 1,33,34
 472 127 472 127 473 203 c 2,35,-1
 473 214 l 2,36,37
 473 338 473 338 356 387 c 0,38,39
 301 409 301 409 238 409 c 0,40,41
 144 409 144 409 71 350 c 0,42,43
 2 291 2 291 0 198 c 0,44,45
 1 120 1 120 73 44 c 1,46,47
 136 -4 136 -4 142 3 c 1,48,49
 144 12 144 12 110 61 c 0,50,51
 71 122 71 122 72 193 c 0,52,53
 72 283 72 283 159 330 c 0,54,55
 201 350 201 350 249 352 c 0,56,57
 318 354 318 354 366 293 c 0,58,59
 368 291 368 291 369 289 c 0,60,61
 404 244 404 244 404 193 c 128,-1,62
 404 142 404 142 392 117.5 c 128,-1,63
 380 93 380 93 348 56 c 0,64,65
 300 11 300 11 332 2 c 0,66,67
 346 0 346 0 389 0 c 2,68,-1
 773 0 l 2,69,70
 831 0 831 0 831 24 c 0,71,72
 829 39 829 39 805 62 c 0,0,1
EndSplineSet
EndChar

StartChar: uni0D3E
Encoding: 3390 3390 56
Width: 542
GlyphClass: 2
Flags: W
LayerCount: 2
Fore
SplineSet
200 52 m 2,0,-1
 210 52 l 2,1,2
 383 62 383 62 392 305 c 0,3,4
 398 427 398 427 344 508 c 0,5,6
 300 571 300 571 227 577 c 0,7,8
 122 582 122 582 72 511 c 0,9,10
 39 467 39 467 30 391 c 0,11,12
 27 366 27 366 18 369 c 1,13,14
 4 377 4 377 0 413 c 2,15,-1
 0 420 l 2,16,17
 -3 532 -3 532 83 591 c 0,18,19
 141 629 141 629 220 629 c 0,20,21
 467 629 467 629 478 324 c 2,22,-1
 478 307 l 2,23,24
 474 124 474 124 363 44 c 0,25,26
 301 0 301 0 207.5 0 c 128,-1,27
 114 0 114 0 50 75 c 0,28,29
 1 137 1 137 1 212 c 0,30,31
 1 229 1 229 6 229 c 0,32,33
 14 229 14 229 41 166 c 0,34,35
 88 50 88 50 200 52 c 2,0,-1
EndSplineSet
EndChar

StartChar: uni0D3F
Encoding: 3391 3391 57
Width: 336
GlyphClass: 2
Flags: W
LayerCount: 2
Fore
SplineSet
160 830 m 0,0,1
 196 791 196 791 196 660 c 2,2,-1
 196 108 l 2,3,4
 196 69 196 69 231 69 c 1,5,-1
 247 72 l 1,6,-1
 276 108 l 2,7,8
 293 124 293 124 270 63 c 0,9,10
 249 0 249 0 188 0 c 0,11,12
 115 0 115 0 115 93 c 2,13,-1
 115 651 l 2,14,15
 115 745 115 745 100 772 c 0,16,17
 74 831 74 831 17 837 c 2,18,-1
 0 837 l 2,19,20
 -58 832 -58 832 -84 787 c 128,-1,21
 -110 742 -110 742 -79 708 c 1,22,23
 -170 708 -170 708 -173 764 c 0,24,25
 -178 834 -178 834 -101 873 c 0,26,27
 -56 898 -56 898 0 897 c 0,28,29
 79 894 79 894 121 865 c 0,30,31
 136 854 136 854 160 830 c 0,0,1
EndSplineSet
EndChar

StartChar: uni0D40
Encoding: 3392 3392 58
Width: 311
GlyphClass: 2
Flags: W
LayerCount: 2
Fore
SplineSet
-32 952 m 0,0,1
 165 952 165 952 165 734 c 2,2,-1
 165 108 l 2,3,4
 165 69 165 69 201 69 c 1,5,-1
 215 72 l 1,6,-1
 246 108 l 2,7,8
 255 118 255 118 250 97 c 0,9,10
 247 85 247 85 239 63 c 0,11,12
 217 0 217 0 158 0 c 0,13,14
 83 0 83 0 83 93 c 2,15,-1
 83 651 l 2,16,17
 83 799 83 799 62 835 c 0,18,19
 46 868 46 868 -3 886 c 128,-1,20
 -52 904 -52 904 -102 877 c 1,21,22
 -51 885 -51 885 -14 831 c 0,23,24
 14 791 14 791 9 745 c 0,25,26
 9 739 9 739 8 734 c 0,27,28
 -2 676 -2 676 -56 650 c 0,29,30
 -90 636 -90 636 -124 640 c 0,31,32
 -131 640 -131 640 -138 642 c 0,33,34
 -206 657 -206 657 -234 723 c 0,35,36
 -254 766 -254 766 -244 814 c 0,37,38
 -221 900 -221 900 -126 936 c 0,39,40
 -81 952 -81 952 -32 952 c 0,0,1
-128 845 m 0,41,42
 -168 835 -168 835 -173 781 c 0,43,44
 -176 751 -176 751 -167 730 c 2,45,-1
 -155 710 l 2,46,47
 -154 708 -154 708 -148 702 c 0,48,49
 -124 678 -124 678 -97 694 c 0,50,51
 -86 700 -86 700 -74 718 c 0,52,53
 -38 774 -38 774 -83 828 c 0,54,55
 -101 850 -101 850 -123 846 c 0,56,57
 -125 846 -125 846 -128 845 c 0,41,42
EndSplineSet
EndChar

StartChar: uni0D41
Encoding: 3393 3393 59
Width: 404
GlyphClass: 2
Flags: W
LayerCount: 2
Fore
SplineSet
214 -38 m 0,0,1
 193 -17 193 -17 161 -17 c 128,-1,2
 129 -17 129 -17 99 -57 c 2,3,-1
 88 -77 l 2,4,5
 80 -98 80 -98 80 -118 c 0,6,7
 80 -191 80 -191 130 -215 c 0,8,9
 149 -225 149 -225 180.5 -225 c 128,-1,10
 212 -225 212 -225 233 -181 c 0,11,12
 248 -158 248 -158 248 -123 c 0,13,14
 248 -70 248 -70 214 -38 c 0,0,1
54 502 m 1,15,16
 38 494 38 494 36 517 c 0,17,18
 34 552 34 552 70 588 c 0,19,20
 111 632 111 632 182 632 c 0,21,22
 273 632 273 632 315 579 c 2,23,-1
 331 556 l 1,24,25
 342 531 342 531 340 503 c 2,26,-1
 340 498 l 2,27,28
 336 456 336 456 302 414.5 c 128,-1,29
 268 373 268 373 258 349 c 0,30,31
 234 289 234 289 218 188.5 c 128,-1,32
 202 88 202 88 178 39 c 1,33,34
 246 36 246 36 291 -11 c 1,35,-1
 306 -33 l 2,36,37
 330 -66 330 -66 330 -111 c 0,38,39
 330 -194 330 -194 266 -246 c 0,40,41
 234 -270 234 -270 197 -278 c 0,42,43
 124 -294 124 -294 58 -239 c 0,44,45
 0 -181 0 -181 -3 -101 c 0,46,47
 -3 -40 -3 -40 60 5 c 0,48,49
 92 28 92 28 132 36 c 1,50,51
 156 110 156 110 164.5 208.5 c 128,-1,52
 173 307 173 307 184 339 c 0,53,54
 188 348 188 348 227 410 c 0,55,56
 267 470 267 470 266 515 c 0,57,58
 263 558 263 558 222 577 c 0,59,60
 206 586 206 586 193.5 585 c 128,-1,61
 181 584 181 584 178 584 c 0,62,63
 119 576 119 576 76 523 c 0,64,65
 61 507 61 507 54 502 c 1,15,16
EndSplineSet
EndChar

StartChar: uni0D42
Encoding: 3394 3394 60
Width: 456
GlyphClass: 2
Flags: W
LayerCount: 2
Fore
SplineSet
214 -38 m 0,0,1
 193 -17 193 -17 161 -17 c 128,-1,2
 129 -17 129 -17 99 -57 c 2,3,-1
 88 -77 l 2,4,5
 80 -98 80 -98 80 -118 c 0,6,7
 80 -191 80 -191 130 -215 c 0,8,9
 149 -225 149 -225 180.5 -225 c 128,-1,10
 212 -225 212 -225 233 -181 c 0,11,12
 248 -158 248 -158 248 -123 c 0,13,14
 248 -70 248 -70 214 -38 c 0,0,1
54 502 m 1,15,16
 37 494 37 494 36 517 c 0,17,18
 34 550 34 550 72.5 591 c 128,-1,19
 111 632 111 632 182 632 c 0,20,21
 278 632 278 632 315 579 c 2,22,-1
 331 556 l 1,23,24
 340 531 340 531 340 503 c 2,25,-1
 340 498 l 2,26,27
 340 461 340 461 304 417 c 128,-1,28
 268 373 268 373 258 349 c 0,29,30
 234 289 234 289 218 188.5 c 128,-1,31
 202 88 202 88 178 39 c 1,32,33
 228 36 228 36 267 10 c 1,34,-1
 283 3 l 2,35,36
 346 -22 346 -22 372 -69 c 0,37,38
 424 -160 424 -160 404 -235 c 0,39,40
 396 -266 396 -266 377 -297 c 0,41,42
 343 -351 343 -351 291 -378 c 0,43,44
 222 -412 222 -412 154 -389 c 128,-1,45
 86 -366 86 -366 62 -323 c 1,46,47
 156 -356 156 -356 206 -347 c 0,48,49
 233 -342 233 -342 256 -327 c 0,50,51
 333 -276 333 -276 333 -176 c 0,52,53
 333 -163 333 -163 328 -142 c 1,54,55
 317 -208 317 -208 266 -246 c 0,56,57
 234 -270 234 -270 197 -278 c 0,58,59
 120 -295 120 -295 59.5 -240.5 c 128,-1,60
 -1 -186 -1 -186 -3 -101 c 0,61,62
 -4 -42 -4 -42 60 5 c 0,63,64
 92 28 92 28 132 36 c 1,65,66
 156 110 156 110 165 213 c 128,-1,67
 174 316 174 316 183 337 c 128,-1,68
 192 358 192 358 230 415 c 0,69,70
 306 530 306 530 222 577 c 0,71,72
 206 586 206 586 193.5 585 c 128,-1,73
 181 584 181 584 178 584 c 0,74,75
 126 577 126 577 76 523 c 0,76,77
 61 507 61 507 54 502 c 1,15,16
EndSplineSet
EndChar

StartChar: uni0D43
Encoding: 3395 3395 61
Width: 542
GlyphClass: 2
Flags: W
LayerCount: 2
Fore
SplineSet
193 -276 m 0,0,1
 230 -276 230 -276 239 -199 c 2,2,-1
 239 -160 l 1,3,4
 230 -97 230 -97 196 -61 c 0,5,6
 169 -35 169 -35 139 -39 c 0,7,8
 135 -39 135 -39 132 -40 c 0,9,10
 84 -51 84 -51 84 -151 c 0,11,12
 90 -222 90 -222 134 -257 c 0,13,14
 159 -276 159 -276 193 -276 c 0,0,1
210 629 m 1,15,16
 158 514 158 514 199 357 c 0,17,18
 232 221 232 221 312 146 c 0,19,20
 414 58 414 58 439 -15 c 0,21,22
 457 -62 457 -62 454 -126 c 0,23,24
 454 -230 454 -230 355 -295 c 0,25,26
 278 -348 278 -348 182 -341 c 0,27,28
 174 -341 174 -341 166 -340 c 0,29,30
 75 -330 75 -330 29 -255 c 0,31,32
 -1 -209 -1 -209 0 -151 c 0,33,34
 3 -56 3 -56 74 -9 c 0,35,36
 112 14 112 14 166 14 c 0,37,38
 246 14 246 14 289 -55 c 0,39,40
 328 -122 328 -122 304 -200 c 0,41,42
 289 -244 289 -244 254 -272 c 1,43,44
 368 -228 368 -228 366.5 -118.5 c 128,-1,45
 365 -9 365 -9 262 93 c 2,46,-1
 246 109 l 2,47,48
 173 176 173 176 137 298 c 0,49,50
 105 414 105 414 124 545 c 0,51,52
 129 575 129 575 165 597.5 c 128,-1,53
 201 620 201 620 210 629 c 1,15,16
EndSplineSet
EndChar

StartChar: uni0D46
Encoding: 3398 3398 62
Width: 724
GlyphClass: 2
Flags: W
LayerCount: 2
Fore
SplineSet
72 281 m 1,0,1
 98 353 98 353 179 371 c 0,2,3
 203 377 203 377 230 376 c 0,4,5
 337 372 337 372 384 285 c 0,6,7
 408 237 408 237 406 177 c 2,8,-1
 406 172 l 2,9,10
 401 71 401 71 323 28 c 0,11,12
 280 0 280 0 220 0 c 0,13,14
 86 0 86 0 29 116 c 0,15,16
 -2 181 -2 181 0 260 c 2,17,-1
 0 266 l 2,18,19
 6 432 6 432 103 535 c 0,20,21
 197 629 197 629 340 629 c 128,-1,22
 483 629 483 629 575 538 c 2,23,-1
 603 507 l 2,24,25
 656 436 656 436 662 346 c 0,26,27
 671 213 671 213 575 90 c 0,28,29
 545 49 545 49 511 26 c 0,30,31
 471 -6 471 -6 463 2 c 1,32,33
 463 7 463 7 479 26 c 0,34,35
 565 119 565 119 577 227 c 0,36,37
 582 278 582 278 577 327 c 0,38,39
 577 420 577 420 518 494 c 0,40,41
 449 578 449 578 331 578 c 128,-1,42
 213 578 213 578 136 465 c 0,43,44
 80 382 80 382 72 281 c 1,0,1
116 283 m 0,45,46
 94 255 94 255 90 214 c 0,47,48
 84 147 84 147 128.5 96.5 c 128,-1,49
 173 46 173 46 229 49 c 2,50,-1
 234 49 l 2,51,52
 297 53 297 53 318 127 c 0,53,54
 327 158 327 158 326 178 c 128,-1,55
 325 198 325 198 325 203 c 0,56,57
 319 282 319 282 264 311 c 0,58,59
 246 322 246 322 223 324 c 0,60,61
 161 332 161 332 116 283 c 0,45,46
EndSplineSet
EndChar

StartChar: uni0D47
Encoding: 3399 3399 63
Width: 617
GlyphClass: 2
Flags: W
LayerCount: 2
Fore
SplineSet
319 577 m 1,0,1
 188 577 188 577 126 467 c 0,2,3
 90 405 90 405 91 314 c 0,4,5
 92 187 92 187 174 113 c 0,6,7
 240 53 240 53 334 54 c 1,8,9
 283 65 283 65 269 122 c 0,10,11
 264 138 264 138 265 160 c 2,12,-1
 265 166 l 2,13,14
 270 232 270 232 334 262 c 0,15,16
 372 279 372 279 408 276 c 2,17,-1
 413 276 l 2,18,19
 486 272 486 272 527 220 c 0,20,21
 553 187 553 187 550 146 c 2,22,-1
 550 140 l 2,23,24
 537 40 537 40 408 9 c 0,25,26
 366 0 366 0 317 0 c 0,27,28
 179 0 179 0 90.5 91 c 128,-1,29
 2 182 2 182 0.5 310 c 128,-1,30
 -1 438 -1 438 91.5 533.5 c 128,-1,31
 184 629 184 629 317 629 c 0,32,33
 473 629 473 629 531 548 c 0,34,35
 573 488 573 488 543 428 c 0,36,37
 526 388 526 388 482 366 c 0,38,39
 462 355 462 355 435 352 c 0,40,41
 327 338 327 338 279 407 c 0,42,43
 245 457 245 457 265 517 c 0,44,45
 278 558 278 558 319 577 c 1,0,1
337 86 m 0,46,47
 353 59 353 59 381 58 c 0,48,49
 425 56 425 56 457 101 c 0,50,51
 469 119 469 119 470 142 c 0,52,53
 475 178 475 178 447 210 c 0,54,55
 430 227 430 227 405 229 c 0,56,57
 365 232 365 232 342 195 c 0,58,59
 317 151 317 151 328 109 c 0,60,61
 331 96 331 96 337 86 c 0,46,47
355 570 m 0,62,63
 322 567 322 567 323 499 c 0,64,65
 323 477 323 477 327 462 c 0,66,67
 341 407 341 407 387 397 c 0,68,69
 397 394 397 394 407 394 c 0,70,71
 457 394 457 394 469 441 c 1,72,73
 474 453 474 453 473 469 c 2,74,-1
 473 474 l 2,75,76
 470 519 470 519 415 552 c 0,77,78
 385 570 385 570 355 570 c 0,62,63
EndSplineSet
EndChar

StartChar: uni0D4A
Encoding: 3402 3402 65
Width: 1250
GlyphClass: 2
Flags: W
LayerCount: 2
Fore
SplineSet
30 718 m 1,0,-1
 1244 718 l 1,1,-1
 1244 -56 l 1,2,-1
 30 -56 l 1,3,-1
 30 718 l 1,0,-1
0 764 m 1,4,-1
 0 -90 l 1,5,-1
 1274 -90 l 1,6,-1
 1274 764 l 1,7,-1
 0 764 l 1,4,-1
111 274 m 1,8,9
 137 346 137 346 218 364 c 0,10,11
 242 370 242 370 269 369 c 0,12,13
 376 365 376 365 423 278 c 0,14,15
 447 230 447 230 445 170 c 2,16,-1
 445 165 l 2,17,18
 440 64 440 64 362 21 c 0,19,20
 319 -7 319 -7 259 -7 c 0,21,22
 125 -7 125 -7 68 109 c 0,23,24
 37 174 37 174 39 253 c 2,25,-1
 39 259 l 2,26,27
 45 425 45 425 142 528 c 0,28,29
 236 622 236 622 379 622 c 128,-1,30
 522 622 522 622 614 531 c 2,31,-1
 642 500 l 2,32,33
 695 429 695 429 701 339 c 0,34,35
 710 206 710 206 614 83 c 0,36,37
 584 42 584 42 550 19 c 0,38,39
 510 -13 510 -13 502 -5 c 1,40,41
 502 0 502 0 518 19 c 0,42,43
 604 112 604 112 616 220 c 0,44,45
 621 271 621 271 616 320 c 0,46,47
 616 413 616 413 557 487 c 0,48,49
 488 571 488 571 370 571 c 128,-1,50
 252 571 252 571 175 458 c 0,51,52
 119 375 119 375 111 274 c 1,8,9
155 276 m 0,53,54
 133 248 133 248 129 207 c 0,55,56
 123 140 123 140 167.5 89.5 c 128,-1,57
 212 39 212 39 268 42 c 2,58,-1
 273 42 l 2,59,60
 336 46 336 46 357 120 c 0,61,62
 366 151 366 151 365 171 c 128,-1,63
 364 191 364 191 364 196 c 0,64,65
 358 275 358 275 303 304 c 0,66,67
 285 315 285 315 262 317 c 0,68,69
 200 325 200 325 155 276 c 0,53,54
946 56 m 2,70,-1
 956 56 l 2,71,72
 1129 66 1129 66 1138 308 c 0,73,74
 1144 430 1144 430 1090 512 c 0,75,76
 1046 574 1046 574 973 580 c 0,77,78
 868 586 868 586 818 514 c 0,79,80
 785 470 785 470 776 394 c 0,81,82
 773 370 773 370 764 372 c 1,83,84
 750 380 750 380 746 416 c 2,85,-1
 746 424 l 2,86,87
 743 536 743 536 829 594 c 0,88,89
 887 632 887 632 966 632 c 0,90,91
 1213 632 1213 632 1224 328 c 2,92,-1
 1224 310 l 2,93,94
 1220 128 1220 128 1109 48 c 0,95,96
 1047 4 1047 4 953.5 4 c 128,-1,97
 860 4 860 4 796 78 c 0,98,99
 747 140 747 140 747 216 c 0,100,101
 747 232 747 232 752 232 c 0,102,103
 760 232 760 232 787 170 c 0,104,105
 834 54 834 54 946 56 c 2,70,-1
EndSplineSet
EndChar

StartChar: uni0D4B
Encoding: 3403 3403 66
Width: 1250
GlyphClass: 2
Flags: W
LayerCount: 2
Fore
SplineSet
29 718 m 1,0,-1
 1244 718 l 1,1,-1
 1244 -56 l 1,2,-1
 29 -56 l 1,3,-1
 29 718 l 1,0,-1
0 764 m 1,4,-1
 0 -90 l 1,5,-1
 1274 -90 l 1,6,-1
 1274 764 l 1,7,-1
 0 764 l 1,4,-1
375 588 m 1,8,9
 244 588 244 588 182 478 c 0,10,11
 146 416 146 416 147 324 c 0,12,13
 148 198 148 198 230 124 c 0,14,15
 296 64 296 64 390 64 c 1,16,17
 339 76 339 76 325 132 c 0,18,19
 320 148 320 148 321 170 c 2,20,-1
 321 176 l 2,21,22
 326 242 326 242 390 272 c 0,23,24
 428 290 428 290 464 286 c 2,25,-1
 469 286 l 2,26,27
 542 282 542 282 583 230 c 0,28,29
 609 198 609 198 606 156 c 2,30,-1
 606 150 l 2,31,32
 593 50 593 50 464 20 c 0,33,34
 422 10 422 10 373 10 c 0,35,36
 235 10 235 10 146.5 101 c 128,-1,37
 58 192 58 192 56.5 320 c 128,-1,38
 55 448 55 448 147.5 544 c 128,-1,39
 240 640 240 640 373 640 c 0,40,41
 529 640 529 640 587 558 c 0,42,43
 629 498 629 498 599 438 c 0,44,45
 582 398 582 398 538 376 c 0,46,47
 518 366 518 366 491 362 c 0,48,49
 383 348 383 348 335 418 c 0,50,51
 301 468 301 468 321 528 c 0,52,53
 334 568 334 568 375 588 c 1,8,9
393 96 m 0,54,55
 409 70 409 70 437 68 c 0,56,57
 481 66 481 66 513 112 c 0,58,59
 525 130 525 130 526 152 c 0,60,61
 531 188 531 188 503 220 c 0,62,63
 486 238 486 238 461 240 c 0,64,65
 421 242 421 242 398 206 c 0,66,67
 373 162 373 162 384 120 c 0,68,69
 387 106 387 106 393 96 c 0,54,55
411 580 m 0,70,71
 378 578 378 578 379 510 c 0,72,73
 379 488 379 488 383 472 c 0,74,75
 397 418 397 418 443 408 c 1,76,77
 453 404 453 404 463 404 c 0,78,79
 513 404 513 404 525 452 c 1,80,81
 530 464 530 464 529 480 c 2,82,-1
 529 484 l 2,83,84
 526 530 526 530 471 562 c 0,85,86
 441 580 441 580 411 580 c 0,70,71
890 70 m 2,87,-1
 900 70 l 2,88,89
 1073 80 1073 80 1082 322 c 0,90,91
 1088 444 1088 444 1034 526 c 0,92,93
 990 588 990 588 917 594 c 0,94,95
 812 600 812 600 762 528 c 0,96,97
 729 484 729 484 720 408 c 0,98,99
 717 384 717 384 708 386 c 1,100,101
 694 394 694 394 690 430 c 2,102,-1
 690 438 l 2,103,104
 687 550 687 550 773 608 c 0,105,106
 831 646 831 646 910 646 c 0,107,108
 1157 646 1157 646 1168 342 c 2,109,-1
 1168 324 l 2,110,111
 1164 142 1164 142 1053 62 c 0,112,113
 991 18 991 18 897.5 18 c 128,-1,114
 804 18 804 18 740 92 c 0,115,116
 691 154 691 154 691 230 c 0,117,118
 691 246 691 246 696 246 c 0,119,120
 704 246 704 246 731 184 c 0,121,122
 778 68 778 68 890 70 c 2,87,-1
EndSplineSet
EndChar

StartChar: uni0D4C
Encoding: 3404 3404 67
Width: 902
GlyphClass: 2
Flags: W
LayerCount: 2
Fore
SplineSet
87 589 m 0,0,1
 150 629 150 629 234 629 c 128,-1,2
 318 629 318 629 366 560 c 0,3,4
 375 548 375 548 387 520 c 1,5,6
 400 571 400 571 472 605 c 0,7,8
 521 630 521 630 573 629 c 0,9,10
 728 626 728 626 799 507 c 0,11,12
 861 400 861 400 831 270 c 128,-1,13
 801 140 801 140 697 59 c 0,14,15
 626 10 626 10 544 0 c 0,16,17
 418 -14 418 -14 335 49 c 0,18,19
 279 94 279 94 263 160 c 0,20,21
 258 194 258 194 266 194 c 1,22,23
 274 192 274 192 315 135 c 2,24,-1
 325 120 l 2,25,26
 392 43 392 43 508 48 c 1,27,28
 513 49 513 49 518 49 c 2,29,-1
 546 52 l 2,30,31
 677 68 677 68 734 186 c 0,32,33
 763 251 763 251 760 331 c 2,34,-1
 760 340 l 2,35,36
 760 458 760 458 694 525 c 0,37,38
 647 574 647 574 577 576 c 0,39,40
 473 579 473 579 438 489 c 0,41,42
 415 434 415 434 415 331 c 2,43,-1
 415 326 l 2,44,45
 418 301 418 301 402 288 c 0,46,47
 393 279 393 279 380 279 c 0,48,49
 348 279 348 279 349 322 c 0,50,51
 350 465 350 465 318 522 c 0,52,53
 302 552 302 552 275.5 565 c 128,-1,54
 249 578 249 578 223 577 c 0,55,56
 142 577 142 577 99 508 c 0,57,58
 57 438 57 438 86 359 c 2,59,-1
 99 332 l 2,60,61
 102 326 102 326 118 310 c 0,62,63
 131 300 131 300 125 288 c 1,64,65
 113 279 113 279 98 283 c 1,66,-1
 82 290 l 2,67,68
 69 296 69 296 59 306 c 0,69,70
 -5 363 -5 363 0 445 c 0,71,72
 1 449 1 449 1 453 c 0,73,74
 10 539 10 539 87 589 c 0,0,1
EndSplineSet
EndChar

StartChar: uni0D4D
Encoding: 3405 3405 68
Width: 73
GlyphClass: 2
Flags: W
LayerCount: 2
Fore
SplineSet
-335 838 m 0,0,1
 -340 873 -340 873 -324 902 c 0,2,3
 -323 905 -323 905 -320.5 907.5 c 128,-1,4
 -318 910 -318 910 -318 907 c 2,5,-1
 -317 877 l 1,6,-1
 -317 876 l 1,7,8
 -311 846 -311 846 -299 828 c 0,9,10
 -239 745 -239 745 -134 745 c 0,11,12
 -54 745 -54 745 0 805 c 0,13,14
 25 835 25 835 37 867 c 2,15,16
 42 876 42 876 47 908 c 1,17,18
 59 887 59 887 59 847.5 c 128,-1,19
 59 808 59 808 34 771 c 0,20,21
 3 731 3 731 -30 715 c 0,22,23
 -36 712 -36 712 -71 700 c 0,24,25
 -152 670 -152 670 -252 719 c 0,26,27
 -323 760 -323 760 -335 838 c 0,0,1
EndSplineSet
EndChar

StartChar: uni0D57
Encoding: 3415 3415 69
Width: 902
GlyphClass: 2
Flags: W
LayerCount: 2
Fore
SplineSet
87 589 m 0,0,1
 150 629 150 629 234 629 c 128,-1,2
 318 629 318 629 366 560 c 0,3,4
 375 548 375 548 387 520 c 1,5,6
 400 571 400 571 472 605 c 0,7,8
 521 630 521 630 573 629 c 0,9,10
 728 626 728 626 799 507 c 0,11,12
 861 400 861 400 831 270 c 128,-1,13
 801 140 801 140 697 59 c 0,14,15
 626 10 626 10 544 0 c 0,16,17
 418 -14 418 -14 335 49 c 0,18,19
 279 94 279 94 263 160 c 0,20,21
 258 194 258 194 266 194 c 1,22,23
 274 192 274 192 315 135 c 2,24,-1
 325 120 l 2,25,26
 392 43 392 43 508 48 c 1,27,28
 513 49 513 49 518 49 c 2,29,-1
 546 52 l 2,30,31
 677 68 677 68 734 186 c 0,32,33
 763 251 763 251 760 331 c 2,34,-1
 760 340 l 2,35,36
 760 458 760 458 694 525 c 0,37,38
 647 574 647 574 577 576 c 0,39,40
 473 579 473 579 438 489 c 0,41,42
 415 434 415 434 415 331 c 2,43,-1
 415 326 l 2,44,45
 418 301 418 301 402 288 c 0,46,47
 393 279 393 279 380 279 c 0,48,49
 348 279 348 279 349 322 c 0,50,51
 350 465 350 465 318 522 c 0,52,53
 302 552 302 552 275.5 565 c 128,-1,54
 249 578 249 578 223 577 c 0,55,56
 142 577 142 577 99 508 c 0,57,58
 57 438 57 438 86 359 c 2,59,-1
 99 332 l 2,60,61
 102 326 102 326 118 310 c 0,62,63
 131 300 131 300 125 288 c 1,64,65
 113 279 113 279 98 283 c 1,66,-1
 82 290 l 2,67,68
 69 296 69 296 59 306 c 0,69,70
 -5 363 -5 363 0 445 c 0,71,72
 1 449 1 449 1 453 c 0,73,74
 10 539 10 539 87 589 c 0,0,1
EndSplineSet
EndChar

StartChar: uni0D60
Encoding: 3424 3424 70
Width: 918
GlyphClass: 2
Flags: W
LayerCount: 2
Fore
SplineSet
444 -59.5 m 128,-1,1
 444 -31 444 -31 462 -11.5 c 128,-1,2
 480 8 480 8 505.5 8 c 128,-1,3
 531 8 531 8 549.5 -11.5 c 128,-1,4
 568 -31 568 -31 568 -59.5 c 128,-1,5
 568 -88 568 -88 549.5 -108 c 128,-1,6
 531 -128 531 -128 505.5 -128 c 128,-1,7
 480 -128 480 -128 462 -108 c 128,-1,0
 444 -88 444 -88 444 -59.5 c 128,-1,1
234 -59.5 m 128,-1,9
 234 -31 234 -31 252 -11.5 c 128,-1,10
 270 8 270 8 295.5 8 c 128,-1,11
 321 8 321 8 339.5 -11.5 c 128,-1,12
 358 -31 358 -31 358 -59.5 c 128,-1,13
 358 -88 358 -88 339.5 -108 c 128,-1,14
 321 -128 321 -128 295.5 -128 c 128,-1,15
 270 -128 270 -128 252 -108 c 128,-1,8
 234 -88 234 -88 234 -59.5 c 128,-1,9
415 -246 m 2,16,17
 15 -244 15 -244 15 -46 c 0,18,19
 15 84 15 84 216 113 c 1,20,21
 136 142 136 142 82 198 c 0,22,23
 0 277 0 277 0 391 c 128,-1,24
 0 505 0 505 69 571 c 0,25,26
 120 621 120 621 184 625 c 0,27,28
 275 631 275 631 333 564 c 0,29,30
 370 520 370 520 376 462 c 0,31,32
 384 376 384 376 326 316 c 0,33,34
 285 271 285 271 232 268 c 0,35,36
 160 262 160 262 110 315 c 0,37,38
 89 342 89 342 72 380 c 1,39,40
 87 204 87 204 269 155 c 0,41,42
 332 136 332 136 420 136 c 0,43,44
 560 136 560 136 665 209.5 c 128,-1,45
 770 283 770 283 770 390 c 1,46,47
 743 299 743 299 669 274 c 0,48,49
 600 253 600 253 539 299 c 0,50,51
 467 353 467 353 470 463 c 2,52,-1
 470 468 l 2,53,54
 475 564 475 564 554.5 604.5 c 128,-1,55
 634 645 634 645 716 614 c 0,56,57
 807 583 807 583 840 487 c 0,58,59
 855 446 855 446 855 395 c 0,60,61
 853 258 853 258 719 168 c 0,62,63
 664 131 664 131 600 110 c 1,64,65
 800 86 800 86 811 -39 c 0,66,67
 812 -45 812 -45 812 -56 c 0,68,69
 812 -187 812 -187 610 -228 c 0,70,71
 516 -247 516 -247 419 -246 c 2,72,-1
 415 -246 l 2,16,17
80 424 m 2,73,74
 81 388 81 388 124.5 356 c 128,-1,75
 168 324 168 324 208 329 c 0,76,77
 212 329 212 329 216 330 c 0,78,79
 271 342 271 342 286 403 c 0,80,81
 291 423 291 423 290 445 c 2,82,-1
 290 451 l 2,83,84
 282 521 282 521 238 551 c 0,85,86
 217 565 217 565 189 564 c 0,87,88
 126 562 126 562 95 501 c 0,89,90
 77 465 77 465 80 429 c 2,91,-1
 80 424 l 2,73,74
642 568 m 0,92,93
 552 568 552 568 552 440 c 0,94,95
 552 374 552 374 591 344 c 0,96,97
 605 333 605 333 630 329 c 0,98,99
 670 323 670 323 723 370 c 0,100,101
 764 408 764 408 764 438 c 0,102,103
 764 496 764 496 720 537 c 0,104,105
 688 568 688 568 642 568 c 0,92,93
444 69 m 2,106,107
 435 70 435 70 376 70.5 c 128,-1,108
 317 71 317 71 266 68 c 2,109,-1
 215 61 l 2,110,111
 101 42 101 42 101 -40 c 0,112,113
 101 -181 101 -181 405 -190 c 0,114,115
 544 -194 544 -194 637 -148 c 0,116,117
 720 -111 720 -111 722 -50 c 0,118,119
 723 11 723 11 645 40 c 2,120,-1
 597 54 l 1,121,-1
 543 62 l 1,122,-1
 444 69 l 2,106,107
EndSplineSet
EndChar

StartChar: ZWNJ
Encoding: 8204 8204 72
Width: 84
GlyphClass: 2
Flags: W
LayerCount: 2
Fore
SplineSet
26 0 m 1,0,-1
 0 0 l 1,1,-1
 0 696 l 1,2,-1
 26 696 l 1,3,-1
 26 0 l 1,0,-1
EndSplineSet
EndChar

StartChar: ZWJ
Encoding: 8205 8205 73
Width: 145
GlyphClass: 2
Flags: W
LayerCount: 2
Fore
SplineSet
160 680 m 1,0,-1
 98 617 l 1,1,-1
 160 555 l 1,2,-1
 142 538 l 1,3,-1
 93 587 l 1,4,-1
 93 0 l 1,5,-1
 68 0 l 1,6,-1
 68 586 l 1,7,-1
 18 538 l 1,8,-1
 1 555 l 1,9,-1
 63 617 l 1,10,-1
 0 680 l 1,11,-1
 17 698 l 1,12,-1
 80 634 l 1,13,-1
 144 698 l 1,14,-1
 160 680 l 1,0,-1
EndSplineSet
EndChar

StartChar: uni25CC
Encoding: 9676 9676 74
Width: 623
GlyphClass: 2
Flags: W
LayerCount: 2
Fore
SplineSet
434 446 m 1,0,-1
 416 428 l 1,1,2
 360 476 360 476 286 484 c 1,3,-1
 286 508 l 1,4,5
 370 501 370 501 434 446 c 1,0,-1
525 265 m 1,6,-1
 500 265 l 1,7,8
 495 336 495 336 451 392 c 1,9,-1
 470 410 l 1,10,11
 519 348 519 348 525 265 c 1,6,-1
240 508 m 1,12,-1
 240 484 l 1,13,14
 166 476 166 476 109 428 c 1,15,-1
 92 446 l 1,16,17
 156 501 156 501 240 508 c 1,12,-1
524 219 m 1,18,19
 516 137 516 137 462 74 c 1,20,-1
 445 92 l 1,21,22
 492 148 492 148 500 219 c 1,23,-1
 524 219 l 1,18,19
430 42 m 1,24,25
 366 -10 366 -10 286 -16 c 1,26,-1
 286 8 l 1,27,28
 356 15 356 15 412 60 c 1,29,-1
 430 42 l 1,24,25
78 396 m 1,30,31
 31 338 31 338 25 265 c 1,32,-1
 0 265 l 1,33,34
 6 349 6 349 60 414 c 1,35,-1
 78 396 l 1,30,31
238 8 m 1,36,-1
 238 -16 l 1,37,38
 160 -9 160 -9 98 40 c 1,39,-1
 116 60 l 1,40,41
 172 15 172 15 238 8 c 1,36,-1
80 92 m 1,42,-1
 63 74 l 1,43,44
 9 138 9 138 1 219 c 1,45,-1
 26 219 l 1,46,47
 34 148 34 148 80 92 c 1,42,-1
EndSplineSet
EndChar

StartChar: uni0D15.cil
Encoding: 65539 -1 75
Width: 1044
GlyphClass: 3
Flags: W
LayerCount: 2
Fore
SplineSet
597 310 m 1,0,-1
 320 310 l 1,1,2
 328 151 328 151 387 83 c 0,3,4
 415 48 415 48 456 48 c 0,5,6
 562 48 562 48 588 191 c 0,7,8
 596 240 596 240 597 310 c 1,0,-1
241 132 m 0,9,10
 254 179 254 179 244 241 c 0,11,12
 240 266 240 266 238 310 c 1,13,-1
 176 310 l 2,14,15
 110 310 110 310 90 240 c 0,16,17
 70 174 70 174 98 108 c 0,18,19
 102 97 102 97 108 88 c 0,20,21
 134 48 134 48 172 53 c 0,22,23
 175 53 175 53 178 54 c 0,24,25
 224 65 224 65 241 132 c 0,9,10
474 577 m 0,26,27
 382 577 382 577 341 470 c 0,28,29
 322 424 322 424 320 362 c 1,30,-1
 596 362 l 1,31,32
 587 577 587 577 474 577 c 0,26,27
808 738 m 0,33,34
 784 762 784 762 754 763.5 c 128,-1,35
 724 765 724 765 705 745.5 c 128,-1,36
 686 726 686 726 685.5 710 c 128,-1,37
 685 694 685 694 689 689 c 1,38,39
 689 683 689 683 687 683 c 1,40,41
 674 692 674 692 662 690 c 128,-1,42
 650 688 650 688 632 713.5 c 128,-1,43
 614 739 614 739 637 770 c 0,44,45
 648 785 648 785 656 790 c 0,46,47
 732 837 732 837 779.5 827.5 c 128,-1,48
 827 818 827 818 862 786 c 0,49,50
 945 711 945 711 862 596.5 c 128,-1,51
 779 482 779 482 776 362 c 1,52,-1
 827 362 l 2,53,54
 944 362 944 362 976 261 c 0,55,56
 986 229 986 229 986 188 c 2,57,-1
 986 184 l 2,58,59
 986 84 986 84 910 29 c 0,60,61
 890 15 890 15 874 9 c 2,62,-1
 848 0 l 1,63,-1
 825 0 l 2,64,65
 714 0 714 0 684 131 c 0,66,67
 663 221 663 221 703 310 c 1,68,-1
 679 310 l 1,69,70
 676 110 676 110 573 35 c 0,71,72
 523 -1 523 -1 456 0 c 0,73,74
 344 2 344 2 285 115 c 1,75,76
 271 29 271 29 195 4 c 0,77,78
 183 0 183 0 163 0 c 0,79,80
 79 0 79 0 31 76 c 0,81,82
 0 125 0 125 0 188 c 0,83,84
 0 275 0 275 62 323 c 0,85,86
 112 362 112 362 172 362 c 2,87,-1
 239 362 l 1,88,89
 248 516 248 516 336 586 c 0,90,91
 391 629 391 629 472 629 c 0,92,93
 626 629 626 629 666 451 c 0,94,95
 676 406 676 406 678 362 c 1,96,-1
 706 362 l 1,97,-1
 732 474 l 1,98,99
 732 500 732 500 793 614 c 1,100,101
 840 677 840 677 824 712 c 0,102,103
 818 726 818 726 808 738 c 0,33,34
793 56 m 1,104,105
 828 50 828 50 829 50 c 0,106,107
 881 65 881 65 898 164 c 0,108,109
 906 211 906 211 887 252 c 128,-1,110
 868 293 868 293 837 305 c 1,111,-1
 813 310 l 1,112,-1
 764 309 l 1,113,114
 736 213 736 213 760 120 c 0,115,116
 773 69 773 69 793 56 c 1,104,105
EndSplineSet
Ligature2: "'pres' Pre Base Substitutions in Malay+AQEA-lam lookup 3" uni0D15_uni0D4D ZWJ
Ligature2: "'haln' Halant Forms in Malay+AQEA-lam lookup 2" uni0D15 uni0D4D ZWJ
Ligature2: "'half' Half Forms in Malay+AQEA-lam lookup 1" uni0D15 uni0D4D ZWJ
EndChar

StartChar: uni0D23.cil
Encoding: 65540 -1 76
Width: 1563
GlyphClass: 3
Flags: W
LayerCount: 2
Fore
SplineSet
109 245 m 0,0,1
 96 218 96 218 99 188 c 0,2,3
 99 173 99 173 113 139 c 0,4,5
 144 78 144 78 193 68 c 0,6,7
 222 60 222 60 240 69 c 1,8,9
 266 76 266 76 279 104 c 0,10,11
 301 149 301 149 297 194 c 2,12,-1
 295 206 l 2,13,14
 293 222 293 222 281 256 c 0,15,16
 264 302 264 302 201 300 c 0,17,18
 140 296 140 296 109 245 c 0,0,1
1302 514 m 1,19,20
 1270 496 1270 496 1236 442 c 0,21,22
 1182 351 1182 351 1185 257 c 2,23,-1
 1185 252 l 2,24,25
 1189 93 1189 93 1272 60 c 0,26,27
 1290 54 1290 54 1310 54 c 0,28,29
 1370 54 1370 54 1402 146 c 0,30,31
 1422 206 1422 206 1418 265 c 0,32,33
 1418 273 1418 273 1417 281 c 0,34,35
 1404 426 1404 426 1302 514 c 1,19,20
1360 558 m 1,36,37
 1501 446 1501 446 1501 284 c 128,-1,38
 1501 122 1501 122 1424 49 c 0,39,40
 1375 0 1375 0 1297 0 c 0,41,42
 1193 0 1193 0 1138 100 c 0,43,44
 1104 166 1104 166 1106 270 c 128,-1,45
 1108 374 1108 374 1186 470 c 0,46,47
 1224 517 1224 517 1266 540 c 1,48,-1
 1233 558 l 2,49,50
 1186 577 1186 577 1136 577 c 128,-1,51
 1086 577 1086 577 1034 539 c 0,52,53
 984 500 984 500 979 437 c 2,54,-1
 979 54 l 2,55,56
 974 10 974 10 943 3 c 0,57,58
 924 -2 924 -2 914.5 7.5 c 128,-1,59
 905 17 905 17 899 29 c 1,60,61
 896 40 896 40 893 53 c 1,62,-1
 893 422 l 2,63,64
 883 500 883 500 822 551 c 0,65,66
 787 577 787 577 755 577 c 0,67,68
 699 577 699 577 663 558 c 0,69,70
 648 549 648 549 623 526 c 0,71,72
 570 472 570 472 570 402 c 2,73,-1
 570 52 l 2,74,75
 570 20 570 20 548 5 c 0,76,77
 538 0 538 0 531 0 c 0,78,79
 501 0 501 0 492 35 c 0,80,81
 489 44 489 44 489 55 c 2,82,-1
 489 398 l 2,83,84
 489 469 489 469 450 520 c 0,85,86
 423 561 423 561 350 572 c 0,87,88
 334 574 334 574 326 574 c 0,89,90
 214 576 214 576 147 486 c 0,91,92
 93 414 93 414 82 304 c 1,93,94
 91 332 91 332 138.5 359.5 c 128,-1,95
 186 387 186 387 238 387 c 128,-1,96
 290 387 290 387 326 354 c 0,97,98
 384 306 384 306 379 210 c 2,99,-1
 379 202 l 2,100,101
 379 191 379 191 378 186 c 2,102,-1
 376 162 l 2,103,104
 364 85 364 85 303 36 c 0,105,106
 257 -3 257 -3 198 0 c 2,107,-1
 192 0 l 2,108,109
 85 9 85 9 35 128 c 0,110,111
 -49 322 -49 322 68 501 c 0,112,113
 159 629 159 629 326 631 c 0,114,115
 417 631 417 631 484 575 c 0,116,117
 520 546 520 546 534 508 c 1,118,119
 553 572 553 572 635 608 c 0,120,121
 685 631 685 631 745 632 c 0,122,123
 834 632 834 632 896 580 c 2,124,-1
 918 557 l 2,125,126
 934 537 934 537 943 514 c 1,127,128
 975 592 975 592 1067 620 c 0,129,130
 1106 631 1106 631 1149 631 c 0,131,132
 1246 631 1246 631 1326 582 c 1,133,134
 1380 632 1380 632 1381 673 c 0,135,136
 1382 736 1382 736 1345 780 c 2,137,-1
 1325 800 l 1,138,-1
 1302 814 l 2,139,140
 1282 823 1282 823 1241 823.5 c 128,-1,141
 1200 824 1200 824 1172 799 c 0,142,143
 1155 782 1155 782 1155 766 c 128,-1,144
 1155 750 1155 750 1167 734 c 1,145,-1
 1172 724 l 1,146,147
 1172 720 1172 720 1168 717 c 1,148,149
 1150 696 1150 696 1120 714 c 0,150,151
 1108 721 1108 721 1100 733 c 0,152,153
 1074 769 1074 769 1103 811 c 0,154,155
 1113 826 1113 826 1128 837 c 0,156,157
 1198 888 1198 888 1295.5 871.5 c 128,-1,158
 1393 855 1393 855 1438 782 c 0,159,160
 1450 766 1450 766 1457 742 c 0,161,162
 1486 642 1486 642 1360 558 c 1,36,37
EndSplineSet
Ligature2: "'pres' Pre Base Substitutions in Malay+AQEA-lam lookup 3" uni0D23_uni0D4D ZWJ
Ligature2: "'haln' Halant Forms in Malay+AQEA-lam lookup 2" uni0D23 uni0D4D ZWJ
Ligature2: "'half' Half Forms in Malay+AQEA-lam lookup 1" uni0D23 uni0D4D ZWJ
EndChar

StartChar: uni0D28.cil
Encoding: 65541 -1 77
Width: 1097
GlyphClass: 3
Flags: W
LayerCount: 2
Fore
SplineSet
893 558 m 1,0,1
 1034 446 1034 446 1034 284 c 128,-1,2
 1034 122 1034 122 958 49 c 0,3,4
 908 0 908 0 831 0 c 0,5,6
 726 0 726 0 671 100 c 0,7,8
 637 169 637 169 638 260 c 0,9,10
 641 373 641 373 719 470 c 0,11,12
 758 518 758 518 800 540 c 1,13,14
 742 577 742 577 680.5 577 c 128,-1,15
 619 577 619 577 568.5 539.5 c 128,-1,16
 518 502 518 502 512 437 c 2,17,-1
 512 54 l 2,18,19
 507 12 507 12 477 3 c 0,20,21
 456 -2 456 -2 442 14 c 0,22,23
 430 30 430 30 426 53 c 1,24,-1
 426 422 l 2,25,26
 415 503 415 503 353 551 c 0,27,28
 302 590 302 590 228 570 c 0,29,30
 171 555 171 555 131 508 c 0,31,32
 70 435 70 435 76 304 c 0,33,34
 76 276 76 276 87 228 c 0,35,36
 106 159 106 159 149 98 c 0,37,38
 156 89 156 89 175 68 c 0,39,40
 234 2 234 2 217 2 c 1,41,-1
 205 5 l 2,42,43
 190 11 190 11 159 32 c 0,44,45
 93 77 93 77 29 198 c 1,46,47
 -17 332 -17 332 9 432 c 0,48,49
 21 478 21 478 55 526 c 0,50,51
 124 610 124 610 215 626 c 0,52,53
 231 629 231 629 282 630 c 0,54,55
 365 633 365 633 426 581 c 0,56,57
 443 568 443 568 450 558 c 2,58,-1
 469 529 l 2,59,60
 473 524 473 524 477 514 c 1,61,62
 507 592 507 592 600 620 c 0,63,64
 639 631 639 631 682 631 c 0,65,66
 779 631 779 631 859 582 c 1,67,68
 914 632 914 632 915 673 c 0,69,70
 916 732 916 732 880.5 776.5 c 128,-1,71
 845 821 845 821 798.5 822.5 c 128,-1,72
 752 824 752 824 727 813 c 1,73,-1
 708 801 l 2,74,75
 706 800 706 800 705 799 c 0,76,77
 688 780 688 780 688 759 c 0,78,79
 688 752 688 752 701 734 c 1,80,-1
 705 724 l 1,81,82
 705 720 705 720 702 717 c 0,83,84
 684 696 684 696 654 714 c 1,85,-1
 638 727 l 1,86,87
 606 764 606 764 636 811 c 0,88,89
 645 824 645 824 661 837 c 0,90,91
 730 888 730 888 827.5 871.5 c 128,-1,92
 925 855 925 855 972 782 c 0,93,94
 984 765 984 765 990 742 c 0,95,96
 1019 642 1019 642 893 558 c 1,0,1
836 514 m 1,97,98
 802 496 802 496 769 442 c 0,99,100
 716 350 716 350 718 256 c 2,101,-1
 718 252 l 2,102,103
 722 93 722 93 805 60 c 0,104,105
 823 54 823 54 844 54 c 0,106,107
 905 54 905 54 935 146 c 0,108,109
 959 219 959 219 950 281 c 0,110,111
 936 426 936 426 836 514 c 1,97,98
EndSplineSet
Ligature2: "'pres' Pre Base Substitutions in Malay+AQEA-lam lookup 3" uni0D28_uni0D4D ZWJ
Ligature2: "'haln' Halant Forms in Malay+AQEA-lam lookup 2" uni0D28 uni0D4D ZWJ
Ligature2: "'half' Half Forms in Malay+AQEA-lam lookup 1" uni0D28 uni0D4D ZWJ
EndChar

StartChar: uni0D30.cil
Encoding: 65542 -1 78
Width: 724
GlyphClass: 3
Flags: W
LayerCount: 2
Fore
SplineSet
452 606 m 1,0,1
 505 670 505 670 469 746 c 0,2,3
 461 764 461 764 447 780 c 0,4,5
 414 821 414 821 357.5 822.5 c 128,-1,6
 301 824 301 824 274 799 c 0,7,8
 258 783 258 783 258 766.5 c 128,-1,9
 258 750 258 750 270 734 c 1,10,-1
 274 724 l 1,11,12
 274 720 274 720 271 717 c 0,13,14
 258 702 258 702 240 707 c 0,15,16
 218 710 218 710 201 733 c 0,17,18
 175 770 175 770 205 811 c 0,19,20
 217 827 217 827 230 837 c 0,21,22
 299 889 299 889 396 872 c 128,-1,23
 493 855 493 855 540 782 c 0,24,25
 609 679 609 679 497 584 c 1,26,27
 551 551 551 551 591 495 c 0,28,29
 658 398 658 398 661.5 266 c 128,-1,30
 665 134 665 134 593 59 c 0,31,32
 535 0 535 0 442 0 c 0,33,34
 295 0 295 0 256 172 c 0,35,36
 223 302 223 302 280 425 c 0,37,38
 326 523 326 523 402 558 c 1,39,40
 283 612 283 612 184 530 c 0,41,42
 104 464 104 464 84 356 c 2,43,-1
 82 344 l 2,44,45
 59 217 59 217 119 112 c 0,46,47
 148 60 148 60 183 26 c 0,48,49
 204 1 204 1 194 0 c 1,50,51
 182 2 182 2 150 26 c 0,52,53
 93 65 93 65 48 150 c 0,54,55
 -4 241 -4 241 0 335 c 2,56,-1
 0 343 l 2,57,58
 9 487 9 487 122 566 c 0,59,60
 206 629 206 629 322 629 c 0,61,62
 394 629 394 629 452 606 c 1,0,1
580 268 m 0,63,64
 571 383 571 383 509 471 c 0,65,66
 475 521 475 521 440 526 c 0,67,68
 377 534 377 534 344 433 c 0,69,70
 323 373 323 373 321 295.5 c 128,-1,71
 319 218 319 218 340 156 c 0,72,73
 350 124 350 124 367 100 c 0,74,75
 403 52 403 52 452 52 c 0,76,77
 511 52 511 52 552 123 c 0,78,79
 584 181 584 181 581 258 c 1,80,81
 580 263 580 263 580 268 c 0,63,64
EndSplineSet
Ligature2: "'pres' Pre Base Substitutions in Malay+AQEA-lam lookup 3" uni0D30_uni0D4D ZWJ
Ligature2: "'haln' Halant Forms in Malay+AQEA-lam lookup 2" uni0D30 uni0D4D ZWJ
Ligature2: "'half' Half Forms in Malay+AQEA-lam lookup 1" uni0D30 uni0D4D ZWJ
EndChar

StartChar: uni0D32.cil
Encoding: 65543 -1 79
Width: 1180
GlyphClass: 3
Flags: W
LayerCount: 2
Fore
SplineSet
1035 496 m 0,0,1
 1118 404 1118 404 1118 279 c 0,2,3
 1118 122 1118 122 1042 49 c 0,4,5
 992 0 992 0 915 0 c 0,6,7
 808 0 808 0 755 100 c 0,8,9
 721 164 721 164 723 269 c 128,-1,10
 725 374 725 374 803 470 c 0,11,12
 850 530 850 530 906 550 c 1,13,-1
 955 524 l 1,14,15
 902 524 902 524 850.5 438.5 c 128,-1,16
 799 353 799 353 802 258 c 2,17,-1
 802 252 l 2,18,19
 806 93 806 93 889 60 c 0,20,21
 906 54 906 54 927 54 c 0,22,23
 989 54 989 54 1019 146 c 0,24,25
 1043 218 1043 218 1034 281 c 0,26,27
 1012 499 1012 499 833 564 c 0,28,29
 768 589 768 589 677 587 c 2,30,-1
 664 587 l 2,31,32
 626 585 626 585 611 583 c 0,33,34
 497 574 497 574 412 480 c 0,35,36
 355 415 355 415 334 332 c 0,37,38
 308 236 308 236 335 148 c 0,39,40
 365 51 365 51 442.5 51 c 128,-1,41
 520 51 520 51 547 154 c 0,42,43
 570 237 570 237 549 318 c 0,44,45
 487 545 487 545 297 574 c 0,46,47
 241 581 241 581 202.5 563.5 c 128,-1,48
 164 546 164 546 131 508 c 0,49,50
 69 436 69 436 76 307 c 0,51,52
 76 202 76 202 149 98 c 0,53,54
 157 88 157 88 175 68 c 0,55,56
 233 3 233 3 218 2 c 1,57,58
 204 -1 204 -1 159 32 c 0,59,60
 74 96 74 96 29 198 c 0,61,62
 -39 394 -39 394 55 526 c 0,63,64
 129 625 129 625 260 631 c 2,65,-1
 269 631 l 2,66,67
 404 630 404 630 512 526 c 0,68,69
 585 458 585 458 625 356 c 0,70,71
 675 234 675 234 623 125 c 0,72,73
 584 39 584 39 505 9 c 0,74,75
 478 0 478 0 449 0 c 0,76,77
 350 0 350 0 287 87 c 0,78,79
 236 163 236 163 239 249 c 2,80,-1
 239 254 l 2,81,82
 246 420 246 420 378 529 c 0,83,84
 512 643 512 643 715 635 c 128,-1,85
 918 627 918 627 1035 496 c 0,0,1
954 545 m 1,86,-1
 941 558 l 1,87,-1
 922 560 l 1,88,89
 967 603 967 603 993 653 c 0,90,91
 998 662 998 662 998 674 c 0,92,93
 1000 737 1000 737 962 780 c 0,94,95
 928 822 928 822 871 823 c 128,-1,96
 814 824 814 824 789 799 c 0,97,98
 772 782 772 782 772 759 c 0,99,100
 772 752 772 752 785 734 c 1,101,-1
 789 724 l 1,102,103
 789 720 789 720 786 717 c 0,104,105
 768 697 768 697 738 714 c 1,106,-1
 722 727 l 2,107,108
 718 730 718 730 717 733 c 1,109,110
 690 769 690 769 720 811 c 0,111,112
 729 824 729 824 745 837 c 0,113,114
 813 889 813 889 909.5 871.5 c 128,-1,115
 1006 854 1006 854 1055 782 c 0,116,117
 1110 700 1110 700 1048 620 c 0,118,119
 1015 579 1015 579 983 561 c 2,120,-1
 954 545 l 1,86,-1
EndSplineSet
Ligature2: "'pres' Pre Base Substitutions in Malay+AQEA-lam lookup 3" uni0D32_uni0D4D ZWJ
Ligature2: "'haln' Halant Forms in Malay+AQEA-lam lookup 2" uni0D32 uni0D4D ZWJ
Ligature2: "'half' Half Forms in Malay+AQEA-lam lookup 1" uni0D32 uni0D4D ZWJ
EndChar

StartChar: uni0D33.cil
Encoding: 65544 -1 80
Width: 1064
GlyphClass: 3
Flags: W
LayerCount: 2
Fore
SplineSet
863 558 m 1,0,1
 995 454 995 454 1002 295 c 2,2,-1
 1002 279 l 2,3,4
 1002 122 1002 122 925 49 c 0,5,6
 876 0 876 0 798 0 c 0,7,8
 692 0 692 0 639 100 c 0,9,10
 605 164 605 164 607 268.5 c 128,-1,11
 609 373 609 373 686 470 c 0,12,13
 728 522 728 522 773 543 c 1,14,15
 721 574 721 574 658 574 c 0,16,17
 497 574 497 574 470 369 c 0,18,19
 465 322 465 322 465 272 c 0,20,21
 465 132 465 132 385 55 c 0,22,23
 327 0 327 0 232 0 c 128,-1,24
 137 0 137 0 68.5 82 c 128,-1,25
 0 164 0 164 0 297 c 0,26,27
 6 485 6 485 131 581 c 0,28,29
 175 616 175 616 225 629 c 0,30,31
 236 633 236 633 240 627 c 1,32,-1
 230 609 l 1,33,-1
 166 535 l 2,34,35
 85 444 85 444 85 316 c 128,-1,36
 85 188 85 188 141 114 c 0,37,38
 185 56 185 56 242 56 c 0,39,40
 356 56 356 56 379 237 c 0,41,42
 387 284 387 284 386.5 321.5 c 128,-1,43
 386 359 386 359 386 364 c 0,44,45
 386 522 386 522 513 591 c 0,46,47
 584 629 584 629 668 629 c 128,-1,48
 752 629 752 629 828 584 c 1,49,50
 881 634 881 634 881 674 c 0,51,52
 882 735 882 735 847.5 778 c 128,-1,53
 813 821 813 821 756.5 822.5 c 128,-1,54
 700 824 700 824 673 799 c 0,55,56
 656 783 656 783 656 766.5 c 128,-1,57
 656 750 656 750 668 734 c 1,58,-1
 673 724 l 1,59,60
 673 721 673 721 669 717 c 0,61,62
 651 696 651 696 621 714 c 1,63,-1
 606 727 l 2,64,65
 582 750 582 750 590 781.5 c 128,-1,66
 598 813 598 813 628 837 c 0,67,68
 698 888 698 888 796 872 c 0,69,70
 918 850 918 850 958 742 c 0,71,72
 988 643 988 643 863 558 c 1,0,1
808 518 m 1,73,74
 771 500 771 500 737 442 c 0,75,76
 683 353 683 353 685 256 c 2,77,-1
 685 252 l 2,78,79
 689 93 689 93 772 60 c 0,80,81
 790 54 790 54 811 54 c 0,82,83
 872 54 872 54 902 146 c 0,84,85
 923 205 923 205 919 265 c 0,86,87
 919 273 919 273 918 281 c 0,88,89
 903 434 903 434 808 518 c 1,73,74
EndSplineSet
Ligature2: "'pres' Pre Base Substitutions in Malay+AQEA-lam lookup 3" uni0D33_uni0D4D ZWJ
Ligature2: "'haln' Halant Forms in Malay+AQEA-lam lookup 2" uni0D33 uni0D4D ZWJ
Ligature2: "'half' Half Forms in Malay+AQEA-lam lookup 1" uni0D33 uni0D4D ZWJ
EndChar

StartChar: ML_l4
Encoding: 65546 -1 82
Width: 0
GlyphClass: 3
Flags: W
LayerCount: 2
Fore
SplineSet
354 -94 m 1,0,1
 382 -107 382 -107 412 -159 c 128,-1,2
 442 -211 442 -211 441 -275 c 0,3,4
 438 -394 438 -394 368 -409 c 0,5,6
 356 -411 356 -411 351 -411 c 0,7,8
 303 -411 303 -411 282 -338 c 0,9,10
 270 -299 270 -299 271.5 -279.5 c 128,-1,11
 273 -260 273 -260 273 -256 c 0,12,13
 285 -149 285 -149 354 -94 c 1,0,1
462 -54 m 0,14,15
 608 -58 608 -58 601 -261 c 0,16,17
 599 -365 599 -365 668 -419 c 0,18,19
 708 -447 708 -447 763 -447 c 0,20,21
 844 -447 844 -447 894 -382 c 0,22,23
 936 -328 936 -328 936 -246 c 0,24,25
 931 -108 931 -108 831 -44 c 0,26,27
 807 -29 807 -29 774 -17 c 0,28,29
 764 -14 764 -14 762 -19 c 1,30,-1
 778 -40 l 2,31,32
 792 -54 792 -54 817 -82 c 0,33,34
 874 -143 874 -143 874 -234.5 c 128,-1,35
 874 -326 874 -326 828 -378 c 1,36,-1
 809 -394 l 1,37,-1
 786 -406 l 1,38,39
 774 -409 774 -409 761 -409 c 0,40,41
 671 -409 671 -409 659 -260 c 2,42,-1
 658 -200 l 2,43,44
 659 -126 659 -126 614 -79 c 2,45,-1
 590 -58 l 2,46,47
 528 -17 528 -17 461 -17 c 0,48,49
 352 -17 352 -17 276 -98 c 0,50,51
 214 -166 214 -166 214 -257 c 0,52,53
 214 -375 214 -375 278 -423 c 0,54,55
 312 -447 312 -447 360 -447 c 0,56,57
 445 -447 445 -447 481 -367 c 0,58,59
 500 -326 500 -326 499 -270 c 0,60,61
 497 -192 497 -192 440 -123 c 0,62,63
 410 -84 410 -84 380 -76 c 1,64,65
 420 -53 420 -53 462 -54 c 0,14,15
EndSplineSet
Ligature2: "'pstf' Post Base Forms in Malay+AQEA-lam lookup 4" uni0D32 uni0D4D
EndChar

StartChar: uni0D2F.pb
Encoding: 65547 -1 83
Width: 545
GlyphClass: 3
Flags: W
LayerCount: 2
Fore
SplineSet
84 -184 m 0,0,1
 84 -246 84 -246 239 -246 c 0,2,3
 278 -246 278 -246 286 -242 c 1,4,5
 396 -218 396 -218 420 -138 c 0,6,7
 444 -54 444 -54 360 49 c 0,8,9
 343 70 343 70 300 109 c 0,10,11
 230 166 230 166 195 266 c 0,12,13
 147 400 147 400 180 528 c 0,14,15
 191 575 191 575 222 596 c 128,-1,16
 253 617 253 617 264 629 c 1,17,18
 201 492 201 492 239 335 c 0,19,20
 275 204 275 204 364.5 136 c 128,-1,21
 454 68 454 68 483 29 c 0,22,23
 520 -26 520 -26 514 -107 c 0,24,25
 514 -209 514 -209 399 -269 c 0,26,27
 307 -316 307 -316 202.5 -308.5 c 128,-1,28
 98 -301 98 -301 40 -249 c 0,29,30
 -3 -209 -3 -209 1 -158 c 0,31,32
 2 -154 2 -154 2 -151 c 0,33,34
 12 -73 12 -73 158 -61 c 0,35,36
 170 -60 170 -60 190 -60 c 0,37,38
 218 -60 218 -60 220 -27.5 c 128,-1,39
 222 5 222 5 226.5 10.5 c 128,-1,40
 231 16 231 16 238 16 c 0,41,42
 257 16 257 16 271 -19 c 0,43,44
 278 -37 278 -37 278 -52 c 0,45,46
 278 -101 278 -101 242 -114 c 1,47,-1
 215 -118 l 1,48,-1
 209 -118 l 2,49,50
 128 -118 128 -118 103 -138 c 0,51,52
 84 -152 84 -152 84 -184 c 0,0,1
EndSplineSet
Ligature2: "'pstf' Post Base Forms in Malay+AQEA-lam lookup 4" uni0D2F uni0D4D
Ligature2: "'akhn' Akhand in Malay+AQEA-lam lookup 0" uni0D4D uni0D2F
EndChar

StartChar: uni0D30.pb
Encoding: 65548 -1 84
Width: 267
GlyphClass: 3
Flags: W
LayerCount: 2
Fore
SplineSet
134 629 m 1,0,1
 128 609 128 609 68.5 424.5 c 128,-1,2
 9 240 9 240 7 166 c 0,3,4
 4 46 4 46 25 -7 c 0,5,6
 47 -76 47 -76 111.5 -117 c 128,-1,7
 176 -158 176 -158 261 -138 c 0,8,9
 331 -126 331 -126 344 -92 c 0,10,11
 349 -78 349 -78 336 -70 c 1,12,-1
 316 -63 l 1,13,14
 286 -58 286 -58 249.5 -67 c 128,-1,15
 213 -76 213 -76 188.5 -69.5 c 128,-1,16
 164 -63 164 -63 152 -54 c 128,-1,17
 140 -45 140 -45 126 -28 c 0,18,19
 55 72 55 72 122 410 c 2,20,-1
 158 583 l 1,21,-1
 157 614 l 2,22,23
 157 623 157 623 147 626 c 1,24,25
 142 629 142 629 134 629 c 1,0,1
EndSplineSet
Ligature2: "'pstf' Post Base Forms in Malay+AQEA-lam lookup 4" uni0D30 uni0D4D
EndChar

StartChar: uni0D35.pb
Encoding: 65549 -1 85
Width: 292
GlyphClass: 3
Flags: W
LayerCount: 2
Fore
SplineSet
35 51 m 2,0,-1
 125 51 l 2,1,2
 148 51 148 51 158 69 c 0,3,4
 163 77 163 77 163 110 c 2,5,-1
 163 562 l 2,6,7
 163 593 163 593 197 603 c 0,8,9
 232 613 232 613 237.5 619 c 128,-1,10
 243 625 243 625 246 631 c 1,11,-1
 246 111 l 2,12,13
 246 55 246 55 234 33 c 0,14,15
 216 -1 216 -1 139 -1 c 2,16,-1
 -28 -1 l 1,17,18
 -8 4 -8 4 1 17 c 2,19,-1
 7 26 l 2,20,21
 18 44 18 44 22 47.5 c 128,-1,22
 26 51 26 51 35 51 c 2,0,-1
EndSplineSet
Ligature2: "'pstf' Post Base Forms in Malay+AQEA-lam lookup 4" uni0D35 uni0D4D
Ligature2: "'akhn' Akhand in Malay+AQEA-lam lookup 0" uni0D4D uni0D35
EndChar

StartChar: glyph142
Encoding: 65550 -1 86
Width: 1760
GlyphClass: 3
Flags: W
LayerCount: 2
Fore
SplineSet
472 629 m 0,0,1
 627 629 627 629 666 451 c 0,2,3
 676 412 676 412 678 362 c 1,4,-1
 842 362 l 2,5,6
 976 362 976 362 1010 263 c 0,7,8
 1019 240 1019 240 1020 200 c 0,9,10
 1023 139 1023 139 954 85 c 0,11,12
 921 60 921 60 892 52 c 1,13,-1
 1251 52 l 1,14,-1
 1251 222 l 1,15,-1
 1220 226 l 2,16,17
 1167 235 1167 235 1117 264 c 0,18,19
 1033 317 1033 317 1020 409 c 0,20,21
 1008 477 1008 477 1042.5 540.5 c 128,-1,22
 1077 604 1077 604 1156 625 c 0,23,24
 1172 629 1172 629 1193 629 c 0,25,26
 1294 629 1294 629 1326 536 c 0,27,28
 1337 501 1337 501 1337 460 c 2,29,-1
 1336 284 l 1,30,31
 1420 299 1420 299 1465 336 c 0,32,33
 1539 393 1539 393 1587 488 c 0,34,35
 1609 538 1609 538 1615 563 c 1,36,37
 1615 593 1615 593 1647 604 c 0,38,39
 1681 614 1681 614 1688 621 c 128,-1,40
 1695 628 1695 628 1698 632 c 1,41,-1
 1698 112 l 2,42,43
 1698 60 1698 60 1684 34 c 0,44,45
 1668 0 1668 0 1589 0 c 2,46,-1
 848 0 l 2,47,48
 796 0 796 0 775 34 c 0,49,50
 752 68 752 68 798 76 c 1,51,52
 849 68 849 68 895 114 c 0,53,54
 934 148 934 148 933 188 c 1,55,56
 941 238 941 238 904 275 c 2,57,-1
 884 292 l 2,58,59
 858 310 858 310 822 310 c 2,60,-1
 679 310 l 1,61,62
 676 110 676 110 573 35 c 0,63,64
 525 0 525 0 456 0 c 0,65,66
 344 2 344 2 285 115 c 1,67,68
 270 22 270 22 195 4 c 0,69,70
 183 0 183 0 163 0 c 0,71,72
 81 0 81 0 31 76 c 0,73,74
 0 125 0 125 0 188 c 0,75,76
 0 271 0 271 62 323 c 0,77,78
 112 362 112 362 172 362 c 2,79,-1
 239 362 l 1,80,81
 248 516 248 516 336 586 c 0,82,83
 391 629 391 629 472 629 c 0,0,1
474 577 m 0,84,85
 382 577 382 577 341 470 c 0,86,87
 322 424 322 424 320 362 c 1,88,-1
 596 362 l 1,89,90
 587 577 587 577 474 577 c 0,84,85
1336 225 m 1,91,-1
 1336 52 l 1,92,-1
 1577 52 l 2,93,94
 1598 52 1598 52 1609 70 c 0,95,96
 1615 78 1615 78 1615 111 c 2,97,-1
 1615 446 l 1,98,99
 1588 372 1588 372 1527 314 c 2,100,-1
 1493 287 l 1,101,-1
 1457 264 l 2,102,103
 1398 234 1398 234 1336 225 c 1,91,-1
1251 284 m 1,104,-1
 1251 457 l 2,105,106
 1251 512 1251 512 1218 551 c 1,107,-1
 1202 564 l 2,108,109
 1183 576 1183 576 1159 568 c 0,110,111
 1103 549 1103 549 1101 470 c 0,112,113
 1100 422 1100 422 1118 385 c 0,114,115
 1134 346 1134 346 1165 323 c 0,116,117
 1206 294 1206 294 1251 284 c 1,104,-1
241 132 m 0,118,119
 254 180 254 180 244 241 c 0,120,121
 240 266 240 266 238 310 c 1,122,-1
 176 310 l 2,123,124
 110 310 110 310 90 240 c 0,125,126
 70 174 70 174 98 108 c 0,127,128
 102 97 102 97 108 88 c 0,129,130
 134 48 134 48 172 53 c 0,131,132
 175 53 175 53 178 54 c 0,133,134
 224 65 224 65 241 132 c 0,118,119
597 310 m 1,135,-1
 320 310 l 1,136,137
 328 151 328 151 387 83 c 0,138,139
 415 48 415 48 456 48 c 0,140,141
 562 48 562 48 588 191 c 0,142,143
 596 240 596 240 597 310 c 1,135,-1
EndSplineSet
Ligature2: "'akhn' Akhand in Malay+AQEA-lam lookup 0" uni0D15 uni0D4D uni0D37
EndChar

StartChar: glyph143
Encoding: 65551 -1 87
Width: 1987
GlyphClass: 3
Flags: W
LayerCount: 2
Fore
SplineSet
1569 427 m 1,0,1
 1508 376 1508 376 1490 305 c 0,2,3
 1469 234 1469 234 1493 171 c 0,4,5
 1517 113 1517 113 1572 114 c 0,6,7
 1632 114 1632 114 1648 193 c 0,8,9
 1665 251 1665 251 1648 297 c 0,10,11
 1624 382 1624 382 1569 427 c 1,0,1
955 246 m 0,12,13
 944 228 944 228 945 214 c 128,-1,14
 946 200 946 200 958 173 c 0,15,16
 980 131 980 131 1017 124 c 2,17,-1
 1041 122 l 1,18,19
 1069 126 1069 126 1081.5 152 c 128,-1,20
 1094 178 1094 178 1092.5 207 c 128,-1,21
 1091 236 1091 236 1081 254 c 0,22,23
 1068 285 1068 285 1022.5 282.5 c 128,-1,24
 977 280 977 280 955 246 c 0,12,13
133 487 m 2,25,26
 98 486 98 486 85 463.5 c 128,-1,27
 72 441 72 441 78 427 c 0,28,29
 94 390 94 390 127.5 387 c 128,-1,30
 161 384 161 384 181 416 c 0,31,32
 199 438 199 438 188 464 c 128,-1,33
 177 490 177 490 138 487 c 2,34,-1
 133 487 l 2,25,26
632 151 m 0,35,36
 411 52 411 52 337 32 c 0,37,38
 224 -4 224 -4 118 16 c 1,39,40
 43 42 43 42 21 114 c 0,41,42
 6 182 6 182 50 232 c 0,43,44
 72 260 72 260 111 274 c 1,45,46
 180 314 180 314 490 317 c 0,47,48
 608 318 608 318 611 318 c 0,49,50
 769 325 769 325 777 446 c 0,51,52
 782 522 782 522 736 559 c 1,53,-1
 713 571 l 2,54,55
 697 579 697 579 671 579 c 0,56,57
 585 579 585 579 531 498 c 0,58,59
 501 452 501 452 496.5 403.5 c 128,-1,60
 492 355 492 355 476 352 c 0,61,62
 454 348 454 348 445 376 c 1,63,64
 445 380 445 380 443 390 c 0,65,66
 432 541 432 541 319 572 c 0,67,68
 292 582 292 582 259 581 c 2,69,-1
 255 581 l 2,70,71
 154 580 154 580 93 508 c 1,72,73
 174 546 174 546 234 505 c 0,74,75
 272 478 272 478 275 422 c 0,76,77
 275 384 275 384 221 352 c 0,78,79
 150 312 150 312 79 334 c 0,80,81
 21 351 21 351 4 417 c 0,82,83
 -6 463 -6 463 11 510 c 0,84,85
 61 626 61 626 250 629 c 0,86,87
 348 630 348 630 413 589 c 0,88,89
 457 562 457 562 475 526 c 1,90,91
 504 594 504 594 590 620 c 0,92,93
 624 629 624 629 663 629 c 0,94,95
 841 629 841 629 870 511 c 0,96,97
 877 486 877 486 876 470.5 c 128,-1,98
 875 455 875 455 875 451 c 0,99,100
 869 319 869 319 752 281 c 0,101,102
 690 259 690 259 535 259 c 2,103,-1
 528 259 l 2,104,105
 333 259 333 259 290.5 255.5 c 128,-1,106
 248 252 248 252 227 248 c 0,107,108
 151 236 151 236 118 195 c 0,109,110
 92 164 92 164 107 130 c 0,111,112
 154 30 154 30 365 102 c 2,113,-1
 595 193 l 2,114,115
 651 215 651 215 682 226 c 2,116,-1
 873 288 l 1,117,118
 876 354 876 354 924 422 c 0,119,120
 990 511 990 511 1115 511 c 0,121,122
 1188 511 1188 511 1240 467 c 0,123,124
 1259 449 1259 449 1270 426 c 1,125,126
 1303 487 1303 487 1396 507 c 0,127,128
 1417 511 1417 511 1442 511 c 0,129,130
 1512 510 1512 510 1571 476 c 1,131,132
 1634 510 1634 510 1703 511 c 0,133,134
 1824 510 1824 510 1884 436 c 2,135,-1
 1891 426 l 2,136,137
 1939 360 1939 360 1919 267 c 0,138,139
 1908 228 1908 228 1886 191 c 0,140,141
 1845 131 1845 131 1812 109 c 0,142,143
 1774 78 1774 78 1754 79 c 0,144,145
 1735 81 1735 81 1787 122 c 1,146,147
 1840 181 1840 181 1855 234 c 0,148,149
 1889 359 1889 359 1814 428 c 2,150,-1
 1789 447 l 2,151,152
 1748 472 1748 472 1697 472 c 128,-1,153
 1646 472 1646 472 1606 452 c 1,154,155
 1622 440 1622 440 1636 425 c 2,156,-1
 1666 391 l 2,157,158
 1759 261 1759 261 1700 155 c 0,159,160
 1654 78 1654 78 1574.5 78 c 128,-1,161
 1495 78 1495 78 1449 146 c 0,162,163
 1417 194 1417 194 1419 248 c 2,164,-1
 1419 252 l 2,165,166
 1425 359 1425 359 1517 439 c 2,167,-1
 1532 450 l 1,168,169
 1500 466 1500 466 1461 472 c 0,170,171
 1364 476 1364 476 1319 417 c 2,172,-1
 1310 404 l 2,173,174
 1295 376 1295 376 1295 354 c 2,175,-1
 1295 114 l 2,176,177
 1295 89 1295 89 1277 80 c 1,178,-1
 1266 78 l 1,179,180
 1243 78 1243 78 1237 104 c 2,181,-1
 1236 115 l 1,182,-1
 1236 351 l 2,183,184
 1236 399 1236 399 1206 435 c 0,185,186
 1183 466 1183 466 1127 472 c 2,187,-1
 1115 472 l 2,188,189
 1080 473 1080 473 1051 462 c 2,190,-1
 1024 449 l 2,191,192
 946 398 946 398 934 287 c 1,193,194
 941 306 941 306 982 327 c 2,195,-1
 997 334 l 2,196,197
 1026 343 1026 343 1056.5 343 c 128,-1,198
 1087 343 1087 343 1115 321 c 0,199,200
 1157 290 1157 290 1154 223 c 2,201,-1
 1154 216 l 2,202,203
 1154 209 1154 209 1153 206 c 1,204,-1
 1152 188 l 2,205,206
 1144 138 1144 138 1097 101 c 0,207,208
 1065 77 1065 77 1021 78 c 2,209,-1
 1016 78 l 2,210,211
 938 84 938 84 898 166 c 0,212,213
 880 205 880 205 875 244 c 1,214,-1
 767 208 l 2,215,216
 672 171 672 171 632 151 c 0,35,36
EndSplineSet
Ligature2: "'akhn' Akhand in Malay+AQEA-lam lookup 0" uni0D1C uni0D4D uni0D1E
EndChar

StartChar: glyph144
Encoding: 65552 -1 88
Width: 1467
GlyphClass: 3
Flags: W
LayerCount: 2
Fore
SplineSet
472 629 m 0,0,1
 627 629 627 629 666 451 c 0,2,3
 676 412 676 412 678 362 c 1,4,-1
 782 362 l 1,5,6
 809 484 809 484 900 556.5 c 128,-1,7
 991 629 991 629 1107 629 c 0,8,9
 1283 629 1283 629 1359 513 c 0,10,11
 1406 440 1406 440 1405 330 c 0,12,13
 1401 201 1401 201 1325 108 c 0,14,15
 1317 98 1317 98 1283 62 c 0,16,17
 1228 11 1228 11 1192 -1 c 1,18,-1
 1179 -2 l 1,19,20
 1166 2 1166 2 1223 63 c 128,-1,21
 1280 124 1280 124 1301.5 184 c 128,-1,22
 1323 244 1323 244 1324 318 c 0,23,24
 1326 426 1326 426 1267 501 c 0,25,26
 1206 581 1206 581 1111 581 c 0,27,28
 997 581 997 581 922 476 c 0,29,30
 886 426 886 426 868 362 c 1,31,-1
 1010 362 l 2,32,33
 1128 362 1128 362 1160 261 c 0,34,35
 1171 225 1171 225 1170 184 c 0,36,37
 1165 73 1165 73 1083 27 c 0,38,39
 1039 0 1039 0 979 0 c 0,40,41
 868 0 868 0 810 111 c 0,42,43
 762 200 762 200 773 310 c 1,44,-1
 679 310 l 1,45,46
 676 110 676 110 573 35 c 0,47,48
 525 0 525 0 456 0 c 0,49,50
 344 2 344 2 285 115 c 1,51,52
 270 22 270 22 195 4 c 0,53,54
 183 0 183 0 163 0 c 0,55,56
 81 0 81 0 31 76 c 0,57,58
 0 125 0 125 0 188 c 0,59,60
 0 271 0 271 62 323 c 0,61,62
 112 362 112 362 172 362 c 2,63,-1
 239 362 l 1,64,65
 248 516 248 516 336 586 c 0,66,67
 391 629 391 629 472 629 c 0,0,1
474 577 m 0,68,69
 382 577 382 577 341 470 c 0,70,71
 322 424 322 424 320 362 c 1,72,-1
 596 362 l 1,73,74
 587 577 587 577 474 577 c 0,68,69
1070 121 m 0,75,76
 1098 188 1098 188 1068 257 c 0,77,78
 1043 310 1043 310 989 310 c 2,79,-1
 856 310 l 1,80,81
 846 228 846 228 883 140 c 128,-1,82
 920 52 920 52 979.5 52 c 128,-1,83
 1039 52 1039 52 1070 121 c 0,75,76
241 132 m 0,84,85
 254 180 254 180 244 241 c 0,86,87
 240 266 240 266 238 310 c 1,88,-1
 176 310 l 2,89,90
 110 310 110 310 90 240 c 0,91,92
 70 174 70 174 98 108 c 0,93,94
 102 97 102 97 108 88 c 0,95,96
 134 48 134 48 172 53 c 0,97,98
 175 53 175 53 178 54 c 0,99,100
 224 65 224 65 241 132 c 0,84,85
597 310 m 1,101,-1
 320 310 l 1,102,103
 328 151 328 151 387 83 c 0,104,105
 415 48 415 48 456 48 c 0,106,107
 562 48 562 48 588 191 c 0,108,109
 596 240 596 240 597 310 c 1,101,-1
EndSplineSet
Ligature2: "'akhn' Akhand in Malay+AQEA-lam lookup 0" uni0D15 uni0D4D uni0D15
EndChar

StartChar: glyph145
Encoding: 65553 -1 89
Width: 1028
GlyphClass: 3
Flags: W
LayerCount: 2
Fore
SplineSet
477 629 m 0,0,1
 667 629 667 629 683 362 c 1,2,-1
 806 362 l 2,3,4
 924 362 924 362 956 261 c 0,5,6
 966 228 966 228 965 188 c 2,7,-1
 965 184 l 2,8,9
 962 80 962 80 890 29 c 0,10,11
 851 0 851 0 804 0 c 128,-1,12
 757 0 757 0 727 40 c 0,13,14
 712 62 712 62 712 83 c 1,15,16
 757 42 757 42 799 48 c 0,17,18
 803 49 803 49 808 50 c 0,19,20
 864 68 864 68 877 164 c 0,21,22
 884 211 884 211 865.5 252 c 128,-1,23
 847 293 847 293 816 305 c 1,24,-1
 792 310 l 1,25,-1
 684 310 l 1,26,27
 680 108 680 108 578 35 c 0,28,29
 531 0 531 0 462 0 c 0,30,31
 350 2 350 2 290 114 c 1,32,33
 274 22 274 22 200 4 c 0,34,35
 188 0 188 0 169 0 c 0,36,37
 85 0 85 0 38 76 c 0,38,39
 5 123 5 123 5 188 c 0,40,41
 5 271 5 271 67 323 c 0,42,43
 82 334 82 334 98 343 c 1,44,45
 59 357 59 357 28 398 c 0,46,47
 0 439 0 439 0 480 c 0,48,49
 0 555 0 555 64 601 c 0,50,51
 107 629 107 629 158 629 c 0,52,53
 235 629 235 629 273 561 c 0,54,55
 283 544 283 544 288 525 c 1,56,57
 350 629 350 629 477 629 c 0,0,1
479 577 m 0,58,59
 388 577 388 577 346 470 c 0,60,61
 326 424 326 424 324 362 c 1,62,-1
 602 362 l 1,63,64
 591 577 591 577 479 577 c 0,58,59
254 220 m 1,65,66
 244 264 244 264 243 310 c 1,67,-1
 181 310 l 2,68,69
 115 310 115 310 95 240 c 0,70,71
 82 195 82 195 90 153.5 c 128,-1,72
 98 112 98 112 113 88 c 0,73,74
 139 48 139 48 177 53 c 0,75,76
 180 53 180 53 183 54 c 0,77,78
 229 64 229 64 247 132 c 0,79,80
 257 168 257 168 254 220 c 1,65,66
603 310 m 1,81,-1
 325 310 l 1,82,83
 332 151 332 151 392 83 c 0,84,85
 420 48 420 48 462 48 c 0,86,87
 567 48 567 48 593 191 c 0,88,89
 602 246 602 246 603 310 c 1,81,-1
244 362 m 1,90,91
 248 434 248 434 269 486 c 1,92,93
 260 522 260 522 229.5 549.5 c 128,-1,94
 199 577 199 577 159 577 c 128,-1,95
 119 577 119 577 95 539.5 c 128,-1,96
 71 502 71 502 72 474 c 0,97,98
 74 400 74 400 144 359 c 1,99,100
 160 362 160 362 177 362 c 2,101,-1
 244 362 l 1,90,91
EndSplineSet
Ligature2: "'akhn' Akhand in Malay+AQEA-lam lookup 0" uni0D19 uni0D4D uni0D15
EndChar

StartChar: glyph146
Encoding: 65554 -1 90
Width: 616
GlyphClass: 3
Flags: W
LayerCount: 2
Fore
SplineSet
293 53 m 2,0,1
 425 58 425 58 450 143 c 0,2,3
 457 164 457 164 456 190 c 0,4,5
 453 267 453 267 368 286 c 2,6,-1
 314 292 l 1,7,-1
 191 292 l 2,8,9
 54 289 54 289 16 359 c 0,10,11
 0 391 0 391 0 439 c 0,12,13
 -2 548 -2 548 105 600 c 0,14,15
 166 629 166 629 261 629 c 0,16,17
 381 629 381 629 469 553 c 0,18,19
 485 540 485 540 494 530 c 2,20,-1
 507 514 l 2,21,22
 527 488 527 488 519 488 c 0,23,24
 515 488 515 488 500 498 c 2,25,-1
 479 514 l 2,26,27
 404 571 404 571 273 577 c 2,28,-1
 260 577 l 2,29,30
 152 577 152 577 107 513 c 0,31,32
 86 482 86 482 86 436 c 0,33,34
 86 367 86 367 145 349 c 0,35,36
 188 337 188 337 346 337 c 0,37,38
 508 334 508 334 537 243 c 0,39,40
 545 216 545 216 545 186 c 0,41,42
 542 64 542 64 414 20 c 1,43,44
 484 13 484 13 526 -31 c 0,45,46
 557 -63 557 -63 553 -106 c 0,47,48
 553 -110 553 -110 552 -114 c 0,49,50
 537 -202 537 -202 432 -240 c 0,51,52
 381 -260 381 -260 314 -260 c 0,53,54
 162 -260 162 -260 90 -213 c 0,55,56
 22 -167 22 -167 3 -98 c 1,57,58
 48 -166 48 -166 153 -199 c 0,59,60
 244 -224 244 -224 332 -208 c 0,61,62
 452 -188 452 -188 464 -98 c 0,63,64
 469 -59 469 -59 429 -35 c 0,65,66
 410 -22 410 -22 371.5 -10 c 128,-1,67
 333 2 333 2 289 0 c 2,68,-1
 269 0 l 1,69,-1
 62 1 l 1,70,-1
 51 1 l 2,71,72
 25 1 25 1 18 20 c 0,73,74
 16 29 16 29 17 32 c 1,75,76
 19 51 19 51 54 52 c 2,77,-1
 287 53 l 1,78,-1
 293 53 l 2,0,1
EndSplineSet
Ligature2: "'akhn' Akhand in Malay+AQEA-lam lookup 0" uni0D1F uni0D4D uni0D1F
EndChar

StartChar: glyph147
Encoding: 65555 -1 91
Width: 638
GlyphClass: 3
Flags: W
LayerCount: 2
Fore
SplineSet
411 4 m 1,0,1
 384 0 384 0 356 0 c 0,2,3
 306 0 306 0 263 31 c 0,4,5
 236 50 236 50 233 70 c 1,6,7
 233 84 233 84 262 65 c 1,8,9
 371 24 371 24 440 81 c 0,10,11
 474 107 474 107 486 148 c 0,12,13
 513 236 513 236 431 280 c 2,14,-1
 395 295 l 2,15,16
 355 306 355 306 306.5 307.5 c 128,-1,17
 258 309 258 309 256 324 c 128,-1,18
 254 339 254 339 270 344 c 128,-1,19
 286 349 286 349 298 350 c 0,20,21
 428 363 428 363 462 396 c 0,22,23
 485 417 485 417 488 462 c 0,24,25
 494 530 494 530 411 561 c 0,26,27
 368 577 368 577 322 577 c 0,28,29
 188 577 188 577 115 447 c 0,30,31
 48 318 48 318 86 161 c 0,32,33
 101 98 101 98 134 52 c 0,34,35
 168 0 168 0 149 0 c 1,36,37
 135 2 135 2 102 32 c 0,38,39
 52 80 52 80 18 186 c 0,40,41
 -3 260 -3 260 0 328 c 0,42,43
 0 335 0 335 1 341 c 0,44,45
 10 445 10 445 95 532 c 0,46,47
 191 629 191 629 322 629 c 0,48,49
 521 629 521 629 566 519 c 0,50,51
 576 493 576 493 576 460 c 0,52,53
 576 388 576 388 507 350 c 0,54,55
 478 336 478 336 444 332 c 1,56,57
 537 317 537 317 564 247 c 0,58,59
 582 203 582 203 564.5 133.5 c 128,-1,60
 547 64 547 64 488 29 c 1,61,62
 532 8 532 8 549 -32 c 0,63,64
 560 -58 560 -58 557 -88 c 2,65,-1
 555 -100 l 2,66,67
 530 -244 530 -244 352 -244 c 0,68,69
 304 -243 304 -243 248 -206 c 0,70,71
 238 -200 238 -200 236 -198 c 0,72,73
 220 -179 220 -179 221 -169 c 1,74,75
 224 -160 224 -160 251 -176 c 1,76,77
 354 -216 354 -216 423 -168 c 0,78,79
 463 -141 463 -141 474 -95 c 0,80,81
 490 -20 490 -20 411 4 c 1,0,1
EndSplineSet
Ligature2: "'akhn' Akhand in Malay+AQEA-lam lookup 0" uni0D26 uni0D4D uni0D26
EndChar

StartChar: glyph148
Encoding: 65556 -1 92
Width: 1613
GlyphClass: 3
Flags: W
LayerCount: 2
Fore
SplineSet
106 245 m 0,0,1
 94 220 94 220 95.5 201.5 c 128,-1,2
 97 183 97 183 98 176.5 c 128,-1,3
 99 170 99 170 110 139 c 0,4,5
 145 64 145 64 190 56 c 0,6,7
 219 52 219 52 245 72 c 2,8,9
 249 73 249 73 258.5 80 c 128,-1,10
 268 87 268 87 276 104 c 0,11,12
 298 149 298 149 294 194 c 2,13,-1
 292 206 l 2,14,15
 290 222 290 222 278 256 c 0,16,17
 261 302 261 302 198 300 c 0,18,19
 137 296 137 296 106 245 c 0,0,1
447 300 m 0,20,21
 447 471 447 471 605 566 c 1,22,23
 531 581 531 581 457 581 c 0,24,25
 328 581 328 581 230 532 c 0,26,27
 191 514 191 514 162 484 c 0,28,29
 89 405 89 405 78 304 c 1,30,31
 89 333 89 333 136 360 c 128,-1,32
 183 387 183 387 235 387 c 128,-1,33
 287 387 287 387 323 354 c 0,34,35
 380 307 380 307 376 210 c 2,36,-1
 376 202 l 2,37,38
 376 191 376 191 375 186 c 2,39,-1
 372 162 l 2,40,41
 361 86 361 86 300 36 c 0,42,43
 258 0 258 0 184.5 0 c 128,-1,44
 111 0 111 0 52 89 c 2,45,-1
 30 128 l 2,46,47
 -23 249 -23 249 18 382 c 0,48,49
 38 442 38 442 78 493 c 0,50,51
 173 606 173 606 350 625 c 0,52,53
 387 629 387 629 441 629 c 0,54,55
 588 629 588 629 686 604 c 1,56,57
 753 628 753 628 825 629 c 0,58,59
 955 629 955 629 1029 562 c 0,60,61
 1060 534 1060 534 1072 501 c 1,62,63
 1108 591 1108 591 1216 621 c 0,64,65
 1252 631 1252 631 1291 631 c 0,66,67
 1543 631 1543 631 1552 468 c 2,68,-1
 1552 460 l 2,69,70
 1553 412 1553 412 1525 380 c 1,71,-1
 1505 363 l 1,72,-1
 1487 351 l 2,73,74
 1458 336 1458 336 1420 332 c 1,75,76
 1513 317 1513 317 1540 247 c 0,77,78
 1557 203 1557 203 1542 140 c 0,79,80
 1506 0 1506 0 1322 0 c 0,81,82
 1261 0 1261 0 1219 42 c 0,83,84
 1203 58 1203 58 1200 78 c 1,85,86
 1200 86 1200 86 1209 85 c 128,-1,87
 1218 84 1218 84 1227 78 c 0,88,89
 1313 24 1313 24 1391 67 c 0,90,91
 1443 92 1443 92 1461 150 c 0,92,93
 1489 234 1489 234 1407 280 c 0,94,95
 1357 307 1357 307 1276 308 c 0,96,97
 1237 309 1237 309 1231 324 c 1,98,99
 1229 334 1229 334 1238 340.5 c 128,-1,100
 1247 347 1247 347 1274 350 c 0,101,102
 1404 363 1404 363 1438 396 c 0,103,104
 1461 417 1461 417 1464.5 461 c 128,-1,105
 1468 505 1468 505 1434 532 c 0,106,107
 1416 546 1416 546 1375.5 561.5 c 128,-1,108
 1335 577 1335 577 1282 574 c 2,109,-1
 1276 574 l 2,110,111
 1209 571 1209 571 1154 526 c 2,112,-1
 1139 513 l 1,113,114
 1106 464 1106 464 1106 386 c 2,115,-1
 1107 52 l 2,116,117
 1107 -1 1107 -1 1059 2 c 0,118,119
 1025 3 1025 3 1025 55 c 2,120,-1
 1025 398 l 2,121,122
 1025 466 1025 466 986 518 c 0,123,124
 954 564 954 564 877 579 c 0,125,126
 858 583 858 583 828 583 c 128,-1,127
 798 583 798 583 764 576 c 1,128,129
 872 524 872 524 879 428 c 0,130,131
 885 364 885 364 837 325 c 0,132,133
 818 308 818 308 789 300 c 1,134,135
 914 236 914 236 883 128 c 0,136,137
 870 59 870 59 788 24 c 2,138,-1
 746 9 l 2,139,140
 710 0 710 0 667 0 c 0,141,142
 593 0 593 0 529 67 c 0,143,144
 448 154 448 154 447 300 c 0,20,21
677 545 m 1,145,146
 538 470 538 470 527 292 c 0,147,148
 524 230 524 230 541 188 c 0,149,150
 589 68 589 68 655 52 c 0,151,152
 713 40 713 40 752 67 c 0,153,154
 783 86 783 86 799 122 c 1,155,156
 816 187 816 187 787 225 c 0,157,158
 778 241 778 241 761 253 c 1,159,-1
 733 265 l 2,160,161
 707 274 707 274 663.5 276.5 c 128,-1,162
 620 279 620 279 620 295.5 c 128,-1,163
 620 312 620 312 663 318 c 0,164,165
 766 332 766 332 785 378 c 0,166,167
 793 396 793 396 791 432 c 0,168,169
 789 503 789 503 677 545 c 1,145,146
EndSplineSet
Ligature2: "'akhn' Akhand in Malay+AQEA-lam lookup 0" uni0D19 uni0D4D uni0D19
EndChar

StartChar: glyph150
Encoding: 65557 -1 93
Width: 1043
GlyphClass: 3
Flags: W
LayerCount: 2
Fore
SplineSet
486 480 m 0,0,1
 441 392 441 392 441 206 c 2,2,-1
 441 200 l 2,3,4
 442 71 442 71 338 20 c 0,5,6
 292 0 292 0 238 0 c 0,7,8
 137 2 137 2 68 83 c 0,9,10
 0 164 0 164 0 297 c 0,11,12
 6 485 6 485 131 581 c 0,13,14
 175 616 175 616 225 629 c 0,15,16
 236 633 236 633 240 627 c 1,17,-1
 230 609 l 1,18,-1
 166 535 l 2,19,20
 118 481 118 481 101 394 c 0,21,22
 92 352 92 352 92 306 c 0,23,24
 92 183 92 183 147 109 c 0,25,26
 189 56 189 56 242 56 c 0,27,28
 333 56 333 56 358 165 c 0,29,30
 375 235 375 235 375 359 c 2,31,-1
 375 364 l 2,32,33
 375 518 375 518 506 589 c 0,34,35
 580 629 580 629 658 629 c 0,36,37
 842 629 842 629 918 537 c 0,38,39
 981 464 981 464 981 316 c 2,40,-1
 981 98 l 2,41,42
 981 48 981 48 947 19 c 0,43,44
 925 0 925 0 837 0 c 2,45,-1
 509 0 l 2,46,47
 427 0 427 0 428 20 c 1,48,49
 440 41 440 41 483 48 c 1,50,51
 517 64 517 64 567 103 c 0,52,53
 693 209 693 209 704 342 c 0,54,55
 712 453 712 453 661 498 c 0,56,57
 643 517 643 517 598.5 523.5 c 128,-1,58
 554 530 554 530 512 505 c 1,59,-1
 493 488 l 2,60,61
 488 484 488 484 486 480 c 0,0,1
562 52 m 1,62,-1
 837 52 l 2,63,64
 878 51 878 51 889 68 c 1,65,66
 899 79 899 79 899 118 c 2,67,-1
 899 314 l 2,68,69
 899 453 899 453 809 528 c 0,70,71
 745 581 745 581 658 581 c 0,72,73
 634 581 634 581 613 577 c 1,74,75
 672 580 672 580 729 535 c 0,76,77
 757 513 757 513 772 492 c 0,78,79
 826 424 826 424 795 317 c 0,80,81
 764 199 764 199 636 100 c 0,82,83
 600 72 600 72 562 52 c 1,62,-1
EndSplineSet
Ligature2: "'pres' Pre Base Substitutions in Malay+AQEA-lam lookup 3" uni0D17_uni0D4D uni0D2E
EndChar

StartChar: glyph152
Encoding: 65558 -1 94
Width: 1296
GlyphClass: 3
Flags: W
LayerCount: 2
Fore
SplineSet
375 364 m 2,0,1
 374 486 374 486 429 558 c 128,-1,2
 484 630 484 630 592 632 c 0,3,4
 682 632 682 632 743 580 c 2,5,-1
 765 557 l 2,6,7
 783 532 783 532 790 514 c 1,8,9
 836 631 836 631 977 631 c 0,10,11
 1093 631 1093 631 1160 558 c 0,12,13
 1175 542 1175 542 1182 528 c 0,14,15
 1266 390 1266 390 1216 247 c 0,16,17
 1182 140 1182 140 1090 54 c 2,18,-1
 1075 42 l 2,19,20
 1020 -4 1020 -4 1003 4 c 1,21,22
 993 14 993 14 1033 60 c 0,23,24
 1087 114 1087 114 1117 202 c 2,25,-1
 1121 214 l 1,26,27
 1156 282 1156 282 1138 388 c 0,28,29
 1129 449 1129 449 1105 486 c 0,30,31
 1075 546 1075 546 1019 566 c 0,32,33
 997 574 997 574 975 574 c 0,34,35
 916 574 916 574 872 534 c 2,36,-1
 852 513 l 2,37,38
 827 478 827 478 826 436 c 2,39,-1
 826 54 l 2,40,41
 821 11 821 11 790 3 c 0,42,43
 750 -8 750 -8 740 53 c 1,44,-1
 740 422 l 1,45,46
 728 501 728 501 667 550 c 0,47,48
 634 577 634 577 600 577 c 0,49,50
 487 577 487 577 455 420 c 0,51,52
 444 359 444 359 441 200 c 0,53,54
 438 66 438 66 333 18 c 0,55,56
 291 0 291 0 238 0 c 0,57,58
 137 2 137 2 68 83 c 0,59,60
 0 164 0 164 0 297 c 0,61,62
 6 485 6 485 131 581 c 0,63,64
 175 616 175 616 225 629 c 0,65,66
 236 633 236 633 240 627 c 1,67,-1
 230 609 l 1,68,-1
 166 535 l 2,69,70
 118 481 118 481 101 394 c 0,71,72
 92 352 92 352 92 306 c 0,73,74
 92 183 92 183 147 109 c 0,75,76
 189 56 189 56 242 56 c 0,77,78
 333 56 333 56 358 165 c 0,79,80
 376 239 376 239 375 359 c 2,81,-1
 375 364 l 2,0,1
EndSplineSet
Ligature2: "'pres' Pre Base Substitutions in Malay+AQEA-lam lookup 3" uni0D17_uni0D4D uni0D28
EndChar

StartChar: glyph153
Encoding: 65559 -1 95
Width: 1600
GlyphClass: 3
Flags: W
LayerCount: 2
Fore
SplineSet
133 487 m 2,0,1
 98 486 98 486 85 463.5 c 128,-1,2
 72 441 72 441 78 427 c 0,3,4
 94 390 94 390 127.5 387 c 128,-1,5
 161 384 161 384 181 416 c 0,6,7
 199 438 199 438 188 464 c 128,-1,8
 177 490 177 490 138 487 c 2,9,-1
 133 487 l 2,0,1
1379 89 m 1,10,11
 1368 76 1368 76 1374 60 c 1,12,13
 1378 53 1378 53 1385 46 c 1,14,15
 1420 20 1420 20 1462 46 c 0,16,17
 1480 59 1480 59 1476 78 c 0,18,19
 1468 104 1468 104 1429 105 c 0,20,21
 1406 106 1406 106 1391 98 c 1,22,-1
 1379 89 l 1,10,11
943 307 m 1,23,24
 932 288 932 288 952 268 c 0,25,26
 962 259 962 259 982.5 257.5 c 128,-1,27
 1003 256 1003 256 1015 274.5 c 128,-1,28
 1027 293 1027 293 1025 300 c 0,29,30
 1014 334 1014 334 977 327 c 2,31,-1
 958 321 l 1,32,-1
 946 310 l 1,33,-1
 943 307 l 1,23,24
952 341 m 1,34,35
 1020 370 1020 370 1061 335 c 1,36,-1
 1074 319 l 1,37,-1
 1083 299 l 1,38,39
 1085 289 1085 289 1085 281 c 0,40,41
 1085 254 1085 254 1040 230 c 0,42,43
 988 206 988 206 940 220 c 0,44,45
 912 228 912 228 897 252 c 1,46,-1
 767 208 l 2,47,48
 672 171 672 171 632 151 c 0,49,50
 411 52 411 52 337 32 c 0,51,52
 224 -4 224 -4 118 16 c 1,53,54
 43 42 43 42 21 114 c 0,55,56
 6 182 6 182 50 232 c 0,57,58
 72 260 72 260 111 274 c 1,59,60
 180 314 180 314 490 317 c 0,61,62
 608 318 608 318 611 318 c 0,63,64
 769 325 769 325 777 446 c 0,65,66
 782 522 782 522 736 559 c 1,67,-1
 713 571 l 2,68,69
 697 579 697 579 671 579 c 0,70,71
 585 579 585 579 531 498 c 0,72,73
 501 452 501 452 496.5 403.5 c 128,-1,74
 492 355 492 355 476 352 c 0,75,76
 454 348 454 348 445 376 c 1,77,78
 445 380 445 380 443 390 c 0,79,80
 432 541 432 541 319 572 c 0,81,82
 292 582 292 582 259 581 c 2,83,-1
 255 581 l 2,84,85
 154 580 154 580 93 508 c 1,86,87
 174 546 174 546 234 505 c 0,88,89
 272 478 272 478 275 422 c 0,90,91
 275 384 275 384 221 352 c 0,92,93
 150 312 150 312 79 334 c 0,94,95
 21 351 21 351 4 417 c 0,96,97
 -6 463 -6 463 11 510 c 0,98,99
 61 626 61 626 250 629 c 0,100,101
 348 630 348 630 413 589 c 0,102,103
 457 562 457 562 475 526 c 1,104,105
 504 594 504 594 590 620 c 0,106,107
 624 629 624 629 663 629 c 0,108,109
 841 629 841 629 870 511 c 0,110,111
 877 486 877 486 876 470.5 c 128,-1,112
 875 455 875 455 875 451 c 0,113,114
 869 319 869 319 752 281 c 0,115,116
 690 259 690 259 535 259 c 2,117,-1
 528 259 l 2,118,119
 333 259 333 259 290.5 255.5 c 128,-1,120
 248 252 248 252 227 248 c 0,121,122
 151 236 151 236 118 195 c 0,123,124
 92 164 92 164 107 130 c 0,125,126
 154 30 154 30 365 102 c 2,127,-1
 595 193 l 2,128,129
 651 215 651 215 682 226 c 2,130,-1
 883 291 l 1,131,132
 879 318 879 318 891 342 c 0,133,134
 928 424 928 424 1067 425 c 0,135,136
 1136 426 1136 426 1186 397 c 0,137,138
 1216 380 1216 380 1232 353 c 1,139,140
 1254 407 1254 407 1330 422 c 0,141,142
 1348 425 1348 425 1370 425 c 0,143,144
 1509 425 1509 425 1524 332 c 1,145,146
 1526 326 1526 326 1526 301 c 0,147,148
 1520 207 1520 207 1424 180 c 0,149,150
 1374 166 1374 166 1229 168 c 2,151,-1
 1108 166 l 2,152,153
 1085 165 1085 165 1043 160 c 128,-1,154
 1001 155 1001 155 972 124 c 0,155,156
 956 106 956 106 960 87 c 1,157,158
 960 83 960 83 962 79 c 0,159,160
 990 20 990 20 1119 54 c 0,161,162
 1135 57 1135 57 1285 115 c 0,163,164
 1345 136 1345 136 1383 145 c 0,165,166
 1500 174 1500 174 1531 104 c 0,167,168
 1539 87 1539 87 1538 61 c 0,169,170
 1536 24 1536 24 1493 4 c 128,-1,171
 1450 -16 1450 -16 1413 -11 c 0,172,173
 1354 -3 1354 -3 1335 39 c 0,174,175
 1326 60 1326 60 1333 90 c 1,176,177
 1301 81 1301 81 1195.5 39 c 128,-1,178
 1090 -3 1090 -3 1012 1 c 0,179,180
 1002 1 1002 1 968 7 c 0,181,182
 903 27 903 27 900 83 c 0,183,184
 899 116 899 116 912 135 c 0,185,186
 938 170 938 170 965 179 c 1,187,188
 1020 210 1020 210 1331 210 c 0,189,190
 1450 215 1450 215 1453 299 c 0,191,192
 1455 335 1455 335 1445 351.5 c 128,-1,193
 1435 368 1435 368 1420.5 379 c 128,-1,194
 1406 390 1406 390 1376 390 c 0,195,196
 1306 390 1306 390 1267 325 c 0,197,198
 1250 297 1250 297 1247 265 c 128,-1,199
 1244 233 1244 233 1229 232 c 1,200,-1
 1219 234 l 1,201,202
 1210 241 1210 241 1208 259 c 0,203,204
 1199 369 1199 369 1109 388 c 2,205,-1
 1072 391 l 1,206,-1
 1070 391 l 2,207,208
 993 389 993 389 952 341 c 1,34,35
EndSplineSet
Ligature2: "'pres' Pre Base Substitutions in Malay+AQEA-lam lookup 3" uni0D1C_uni0D4D uni0D1C
EndChar

StartChar: glyph154
Encoding: 65560 -1 96
Width: 2062
GlyphClass: 3
Flags: W
LayerCount: 2
Fore
SplineSet
909 493 m 1,0,1
 871 478 871 478 836 406 c 0,2,3
 786 294 786 294 817 168 c 0,4,5
 824 140 824 140 835 116 c 0,6,7
 862 54 862 54 902 54 c 0,8,9
 998 54 998 54 1027 159 c 0,10,11
 1036 194 1036 194 1036 239 c 0,12,13
 1036 332 1036 332 968 431 c 0,14,15
 933 482 933 482 909 493 c 1,0,1
1778 118 m 1,16,17
 1767 99 1767 99 1774 86 c 0,18,19
 1790 54 1790 54 1819 46 c 0,20,21
 1862 36 1862 36 1890 58 c 0,22,23
 1920 79 1920 79 1917 102 c 0,24,25
 1917 104 1917 104 1916 106 c 0,26,27
 1904 143 1904 143 1857 147 c 0,28,29
 1826 152 1826 152 1804 140 c 1,30,-1
 1788 128 l 1,31,32
 1784 122 1784 122 1778 118 c 1,16,17
768 577 m 0,33,34
 737 578 737 578 699.5 565.5 c 128,-1,35
 662 553 662 553 640 535 c 0,36,37
 595 501 595 501 577 435 c 0,38,39
 572 413 572 413 572 398 c 2,40,-1
 572 55 l 2,41,42
 572 12 572 12 542 2 c 0,43,44
 534 0 534 0 530 0 c 0,45,46
 498 0 498 0 488 33 c 0,47,48
 485 44 485 44 485 55 c 2,49,-1
 485 398 l 2,50,51
 484 482 484 482 433 532 c 0,52,53
 388 574 388 574 325 574 c 0,54,55
 216 574 216 574 146 486 c 0,56,57
 92 418 92 418 81 304 c 1,58,59
 89 331 89 331 136 358 c 0,60,61
 181 387 181 387 235 387 c 128,-1,62
 289 387 289 387 325 354 c 0,63,64
 381 308 381 308 378 209 c 2,65,-1
 378 202 l 2,66,67
 378 191 378 191 377 186 c 2,68,-1
 375 162 l 2,69,70
 363 87 363 87 302 36 c 0,71,72
 256 -3 256 -3 197 0 c 2,73,-1
 191 0 l 2,74,75
 81 9 81 9 33 128 c 0,76,77
 -8 229 -8 229 2 324 c 0,78,79
 6 408 6 408 67 501 c 0,80,81
 158 630 158 630 314 631 c 2,82,-1
 325 631 l 2,83,84
 421 630 421 630 469 591 c 0,85,86
 478 583 478 583 494 565 c 2,87,-1
 523 527 l 1,88,-1
 535 506 l 1,89,90
 606 626 606 626 740 631 c 2,91,-1
 775 631 l 2,92,93
 879 626 879 626 950 581 c 1,94,95
 1017 614 1017 614 1115 628 c 0,96,97
 1155 633 1155 633 1188 633 c 0,98,99
 1314 633 1314 633 1412 570 c 0,100,101
 1466 537 1466 537 1492 486 c 1,102,103
 1508 540 1508 540 1596 588 c 0,104,105
 1669 628 1669 628 1728 629 c 0,106,107
 1869 632 1869 632 1940 549 c 0,108,109
 1982 501 1982 501 1982 440 c 0,110,111
 1982 307 1982 307 1862 265 c 0,112,113
 1783 240 1783 240 1603.5 239 c 128,-1,114
 1424 238 1424 238 1334 226 c 0,115,116
 1273 218 1273 218 1235 180 c 0,117,118
 1196 146 1196 146 1215 109 c 0,119,120
 1246 36 1246 36 1365 53 c 0,121,122
 1426 61 1426 61 1573.5 118 c 128,-1,123
 1721 175 1721 175 1790 195 c 0,124,125
 1898 226 1898 226 1961 181 c 0,126,127
 2001 155 2001 155 1999 106 c 128,-1,128
 1997 57 1997 57 1942.5 26 c 128,-1,129
 1888 -5 1888 -5 1839 -1 c 0,130,131
 1834 -1 1834 -1 1830 0 c 0,132,133
 1696 18 1696 18 1720 126 c 1,134,135
 1686 117 1686 117 1530 51 c 2,136,-1
 1446 19 l 2,137,138
 1328 -18 1328 -18 1223 6 c 0,139,140
 1141 34 1141 34 1132.5 103 c 128,-1,141
 1124 172 1124 172 1170 220 c 0,142,143
 1192 244 1192 244 1219 254 c 1,144,145
 1291 296 1291 296 1597 297 c 0,146,147
 1713 297 1713 297 1718 298 c 1,148,149
 1855 302 1855 302 1881 408 c 0,150,151
 1882 418 1882 418 1884 436 c 0,152,153
 1888 512 1888 512 1828 554 c 1,154,-1
 1799 568 l 1,155,-1
 1764 577 l 1,156,-1
 1736 579 l 2,157,158
 1644 579 1644 579 1577 499 c 0,159,160
 1518 432 1518 432 1518 360 c 0,161,162
 1518 325 1518 325 1496 319 c 1,163,-1
 1484 322 l 2,164,165
 1465 329 1465 329 1463 358 c 0,166,167
 1457 482 1457 482 1340 548 c 0,168,169
 1267 587 1267 587 1181.5 587 c 128,-1,170
 1096 587 1096 587 994 546 c 1,171,172
 1016 528 1016 528 1032 502 c 0,173,174
 1132 360 1132 360 1120 227 c 0,175,176
 1112 150 1112 150 1080 100 c 0,177,178
 1025 11 1025 11 910 0 c 0,179,180
 868 -3 868 -3 833 14 c 0,181,182
 830 15 830 15 799 36 c 0,183,184
 740 84 740 84 726 162 c 2,185,-1
 724 186 l 2,186,187
 718 255 718 255 728 319 c 0,188,189
 730 335 730 335 735 346 c 2,190,191
 750 406 750 406 787 456 c 0,192,193
 789 460 789 460 793 464 c 0,194,195
 836 512 836 512 877 537 c 1,196,197
 837 574 837 574 768 577 c 0,33,34
108 245 m 0,198,199
 95 218 95 218 98 188 c 0,200,201
 98 173 98 173 112 139 c 0,202,203
 143 78 143 78 192 68 c 0,204,205
 254 52 254 52 278 104 c 0,206,207
 300 149 300 149 296 194 c 2,208,-1
 294 206 l 2,209,210
 290 228 290 228 280 256 c 0,211,212
 261 302 261 302 200 299 c 128,-1,213
 139 296 139 296 108 245 c 0,198,199
EndSplineSet
Ligature2: "'pres' Pre Base Substitutions in Malay+AQEA-lam lookup 3" uni0D1E_uni0D4D uni0D1C
EndChar

StartChar: glyph155
Encoding: 65561 -1 97
Width: 2278
GlyphClass: 3
Flags: W
LayerCount: 2
Fore
SplineSet
928 575 m 1,0,1
 1021 629 1021 629 1117 629.5 c 128,-1,2
 1213 630 1213 630 1281 584 c 0,3,4
 1313 559 1313 559 1326 539 c 2,5,-1
 1339 514 l 1,6,7
 1366 582 1366 582 1457 613 c 0,8,9
 1506 631 1506 631 1561 631 c 0,10,11
 1654 630 1654 630 1736 580 c 1,12,13
 1822 631 1822 631 1915 631 c 0,14,15
 2069 628 2069 628 2145 540 c 2,16,-1
 2169 508 l 2,17,18
 2226 418 2226 418 2213 313 c 0,19,20
 2198 226 2198 226 2158 158 c 128,-1,21
 2118 90 2118 90 2064 45 c 128,-1,22
 2010 0 2010 0 1985 1 c 0,23,24
 1971 2 1971 2 1983 17 c 0,25,26
 2006 45 2006 45 2027 63 c 1,27,28
 2094 140 2094 140 2119 222 c 1,29,30
 2119 225 2119 225 2121 229 c 1,31,32
 2164 403 2164 403 2076 499 c 2,33,-1
 2052 523 l 2,34,35
 1991 574 1991 574 1901 574 c 0,36,37
 1838 574 1838 574 1784 544 c 1,38,39
 1872 470 1872 470 1919 356 c 0,40,41
 1965 236 1965 236 1917 125 c 0,42,43
 1878 43 1878 43 1804 11 c 0,44,45
 1773 0 1773 0 1743 0 c 0,46,47
 1645 0 1645 0 1581 87 c 0,48,49
 1530 157 1530 157 1533 247 c 2,50,-1
 1533 254 l 2,51,52
 1539 400 1539 400 1651 514 c 0,53,54
 1666 530 1666 530 1683 543 c 1,55,56
 1621 579 1621 579 1564.5 579 c 128,-1,57
 1508 579 1508 579 1449 543 c 0,58,59
 1378 501 1378 501 1375 436 c 2,60,-1
 1375 54 l 2,61,62
 1370 10 1370 10 1339 3 c 1,63,-1
 1326 2 l 2,64,65
 1324 2 1324 2 1322 3 c 1,66,67
 1294 10 1294 10 1289 53 c 2,68,-1
 1289 422 l 1,69,70
 1277 504 1277 504 1211 552 c 0,71,72
 1171 579 1171 579 1128 579 c 0,73,74
 1046 579 1046 579 974 539 c 1,75,76
 1053 468 1053 468 1101 356 c 0,77,78
 1148 237 1148 237 1098 125 c 0,79,80
 1061 43 1061 43 986 11 c 0,81,82
 953 0 953 0 924 0 c 0,83,84
 826 0 826 0 764 85 c 0,85,86
 710 154 710 154 714 246 c 2,87,-1
 714 254 l 2,88,89
 726 421 726 421 874 538 c 1,90,91
 828 566 828 566 771 574 c 0,92,93
 626 583 626 583 583 471 c 0,94,95
 572 441 572 441 572 402 c 2,96,-1
 572 52 l 2,97,98
 572 20 572 20 550 5 c 1,99,100
 538 0 538 0 533 0 c 0,101,102
 503 0 503 0 494 35 c 0,103,104
 491 44 491 44 491 55 c 2,105,-1
 491 398 l 2,106,107
 491 468 491 468 452 520 c 0,108,109
 424 561 424 561 352 572 c 0,110,111
 336 574 336 574 328 574 c 0,112,113
 214 576 214 576 149 486 c 0,114,115
 93 414 93 414 84 304 c 1,116,117
 92 331 92 331 139 358 c 0,118,119
 182 387 182 387 236.5 387 c 128,-1,120
 291 387 291 387 328 354 c 0,121,122
 385 306 385 306 381 209 c 2,123,-1
 381 202 l 1,124,-1
 380 187 l 1,125,-1
 380 186 l 1,126,-1
 378 162 l 2,127,128
 364 85 364 85 305 36 c 0,129,130
 258 -3 258 -3 199 0 c 2,131,-1
 194 0 l 2,132,133
 85 9 85 9 37 128 c 0,134,135
 -51 330 -51 330 70 501 c 0,136,137
 166 629 166 629 328 631 c 0,138,139
 418 631 418 631 486 575 c 0,140,141
 522 546 522 546 536 508 c 1,142,143
 589 608 589 608 707 627 c 0,144,145
 724 631 724 631 748 631 c 0,146,147
 846 630 846 630 928 575 c 1,0,1
111 245 m 0,148,149
 98 218 98 218 101 188 c 0,150,151
 101 174 101 174 115 139 c 0,152,153
 144 79 144 79 195 68 c 0,154,155
 231 58 231 58 261 78 c 0,156,157
 271 85 271 85 286.5 116 c 128,-1,158
 302 147 302 147 299 196 c 0,159,160
 299 201 299 201 294 221 c 128,-1,161
 289 241 289 241 283 256 c 0,162,163
 264 302 264 302 203 299 c 128,-1,164
 142 296 142 296 111 245 c 0,148,149
922 504 m 1,165,166
 834 432 834 432 809 332 c 0,167,168
 782 233 782 233 810 148 c 0,169,170
 839 51 839 51 916.5 51 c 128,-1,171
 994 51 994 51 1022 154 c 0,172,173
 1044 240 1044 240 1024 318 c 0,174,175
 990 439 990 439 922 504 c 1,165,166
1732 506 m 1,176,177
 1650 432 1650 432 1627 332 c 0,178,179
 1600 233 1600 233 1628 148 c 0,180,181
 1655 51 1655 51 1738 51 c 0,182,183
 1810 51 1810 51 1840 154 c 0,184,185
 1862 240 1862 240 1842 318 c 0,186,187
 1808 438 1808 438 1732 506 c 1,176,177
EndSplineSet
Ligature2: "'akhn' Akhand in Malay+AQEA-lam lookup 0" uni0D1E uni0D4D uni0D1E
EndChar

StartChar: glyph156
Encoding: 65562 -1 98
Width: 1649
GlyphClass: 3
Flags: W
LayerCount: 2
Fore
SplineSet
918 533 m 1,0,1
 893 514 893 514 872 486 c 0,2,3
 812 407 812 407 816 305 c 1,4,5
 817 300 817 300 817 296 c 0,6,7
 823 228 823 228 869 206 c 0,8,9
 893 192 893 192 912 199 c 1,10,11
 985 208 985 208 1000 314 c 0,12,13
 1022 471 1022 471 918 533 c 1,0,1
837 564 m 1,14,15
 790 578 790 578 758 572.5 c 128,-1,16
 726 567 726 567 707 562 c 2,17,-1
 666 547 l 1,18,19
 656 541 656 541 642 531 c 0,20,21
 577 473 577 473 572 398 c 2,22,-1
 572 55 l 2,23,24
 572 12 572 12 542 2 c 0,25,26
 534 0 534 0 530 0 c 0,27,28
 498 0 498 0 488 33 c 0,29,30
 485 44 485 44 485 55 c 2,31,-1
 485 398 l 2,32,33
 485 472 485 472 435 522 c 0,34,35
 383 572 383 572 330 574 c 0,36,37
 248 576 248 576 193 532 c 0,38,39
 96 457 96 457 81 304 c 1,40,41
 89 331 89 331 136 358 c 0,42,43
 181 387 181 387 235 387 c 128,-1,44
 289 387 289 387 325 354 c 0,45,46
 381 308 381 308 378 209 c 2,47,-1
 378 202 l 2,48,49
 378 191 378 191 377 186 c 2,50,-1
 375 162 l 2,51,52
 363 87 363 87 302 36 c 0,53,54
 256 -3 256 -3 197 0 c 2,55,-1
 191 0 l 2,56,57
 81 9 81 9 33 128 c 0,58,59
 -8 229 -8 229 2 324 c 0,60,61
 6 408 6 408 67 501 c 0,62,63
 158 630 158 630 314 631 c 2,64,-1
 325 631 l 2,65,66
 430 630 430 630 483 578 c 2,67,-1
 507 550 l 2,68,69
 519 534 519 534 535 506 c 1,70,71
 595 607 595 607 728 626 c 0,72,73
 760 630 760 630 793 629 c 2,74,-1
 802 629 l 2,75,76
 860 626 860 626 910 606 c 1,77,78
 968 629 968 629 1031 629 c 0,79,80
 1181 629 1181 629 1263 523 c 0,81,82
 1324 444 1324 444 1324 333.5 c 128,-1,83
 1324 223 1324 223 1230 129 c 0,84,85
 1182 82 1182 82 1126 52 c 1,86,-1
 1466 52 l 2,87,88
 1489 52 1489 52 1499 70 c 0,89,90
 1504 78 1504 78 1504 111 c 2,91,-1
 1504 563 l 2,92,93
 1504 594 1504 594 1538 604 c 0,94,95
 1573 615 1573 615 1578.5 620.5 c 128,-1,96
 1584 626 1584 626 1587 632 c 1,97,-1
 1587 112 l 2,98,99
 1587 56 1587 56 1575 34 c 0,100,101
 1557 0 1557 0 1479 0 c 2,102,-1
 722 0 l 1,103,104
 748 5 748 5 756 27 c 1,105,106
 770 46 770 46 772 49 c 1,107,108
 776 52 776 52 786 52 c 2,109,-1
 1031 52 l 1,110,111
 1129 90 1129 90 1185 184 c 0,112,113
 1226 254 1226 254 1226 321 c 0,114,115
 1226 417 1226 417 1174 497 c 0,116,117
 1151 534 1151 534 1117 554.5 c 128,-1,118
 1083 575 1083 575 1047.5 575 c 128,-1,119
 1012 575 1012 575 982 566 c 1,120,121
 1102 482 1102 482 1095 357 c 0,122,123
 1094 353 1094 353 1094 349 c 0,124,125
 1085 227 1085 227 1003 172 c 0,126,127
 955 140 955 140 890 141 c 0,128,129
 806 143 806 143 760 231 c 0,130,131
 727 295 727 295 731 364 c 0,132,133
 731 370 731 370 732 375 c 0,134,135
 744 491 744 491 837 564 c 1,14,15
108 245 m 0,136,137
 95 218 95 218 98 188 c 0,138,139
 98 173 98 173 112 139 c 0,140,141
 143 78 143 78 192 68 c 0,142,143
 254 52 254 52 278 104 c 0,144,145
 300 149 300 149 296 194 c 2,146,-1
 294 206 l 2,147,148
 290 228 290 228 280 256 c 0,149,150
 261 302 261 302 200 299 c 128,-1,151
 139 296 139 296 108 245 c 0,136,137
EndSplineSet
Ligature2: "'akhn' Akhand in Malay+AQEA-lam lookup 0" uni0D1E uni0D4D uni0D1A
EndChar

StartChar: glyph160
Encoding: 65563 -1 99
Width: 1581
GlyphClass: 3
Flags: W
LayerCount: 2
Fore
SplineSet
1231 579 m 0,0,1
 1128 579 1128 579 1053.5 527 c 128,-1,2
 979 475 979 475 979 409 c 2,3,-1
 979 54 l 2,4,5
 974 10 974 10 943 3 c 0,6,7
 924 -2 924 -2 914.5 7.5 c 128,-1,8
 905 17 905 17 899 29 c 1,9,10
 896 40 896 40 893 53 c 1,11,-1
 893 422 l 2,12,13
 883 500 883 500 822 551 c 0,14,15
 787 577 787 577 755 577 c 0,16,17
 699 577 699 577 663 558 c 0,18,19
 648 549 648 549 623 526 c 0,20,21
 570 472 570 472 570 402 c 2,22,-1
 570 52 l 2,23,24
 570 20 570 20 548 5 c 0,25,26
 538 0 538 0 531 0 c 0,27,28
 501 0 501 0 492 35 c 0,29,30
 489 44 489 44 489 55 c 2,31,-1
 489 398 l 2,32,33
 489 469 489 469 450 520 c 0,34,35
 423 561 423 561 350 572 c 0,36,37
 334 574 334 574 326 574 c 0,38,39
 214 576 214 576 147 486 c 0,40,41
 93 414 93 414 82 304 c 1,42,43
 91 332 91 332 138.5 359.5 c 128,-1,44
 186 387 186 387 238 387 c 128,-1,45
 290 387 290 387 326 354 c 0,46,47
 384 306 384 306 379 210 c 2,48,-1
 379 202 l 2,49,50
 379 191 379 191 378 186 c 2,51,-1
 376 162 l 2,52,53
 364 85 364 85 303 36 c 0,54,55
 257 -3 257 -3 198 0 c 2,56,-1
 192 0 l 2,57,58
 85 9 85 9 35 128 c 0,59,60
 -49 322 -49 322 68 501 c 0,61,62
 159 629 159 629 326 631 c 0,63,64
 417 631 417 631 484 575 c 0,65,66
 520 546 520 546 534 508 c 1,67,68
 553 572 553 572 635 608 c 0,69,70
 685 631 685 631 745 632 c 0,71,72
 834 632 834 632 896 580 c 2,73,-1
 918 557 l 2,74,75
 934 537 934 537 943 514 c 1,76,77
 1026 623 1026 623 1218 627 c 2,78,-1
 1242 627 l 2,79,80
 1417 626 1417 626 1484 541 c 0,81,82
 1513 503 1513 503 1514 450 c 0,83,84
 1514 369 1514 369 1429 355 c 2,85,-1
 1377 350 l 1,86,-1
 1268 348 l 1,87,-1
 1234 342 l 1,88,-1
 1212 333 l 1,89,90
 1202 325 1202 325 1195 310 c 1,91,-1
 1191 288 l 1,92,-1
 1191 286 l 2,93,94
 1191 229 1191 229 1252 225 c 2,95,-1
 1359 230 l 2,96,97
 1455 239 1455 239 1492 202 c 0,98,99
 1506 185 1506 185 1512 161 c 0,100,101
 1545 36 1545 36 1396 6 c 0,102,103
 1351 -2 1351 -2 1273.5 -2 c 128,-1,104
 1196 -2 1196 -2 1145 42 c 0,105,106
 1118 61 1118 61 1110 88 c 0,107,108
 1108 96 1108 96 1110 98 c 0,109,110
 1118 104 1118 104 1135 86 c 1,111,112
 1196 41 1196 41 1298 35.5 c 128,-1,113
 1400 30 1400 30 1425 81 c 1,114,115
 1436 95 1436 95 1435 109 c 128,-1,116
 1434 123 1434 123 1434 127 c 0,117,118
 1427 182 1427 182 1347 188 c 2,119,-1
 1206 188 l 2,120,121
 1122 197 1122 197 1112 258 c 0,122,123
 1110 272 1110 272 1110 283 c 0,124,125
 1111 354 1111 354 1197 375 c 0,126,127
 1217 380 1217 380 1312.5 386.5 c 128,-1,128
 1408 393 1408 393 1424 426 c 1,129,130
 1432 437 1432 437 1432 454 c 0,131,132
 1432 516 1432 516 1348 554 c 0,133,134
 1289 579 1289 579 1231 579 c 0,0,1
109 245 m 0,135,136
 96 218 96 218 99 188 c 0,137,138
 99 173 99 173 113 139 c 0,139,140
 144 78 144 78 193 68 c 0,141,142
 222 60 222 60 240 69 c 1,143,144
 266 76 266 76 279 104 c 0,145,146
 301 149 301 149 297 194 c 2,147,-1
 295 206 l 2,148,149
 293 222 293 222 281 256 c 0,150,151
 264 302 264 302 201 300 c 0,152,153
 140 296 140 296 109 245 c 0,135,136
EndSplineSet
Ligature2: "'akhn' Akhand in Malay+AQEA-lam lookup 0" uni0D23 uni0D4D uni0D1F
EndChar

StartChar: glyph161
Encoding: 65564 -1 100
Width: 1804
GlyphClass: 3
Flags: W
LayerCount: 2
Fore
SplineSet
445 504 m 1,0,1
 515 440 515 440 548 318 c 0,2,3
 569 248 569 248 548 164 c 0,4,5
 525 57 525 57 452 51 c 2,6,-1
 444 51 l 2,7,8
 364 51 364 51 335.5 145.5 c 128,-1,9
 307 240 307 240 333 332 c 0,10,11
 360 436 360 436 445 504 c 1,0,1
451 574 m 1,12,13
 365 630 365 630 268 631 c 0,14,15
 137 628 137 628 62 537 c 2,16,-1
 54 526 l 2,17,18
 -15 434 -15 434 4 291 c 0,19,20
 11 244 11 244 28 198 c 0,21,22
 75 94 75 94 158 32 c 0,23,24
 220 -7 220 -7 220 5 c 0,25,26
 220 10 220 10 212 23 c 1,27,-1
 174 68 l 2,28,29
 122 134 122 134 109 163 c 0,30,31
 56 287 56 287 83 404 c 0,32,33
 97 469 97 469 130 508 c 0,34,35
 191 577 191 577 268 577 c 2,36,-1
 296 574 l 2,37,38
 353 566 353 566 399 538 c 1,39,40
 273 442 273 442 243 296 c 0,41,42
 228 196 228 196 262 128 c 0,43,44
 276 100 276 100 298 74 c 0,45,46
 358 0 358 0 446.5 0 c 128,-1,47
 535 0 535 0 595.5 80 c 128,-1,48
 656 160 656 160 647 266 c 2,49,-1
 645 286 l 2,50,51
 638 327 638 327 624 356 c 0,52,53
 579 468 579 468 498 539 c 1,54,55
 572 579 572 579 651 579 c 128,-1,56
 730 579 730 579 779 509 c 0,57,58
 807 466 807 466 813 422 c 2,59,-1
 813 53 l 2,60,61
 819 8 819 8 850 2 c 0,62,63
 869 -1 869 -1 878 8 c 0,64,65
 895 27 895 27 899 54 c 1,66,-1
 899 436 l 2,67,68
 902 513 902 513 999 557 c 0,69,70
 1049 579 1049 579 1086 579 c 0,71,72
 1151 579 1151 579 1209 544 c 1,73,-1
 1197 534 l 2,74,75
 1081 433 1081 433 1060 290 c 0,76,77
 1057 255 1057 255 1057 254 c 0,78,79
 1051 148 1051 148 1115 74 c 128,-1,80
 1179 0 1179 0 1266 0 c 128,-1,81
 1353 0 1353 0 1413 79.5 c 128,-1,82
 1473 159 1473 159 1464 265 c 0,83,84
 1464 308 1464 308 1443 356 c 0,85,86
 1397 472 1397 472 1311 544 c 1,87,88
 1365 574 1365 574 1425 574 c 0,89,90
 1543 574 1543 574 1606 493 c 0,91,92
 1685 396 1685 396 1645 229 c 0,93,94
 1625 150 1625 150 1556 70 c 1,95,96
 1554 69 1554 69 1551 63 c 1,97,98
 1499 18 1499 18 1505 2 c 1,99,100
 1521 -6 1521 -6 1573 33 c 2,101,-1
 1588 45 l 2,102,103
 1642 86 1642 86 1686 166 c 0,104,105
 1763 298 1763 298 1732 414 c 0,106,107
 1721 464 1721 464 1693 508 c 0,108,109
 1613 631 1613 631 1438 631 c 0,110,111
 1343 630 1343 630 1260 580 c 1,112,113
 1178 630 1178 630 1076.5 630.5 c 128,-1,114
 975 631 975 631 905 570 c 0,115,116
 875 544 875 544 864 514 c 1,117,118
 832 591 832 591 729 618 c 0,119,120
 692 629 692 629 643 629 c 0,121,122
 542 628 542 628 451 574 c 1,12,13
1257 506 m 1,123,-1
 1270 494 l 2,124,125
 1337 424 1337 424 1366 318 c 0,126,127
 1386 245 1386 245 1366 164 c 0,128,129
 1343 57 1343 57 1271 51 c 2,130,-1
 1262 51 l 2,131,132
 1182 51 1182 51 1153.5 145.5 c 128,-1,133
 1125 240 1125 240 1152 339 c 128,-1,134
 1179 438 1179 438 1257 506 c 1,123,-1
EndSplineSet
Ligature2: "'akhn' Akhand in Malay+AQEA-lam lookup 0" uni0D24 uni0D4D uni0D24
EndChar

StartChar: glyph162
Encoding: 65565 -1 101
Width: 1725
GlyphClass: 3
Flags: W
LayerCount: 2
Fore
SplineSet
448 512 m 1,0,1
 364 440 364 440 336 332 c 0,2,3
 308 233 308 233 337 148 c 0,4,5
 366 51 366 51 443.5 51 c 128,-1,6
 521 51 521 51 549 154 c 0,7,8
 572 238 572 238 551 318 c 0,9,10
 516 446 516 446 448 512 c 1,0,1
1050 631 m 0,11,12
 1256 631 1256 631 1254 348 c 0,13,14
 1252 176 1252 176 1307 103 c 0,15,16
 1343 58 1343 58 1406 58 c 0,17,18
 1486 58 1486 58 1537 151 c 0,19,20
 1574 223 1574 223 1574 306 c 0,21,22
 1574 434 1574 434 1494 525 c 2,23,-1
 1489 532 l 1,24,25
 1418 606 1418 606 1412.5 615.5 c 128,-1,26
 1407 625 1407 625 1408.5 627.5 c 128,-1,27
 1410 630 1410 630 1424 626 c 0,28,29
 1537 595 1537 595 1603 496 c 0,30,31
 1660 410 1660 410 1664 297 c 0,32,33
 1664 147 1664 147 1566 61 c 0,34,35
 1494 3 1494 3 1410 3 c 0,36,37
 1279 3 1279 3 1214 109 c 0,38,39
 1171 180 1171 180 1171 272 c 0,40,41
 1171 425 1171 425 1164 472 c 0,42,43
 1150 550 1150 550 1093 567 c 2,44,-1
 1058 573 l 1,45,-1
 1039 574 l 2,46,47
 976 574 976 574 939.5 528.5 c 128,-1,48
 903 483 903 483 900 418 c 2,49,-1
 900 60 l 2,50,51
 898 13 898 13 868 2 c 0,52,53
 838 -6 838 -6 823 20 c 0,54,55
 814 34 814 34 814 57 c 2,56,-1
 814 432 l 2,57,58
 814 434 814 434 812 440 c 0,59,60
 792 515 792 515 722 552 c 0,61,62
 677 574 677 574 614 574 c 128,-1,63
 551 574 551 574 498 546 c 1,64,65
 584 470 584 470 627 356 c 0,66,67
 676 238 676 238 625 125 c 0,68,69
 584 38 584 38 507 9 c 0,70,71
 478 0 478 0 451 0 c 0,72,73
 351 0 351 0 290 87 c 0,74,75
 238 159 238 159 241 248 c 2,76,-1
 241 254 l 2,77,78
 250 431 250 431 399 548 c 1,79,80
 352 574 352 574 299 574 c 0,81,82
 199 570 199 570 120 462 c 0,83,84
 46 346 46 346 101 195 c 0,85,86
 117 146 117 146 152 97 c 2,87,-1
 177 68 l 2,88,89
 234 2 234 2 218 2 c 128,-1,90
 202 2 202 2 162 32 c 0,91,92
 77 93 77 93 31 198 c 0,93,94
 -16 333 -16 333 8 417 c 0,95,96
 20 461 20 461 49 501 c 0,97,98
 104 580 104 580 208 614 c 0,99,100
 244 627 244 627 285 629 c 0,101,102
 374 628 374 628 448 582 c 1,103,104
 534 631 534 631 623 631 c 0,105,106
 740 630 740 630 804 583 c 1,107,-1
 862 524 l 1,108,109
 924 631 924 631 1050 631 c 0,11,12
EndSplineSet
Ligature2: "'akhn' Akhand in Malay+AQEA-lam lookup 0" uni0D24 uni0D4D uni0D38
EndChar

StartChar: glyph163
Encoding: 65566 -1 102
Width: 1696
GlyphClass: 3
Flags: W
LayerCount: 2
Fore
SplineSet
442 580 m 1,0,1
 360 630 360 630 268 631 c 0,2,3
 137 628 137 628 62 537 c 2,4,-1
 54 526 l 2,5,6
 -15 434 -15 434 4 291 c 0,7,8
 11 244 11 244 28 198 c 0,9,10
 75 94 75 94 158 32 c 0,11,12
 220 -7 220 -7 220 5 c 0,13,14
 220 10 220 10 212 23 c 1,15,-1
 174 68 l 2,16,17
 122 134 122 134 109 163 c 0,18,19
 56 287 56 287 83 404 c 0,20,21
 97 469 97 469 130 508 c 0,22,23
 191 577 191 577 268 577 c 2,24,-1
 296 574 l 2,25,26
 348 566 348 566 391 544 c 1,27,-1
 379 534 l 2,28,29
 265 434 265 434 241 290 c 0,30,31
 238 255 238 255 238 254 c 0,32,33
 233 150 233 150 300 71 c 0,34,35
 362 0 362 0 448.5 0 c 128,-1,36
 535 0 535 0 595.5 80 c 128,-1,37
 656 160 656 160 647 266 c 2,38,-1
 645 286 l 2,39,40
 638 327 638 327 624 356 c 0,41,42
 577 472 577 472 493 544 c 1,43,44
 547 574 547 574 608 574 c 0,45,46
 725 574 725 574 788 493 c 0,47,48
 870 392 870 392 828 229 c 0,49,50
 809 159 809 159 739 74 c 0,51,52
 731 62 731 62 725 56 c 0,53,54
 692 23 692 23 700 8 c 1,55,56
 703 4 703 4 709 2 c 1,57,58
 725 0 725 0 766 0 c 2,59,-1
 1490 0 l 2,60,61
 1577 0 1577 0 1599 19 c 0,62,63
 1633 46 1633 46 1633 98 c 2,64,-1
 1633 316 l 2,65,66
 1633 482 1633 482 1579 543 c 0,67,68
 1525 609 1525 609 1424 625 c 0,69,70
 1403 629 1403 629 1373 629 c 0,71,72
 1214 629 1214 629 1144 524 c 0,73,74
 1107 470 1107 470 1101 387 c 2,75,-1
 1101 52 l 1,76,-1
 770 52 l 1,77,78
 833 101 833 101 869 166 c 0,79,80
 934 277 934 277 920 384 c 0,81,82
 916 444 916 444 875 508 c 0,83,84
 809 611 809 611 672 628 c 2,85,-1
 620 631 l 2,86,87
 525 630 525 630 442 580 c 1,0,1
441 508 m 1,88,89
 514 443 514 443 548 318 c 0,90,91
 569 248 569 248 548 164 c 0,92,93
 525 57 525 57 452 51 c 2,94,-1
 444 51 l 2,95,96
 364 51 364 51 335.5 145.5 c 128,-1,97
 307 240 307 240 333 332 c 0,98,99
 361 440 361 440 441 508 c 1,88,89
1182 52 m 1,100,-1
 1182 358 l 2,101,102
 1182 531 1182 531 1309 569 c 0,103,104
 1345 578 1345 578 1373 578 c 0,105,106
 1506 578 1506 578 1539 441 c 0,107,108
 1551 390 1551 390 1551 314 c 2,109,-1
 1551 118 l 2,110,111
 1551 79 1551 79 1541 68 c 1,112,113
 1521 52 1521 52 1490 52 c 2,114,-1
 1182 52 l 1,100,-1
EndSplineSet
Ligature2: "'akhn' Akhand in Malay+AQEA-lam lookup 0" uni0D24 uni0D4D uni0D25
EndChar

StartChar: glyph164
Encoding: 65567 -1 103
Width: 1444
GlyphClass: 3
Flags: W
LayerCount: 2
Fore
SplineSet
900 467 m 1,0,1
 892 456 892 456 888 445 c 1,2,-1
 900 467 l 1,0,1
910 52 m 1,3,-1
 1239 52 l 2,4,5
 1280 51 1280 51 1290 68 c 0,6,7
 1301 83 1301 83 1301 118 c 2,8,-1
 1301 314 l 2,9,10
 1301 578 1301 578 1106 578 c 0,11,12
 1080 578 1080 578 1057 574 c 1,13,14
 1116 566 1116 566 1158 514 c 0,15,16
 1172 494 1172 494 1174 492 c 1,17,18
 1200 450 1200 450 1196 387 c 2,19,-1
 1194 371 l 2,20,21
 1189 340 1189 340 1178 310 c 0,22,23
 1104 124 1104 124 910 52 c 1,3,-1
448 512 m 1,24,25
 364 440 364 440 336 332 c 0,26,27
 308 233 308 233 337 148 c 0,28,29
 366 51 366 51 443.5 51 c 128,-1,30
 521 51 521 51 549 154 c 0,31,32
 572 238 572 238 551 318 c 0,33,34
 516 446 516 446 448 512 c 1,24,25
876 112 m 1,35,-1
 877 77 l 1,36,-1
 880 71 l 1,37,38
 919 88 919 88 969 128 c 0,39,40
 1094 227 1094 227 1105 355 c 0,41,42
 1112 475 1112 475 1054 510 c 0,43,44
 964 550 964 550 902 470 c 1,45,46
 876 422 876 422 876 358 c 2,47,-1
 876 112 l 1,35,-1
448 582 m 1,48,49
 534 631 534 631 623 631 c 0,50,51
 743 630 743 630 818 544 c 0,52,53
 833 528 833 528 840 516 c 1,54,55
 870 553 870 553 916 581 c 0,56,57
 997 629 997 629 1105.5 629 c 128,-1,58
 1214 629 1214 629 1295 572 c 0,59,60
 1317 557 1317 557 1328 543 c 0,61,62
 1382 480 1382 480 1382 316 c 2,63,-1
 1382 98 l 2,64,65
 1382 48 1382 48 1349 19 c 0,66,67
 1324 0 1324 0 1239 0 c 2,68,-1
 900 0 l 2,69,70
 843 0 843 0 818 20 c 0,71,72
 794 42 794 42 794 103 c 2,73,-1
 794 367 l 2,74,75
 794 394 794 394 798 420 c 1,76,-1
 785 458 l 2,77,78
 749 533 749 533 681 561 c 0,79,80
 649 574 649 574 600 574 c 128,-1,81
 551 574 551 574 498 546 c 1,82,83
 584 470 584 470 627 356 c 0,84,85
 676 238 676 238 625 125 c 0,86,87
 584 38 584 38 507 9 c 0,88,89
 478 0 478 0 451 0 c 0,90,91
 351 0 351 0 290 87 c 0,92,93
 238 159 238 159 241 248 c 2,94,-1
 241 254 l 2,95,96
 250 431 250 431 399 548 c 1,97,98
 352 574 352 574 299 574 c 0,99,100
 199 570 199 570 120 462 c 0,101,102
 46 346 46 346 101 195 c 0,103,104
 117 146 117 146 152 97 c 2,105,-1
 177 68 l 2,106,107
 234 2 234 2 218 2 c 128,-1,108
 202 2 202 2 162 32 c 0,109,110
 77 93 77 93 31 198 c 0,111,112
 -16 333 -16 333 8 417 c 0,113,114
 20 461 20 461 49 501 c 0,115,116
 104 580 104 580 208 614 c 0,117,118
 244 627 244 627 285 629 c 0,119,120
 374 628 374 628 448 582 c 1,48,49
EndSplineSet
Ligature2: "'akhn' Akhand in Malay+AQEA-lam lookup 0" uni0D24 uni0D4D uni0D2E
EndChar

StartChar: glyph165
Encoding: 65568 -1 104
Width: 1437
GlyphClass: 3
Flags: W
LayerCount: 2
Fore
SplineSet
448 512 m 1,0,1
 364 440 364 440 336 332 c 0,2,3
 308 233 308 233 337 148 c 0,4,5
 366 51 366 51 443.5 51 c 128,-1,6
 521 51 521 51 549 154 c 0,7,8
 572 238 572 238 551 318 c 0,9,10
 516 446 516 446 448 512 c 1,0,1
846 506 m 1,11,12
 948 629 948 629 1100 629 c 0,13,14
 1314 629 1314 629 1359 536 c 0,15,16
 1371 509 1371 509 1371 474 c 0,17,18
 1372 422 1372 422 1335 398 c 0,19,20
 1316 385 1316 385 1287 381 c 2,21,-1
 1235 378 l 1,22,-1
 1125 379 l 1,23,-1
 1091 374 l 1,24,-1
 1070 364 l 1,25,26
 1048 349 1048 349 1048 318 c 0,27,28
 1048 263 1048 263 1110 254 c 2,29,-1
 1216 253 l 2,30,31
 1315 252 1315 252 1349 215 c 0,32,33
 1363 199 1363 199 1370 173 c 0,34,35
 1402 48 1402 48 1262 11 c 2,36,-1
 1207 2 l 1,37,-1
 1151 0 l 2,38,39
 1069 0 1069 0 1017 33 c 1,40,41
 1008 37 1008 37 1001 44 c 1,42,43
 976 62 976 62 967 90 c 0,44,45
 964 98 964 98 969 101 c 128,-1,46
 974 104 974 104 992 88 c 0,47,48
 1053 44 1053 44 1151.5 42 c 128,-1,49
 1250 40 1250 40 1282 90 c 0,50,51
 1293 108 1293 108 1291 133 c 2,52,-1
 1291 139 l 2,53,54
 1283 196 1283 196 1206 206 c 2,55,-1
 1065 216 l 2,56,57
 967 228 967 228 967 316 c 0,58,59
 967 387 967 387 1053 404 c 0,60,61
 1068 408 1068 408 1166 413.5 c 128,-1,62
 1264 419 1264 419 1282 447 c 1,63,64
 1289 463 1289 463 1289 477 c 0,65,66
 1287 562 1287 562 1157 575 c 2,67,-1
 1110 578 l 2,68,69
 973 578 973 578 898 455 c 0,70,71
 856 386 856 386 851 320 c 128,-1,72
 846 254 846 254 860 177 c 0,73,74
 876 102 876 102 908 55.5 c 128,-1,75
 940 9 940 9 932 2 c 1,76,-1
 926 1 l 1,77,78
 908 3 908 3 879 32 c 0,79,80
 806 111 806 111 783 217 c 0,81,82
 749 342 749 342 809 452 c 1,83,-1
 792 482 l 2,84,85
 728 574 728 574 611 574 c 0,86,87
 551 574 551 574 498 546 c 1,88,89
 584 470 584 470 627 356 c 0,90,91
 676 238 676 238 625 125 c 0,92,93
 584 38 584 38 507 9 c 0,94,95
 478 0 478 0 451 0 c 0,96,97
 351 0 351 0 290 87 c 0,98,99
 238 159 238 159 241 248 c 2,100,-1
 241 254 l 2,101,102
 250 431 250 431 399 548 c 1,103,104
 352 574 352 574 299 574 c 0,105,106
 199 570 199 570 120 462 c 0,107,108
 46 346 46 346 101 195 c 0,109,110
 117 146 117 146 152 97 c 2,111,-1
 177 68 l 2,112,113
 234 2 234 2 218 2 c 128,-1,114
 202 2 202 2 162 32 c 0,115,116
 77 93 77 93 31 198 c 0,117,118
 -16 333 -16 333 8 417 c 0,119,120
 20 461 20 461 49 501 c 0,121,122
 104 580 104 580 208 614 c 0,123,124
 244 627 244 627 285 629 c 0,125,126
 374 628 374 628 448 582 c 1,127,128
 534 631 534 631 623 631 c 0,129,130
 743 630 743 630 818 544 c 0,131,132
 840 520 840 520 846 506 c 1,11,12
EndSplineSet
Ligature2: "'akhn' Akhand in Malay+AQEA-lam lookup 0" uni0D24 uni0D4D uni0D2D
EndChar

StartChar: glyph167
Encoding: 65569 -1 105
Width: 1242
GlyphClass: 3
Flags: W
LayerCount: 2
Fore
SplineSet
334 102 m 0,0,1
 334 118 334 118 385 124 c 0,2,3
 473 136 473 136 503 152 c 0,4,5
 550 175 550 175 563 220 c 0,6,7
 591 320 591 320 498 356 c 0,8,9
 472 366 472 366 442 370 c 1,10,11
 558 382 558 382 571 453 c 1,12,13
 573 458 573 458 573 472 c 0,14,15
 573 549 573 549 491 594 c 0,16,17
 423 629 423 629 321 629 c 0,18,19
 187 629 187 629 91 529 c 0,20,21
 9 444 9 444 1 350 c 0,22,23
 -9 212 -9 212 55 95 c 0,24,25
 75 58 75 58 106.5 27.5 c 128,-1,26
 138 -3 138 -3 152 1 c 0,27,28
 161 4 161 4 152 20.5 c 128,-1,29
 143 37 143 37 133 52 c 0,30,31
 69 142 69 142 72 284 c 2,32,-1
 72 292 l 1,33,-1
 73 315 l 1,34,-1
 73 316 l 2,35,36
 82 406 82 406 134 477 c 0,37,38
 207 577 207 577 321 577 c 0,39,40
 399 577 399 577 451 538 c 0,41,42
 488 512 488 512 485.5 471.5 c 128,-1,43
 483 431 483 431 445.5 413 c 128,-1,44
 408 395 408 395 298 386 c 0,45,46
 256 382 256 382 255 368 c 0,47,48
 255 353 255 353 300 352 c 0,49,50
 441 351 441 351 479 293 c 0,51,52
 499 262 499 262 483 223.5 c 128,-1,53
 467 185 467 185 384 177 c 2,54,-1
 297 169 l 2,55,56
 235 158 235 158 233 109 c 0,57,58
 233 49 233 49 380 16 c 0,59,60
 461 -2 461 -2 535 0 c 2,61,-1
 544 0 l 2,62,63
 657 2 657 2 724 85 c 0,64,65
 733 96 733 96 739 106 c 1,66,67
 803 0 803 0 928 0 c 0,68,69
 1004 0 1004 0 1085 73 c 0,70,71
 1109 94 1109 94 1120 114 c 0,72,73
 1202 233 1202 233 1167 374 c 0,74,75
 1156 420 1156 420 1128.5 470 c 128,-1,76
 1101 520 1101 520 1041 577 c 2,77,-1
 1026 589 l 2,78,79
 969 637 969 637 955 626 c 1,80,81
 953 618 953 618 965 598 c 2,82,-1
 984 570 l 1,83,84
 1026 524 1026 524 1072 418 c 0,85,86
 1107 348 1107 348 1089 245 c 0,87,88
 1080 180 1080 180 1056 144 c 0,89,90
 1028 93 1028 93 984 71 c 0,91,92
 956 55 956 55 925 56 c 0,93,94
 867 56 867 56 823.5 100 c 128,-1,95
 780 144 780 144 777 214 c 2,96,-1
 777 562 l 2,97,98
 781 592 781 592 757.5 617.5 c 128,-1,99
 734 643 734 643 715.5 624 c 128,-1,100
 697 605 697 605 690 563 c 1,101,102
 691 451 691 451 691 200 c 0,103,104
 680 101 680 101 612 71 c 2,105,-1
 571 56 l 2,106,107
 523 44 523 44 428.5 57 c 128,-1,108
 334 70 334 70 334 102 c 0,0,1
EndSplineSet
Ligature2: "'akhn' Akhand in Malay+AQEA-lam lookup 0" uni0D26 uni0D4D uni0D27
EndChar

StartChar: glyph168
Encoding: 65570 -1 106
Width: 1363
GlyphClass: 3
Flags: W
LayerCount: 2
Fore
SplineSet
665 577 m 0,0,1
 608 577 608 577 559 536 c 2,2,-1
 536 514 l 1,3,4
 505 472 505 472 502 418 c 2,5,-1
 502 60 l 2,6,7
 499 12 499 12 469 2 c 0,8,9
 441 -6 441 -6 424 20 c 1,10,11
 415 40 415 40 415 57 c 2,12,-1
 415 432 l 2,13,14
 406 530 406 530 337 561 c 2,15,-1
 297 574 l 2,16,17
 214 598 214 598 131 508 c 0,18,19
 70 435 70 435 76 304 c 0,20,21
 76 276 76 276 87 228 c 0,22,23
 106 159 106 159 149 98 c 0,24,25
 156 89 156 89 175 68 c 0,26,27
 234 2 234 2 217 2 c 1,28,-1
 205 5 l 2,29,30
 190 11 190 11 159 32 c 0,31,32
 93 77 93 77 29 198 c 1,33,34
 -17 332 -17 332 9 432 c 0,35,36
 21 478 21 478 55 526 c 0,37,38
 124 610 124 610 215 626 c 0,39,40
 231 629 231 629 269 631 c 0,41,42
 383 630 383 630 449 547 c 0,43,44
 457 537 457 537 464 524 c 1,45,46
 514 610 514 610 623 628 c 0,47,48
 646 631 646 631 667 631 c 0,49,50
 782 629 782 629 848 547 c 0,51,52
 852 542 852 542 862 524 c 1,53,54
 924 631 924 631 1051 631 c 0,55,56
 1162 631 1162 631 1236 543 c 128,-1,57
 1310 455 1310 455 1300 325 c 0,58,59
 1292 228 1292 228 1254 166 c 0,60,61
 1225 110 1225 110 1164 54 c 2,62,-1
 1150 42 l 2,63,64
 1096 -3 1096 -3 1077 4 c 1,65,66
 1070 13 1070 13 1108 60 c 1,67,68
 1165 112 1165 112 1196 214 c 0,69,70
 1224 297 1224 297 1216 374 c 0,71,72
 1213 395 1213 395 1206 427 c 128,-1,73
 1199 459 1199 459 1179 486 c 2,74,75
 1153 536 1153 536 1108 561 c 0,76,77
 1079 575 1079 575 1049 574 c 0,78,79
 989 574 989 574 944 528 c 2,80,-1
 925 506 l 1,81,82
 903 466 903 466 900 418 c 2,83,-1
 900 60 l 2,84,85
 898 13 898 13 868 2 c 0,86,87
 840 -6 840 -6 823 20 c 0,88,89
 814 36 814 36 814 57 c 2,90,-1
 814 432 l 2,91,92
 805 528 805 528 724 563 c 0,93,94
 694 577 694 577 665 577 c 0,0,1
EndSplineSet
Ligature2: "'akhn' Akhand in Malay+AQEA-lam lookup 0" uni0D28 uni0D4D uni0D28
EndChar

StartChar: glyph169
Encoding: 65571 -1 107
Width: 1001
GlyphClass: 3
Flags: W
LayerCount: 2
Fore
SplineSet
492 52 m 2,0,1
 492 -1 492 -1 445 2 c 0,2,3
 411 4 411 4 411 55 c 2,4,-1
 411 398 l 2,5,6
 411 455 411 455 375 515 c 128,-1,7
 339 575 339 575 293 575 c 0,8,9
 173 575 173 575 118 466 c 0,10,11
 85 403 85 403 82 316 c 0,12,13
 82 152 82 152 166 62 c 0,14,15
 207 4 207 4 197 -1 c 0,16,17
 195 -2 195 -2 192 -2 c 1,18,-1
 172 7 l 1,19,-1
 126 40 l 2,20,21
 43 104 43 104 13 218 c 0,22,23
 0 267 0 267 0 323 c 0,24,25
 4 492 4 492 118 575 c 0,26,27
 193 629 193 629 291 629 c 0,28,29
 425 629 425 629 458 504 c 1,30,31
 494 576 494 576 581 611 c 0,32,33
 628 631 628 631 678 631 c 0,34,35
 930 631 930 631 939 468 c 2,36,-1
 939 460 l 2,37,38
 940 413 940 413 911 380 c 2,39,-1
 890 362 l 2,40,41
 860 339 860 339 807 332 c 1,42,43
 901 317 901 317 926 247 c 0,44,45
 944 203 944 203 929 140 c 0,46,47
 891 0 891 0 708 0 c 0,48,49
 673 0 673 0 632 31 c 2,50,-1
 622 38 l 1,51,52
 598 62 598 62 599 73 c 1,53,54
 601 80 601 80 624 65 c 1,55,56
 722 22 722 22 793 74 c 0,57,58
 832 101 832 101 849 148 c 0,59,60
 876 236 876 236 793 280 c 2,61,-1
 758 295 l 1,62,63
 716 306 716 306 668.5 308 c 128,-1,64
 621 310 621 310 617 324 c 0,65,66
 614 333 614 333 623 340 c 1,67,68
 638 347 638 347 660 350 c 0,69,70
 789 363 789 363 825 396 c 0,71,72
 846 418 846 418 850 461.5 c 128,-1,73
 854 505 854 505 820 532 c 0,74,75
 802 546 802 546 774 557 c 2,76,-1
 731 569 l 2,77,78
 704 575 704 575 671 574 c 2,79,-1
 662 574 l 2,80,81
 568 568 568 568 526 513 c 0,82,83
 492 462 492 462 492 386 c 2,84,-1
 492 52 l 2,0,1
EndSplineSet
Ligature2: "'akhn' Akhand in Malay+AQEA-lam lookup 0" uni0D28 uni0D4D uni0D26
EndChar

StartChar: glyph170
Encoding: 65572 -1 108
Width: 1375
GlyphClass: 3
Flags: W
LayerCount: 2
Fore
SplineSet
658 631 m 0,0,1
 515 631 515 631 447 524 c 1,2,3
 383 630 383 630 273.5 630 c 128,-1,4
 164 630 164 630 96 566 c 2,5,-1
 65 534 l 1,6,7
 63 530 63 530 59 526 c 0,8,9
 -9 443 -9 443 1 325 c 0,10,11
 1 314 1 314 3 303 c 0,12,13
 9 245 9 245 35 198 c 0,14,15
 93 80 93 80 165 32 c 0,16,17
 224 -7 224 -7 225 5 c 0,18,19
 226 10 226 10 217 23 c 2,20,-1
 179 68 l 2,21,22
 129 129 129 129 115 160 c 0,23,24
 63 282 63 282 85 390 c 0,25,26
 101 464 101 464 131 497 c 0,27,28
 204 585 204 585 279 580 c 0,29,30
 284 580 284 580 288 579 c 0,31,32
 389 550 389 550 399 432 c 2,33,-1
 399 57 l 2,34,35
 399 12 399 12 429.5 3 c 128,-1,36
 460 -6 460 -6 476 23 c 0,37,38
 484 38 484 38 485 60 c 2,39,-1
 485 418 l 2,40,41
 489 514 489 514 581 558 c 0,42,43
 675 596 675 596 775 539 c 1,44,45
 657 440 657 440 632 290 c 0,46,47
 629 272 629 272 629 254 c 0,48,49
 624 183 624 183 654 123 c 0,50,51
 723 0 723 0 838 0 c 0,52,53
 925 0 925 0 985 80 c 128,-1,54
 1045 160 1045 160 1036 266 c 2,55,-1
 1034 286 l 2,56,57
 1027 325 1027 325 1015 356 c 0,58,59
 969 472 969 472 883 544 c 1,60,61
 937 574 937 574 998 574 c 0,62,63
 1113 574 1113 574 1178 493 c 128,-1,64
 1243 412 1243 412 1229 292 c 128,-1,65
 1215 172 1215 172 1129 70 c 1,66,67
 1124 68 1124 68 1123 63 c 1,68,69
 1068 15 1068 15 1077 2 c 1,70,71
 1095 -7 1095 -7 1145 33 c 0,72,73
 1151 39 1151 39 1160 45 c 0,74,75
 1212 86 1212 86 1259 166 c 0,76,77
 1330 290 1330 290 1305 414 c 0,78,79
 1289 469 1289 469 1265 508 c 0,80,81
 1185 631 1185 631 1010 631 c 0,82,83
 915 630 915 630 832 580 c 1,84,85
 750 630 750 630 658 631 c 0,0,1
825 503 m 1,86,87
 906 434 906 434 938 318 c 0,88,89
 958 245 958 245 938 164 c 0,90,91
 914 57 914 57 843 51 c 2,92,-1
 834 51 l 2,93,94
 753 51 753 51 724 150 c 0,95,96
 706 208 706 208 710.5 254 c 128,-1,97
 715 300 715 300 723 332 c 0,98,99
 749 437 749 437 825 503 c 1,86,87
EndSplineSet
Ligature2: "'akhn' Akhand in Malay+AQEA-lam lookup 0" uni0D28 uni0D4D uni0D24
EndChar

StartChar: glyph171
Encoding: 65573 -1 109
Width: 1783
GlyphClass: 3
Flags: W
LayerCount: 2
Fore
SplineSet
818 351 m 2,0,-1
 818 339 l 2,1,2
 811 279 811 279 821 233 c 0,3,4
 841 147 841 147 867 103 c 0,5,6
 934 9 934 9 1053 0 c 0,7,8
 1069 -2 1069 -2 1086 0 c 0,9,10
 1197 1 1197 1 1265 89 c 0,11,12
 1276 100 1276 100 1281 113 c 1,13,14
 1344 0 1344 0 1469 0 c 0,15,16
 1547 0 1547 0 1625 75 c 0,17,18
 1653 100 1653 100 1663 119 c 0,19,20
 1772 290 1772 290 1673 488 c 0,21,22
 1642 548 1642 548 1583 605 c 0,23,24
 1573 615 1573 615 1569 618 c 0,25,26
 1512 668 1512 668 1497 657 c 1,27,28
 1495 650 1495 650 1506 631 c 2,29,-1
 1527 599 l 2,30,31
 1571 544 1571 544 1615 438 c 0,32,33
 1648 368 1648 368 1631 257 c 0,34,35
 1622 187 1622 187 1597 152 c 2,36,37
 1572 100 1572 100 1527 74 c 0,38,39
 1501 58 1501 58 1467 59 c 0,40,41
 1409 59 1409 59 1365.5 105 c 128,-1,42
 1322 151 1322 151 1319 224 c 2,43,-1
 1319 591 l 2,44,45
 1323 622 1323 622 1298 648 c 0,46,47
 1282 668 1282 668 1266 661 c 1,48,-1
 1254 652 l 1,49,-1
 1243 633 l 1,50,-1
 1233 598 l 1,51,-1
 1232 592 l 1,52,53
 1233 473 1233 473 1233 210 c 0,54,55
 1224 106 1224 106 1154 74 c 2,56,-1
 1113 59 l 2,57,58
 1064 45 1064 45 1016 73 c 0,59,60
 978 92 978 92 947 130 c 0,61,62
 900 189 900 189 900 321 c 2,63,-1
 900 339 l 2,64,65
 905 421 905 421 883 483 c 0,66,67
 868 532 868 532 838 568 c 0,68,69
 763 663 763 663 652 663 c 0,70,71
 527 663 527 663 463 551 c 1,72,73
 416 634 416 634 321 656 c 0,74,75
 293 663 293 663 268 663 c 0,76,77
 161 662 161 662 93 597 c 0,78,79
 61 562 61 562 54 553 c 0,80,81
 -16 456 -16 456 4 307 c 0,82,83
 11 263 11 263 28 207 c 1,84,85
 89 87 89 87 158 34 c 0,86,87
 219 -8 219 -8 219.5 4 c 128,-1,88
 220 16 220 16 174 71 c 0,89,90
 126 134 126 134 104 182 c 0,91,92
 94 209 94 209 82 256 c 0,93,94
 63 332 63 332 80 413.5 c 128,-1,95
 97 495 97 495 130 532 c 0,96,97
 199 616 199 616 273.5 606.5 c 128,-1,98
 348 597 348 597 386 549 c 0,99,100
 410 514 410 514 414 454 c 2,101,-1
 414 60 l 2,102,103
 414 13 414 13 445.5 2.5 c 128,-1,104
 477 -8 477 -8 491 24 c 0,105,106
 497 36 497 36 501 63 c 1,107,-1
 501 438 l 2,108,109
 505 550 505 550 592 589 c 0,110,111
 620 603 620 603 650 603 c 0,112,113
 693 605 693 605 730 575 c 0,114,115
 747 560 747 560 764 538 c 0,116,117
 779 512 779 512 780 511 c 0,118,119
 821 449 821 449 818 351 c 2,0,-1
EndSplineSet
Ligature2: "'akhn' Akhand in Malay+AQEA-lam lookup 0" uni0D28 uni0D4D uni0D27
EndChar

StartChar: glyph172
Encoding: 65574 -1 110
Width: 1064
GlyphClass: 3
Flags: W
LayerCount: 2
Fore
SplineSet
413 103 m 2,0,-1
 413 402 l 2,1,2
 414 447 414 447 377 511 c 0,3,4
 341 572 341 572 293 572 c 0,5,6
 171 572 171 572 115 462 c 0,7,8
 85 400 85 400 82 316 c 0,9,10
 82 152 82 152 166 62 c 0,11,12
 207 4 207 4 197 -1 c 0,13,14
 195 -2 195 -2 192 -2 c 1,15,-1
 172 7 l 1,16,-1
 126 40 l 2,17,18
 43 104 43 104 13 218 c 0,19,20
 0 267 0 267 0 323 c 0,21,22
 4 492 4 492 118 575 c 0,23,24
 193 629 193 629 291 629 c 0,25,26
 422 629 422 629 456 511 c 1,27,28
 486 551 486 551 535 581 c 0,29,30
 618 629 618 629 726 629 c 128,-1,31
 834 629 834 629 915 572 c 0,32,33
 933 560 933 560 947 543 c 0,34,35
 1002 481 1002 481 1002 316 c 2,36,-1
 1002 98 l 2,37,38
 1002 48 1002 48 968 19 c 0,39,40
 946 0 946 0 858 0 c 2,41,-1
 520 0 l 2,42,43
 461 0 461 0 437 21.5 c 128,-1,44
 413 43 413 43 413 103 c 2,0,-1
519 467 m 1,45,46
 510 456 510 456 507 445 c 1,47,-1
 519 467 l 1,45,46
530 52 m 1,48,-1
 858 52 l 2,49,50
 900 51 900 51 910 68 c 1,51,52
 920 79 920 79 920 118 c 2,53,-1
 920 314 l 2,54,55
 920 578 920 578 725 578 c 0,56,57
 700 578 700 578 677 574 c 1,58,59
 730 567 730 567 778 514 c 2,60,-1
 793 492 l 2,61,62
 821 448 821 448 815 387 c 2,63,-1
 813 371 l 2,64,65
 808 340 808 340 797 310 c 0,66,67
 726 124 726 124 530 52 c 1,48,-1
495 112 m 1,68,-1
 496 77 l 1,69,-1
 498 71 l 1,70,71
 539 88 539 88 589 128 c 0,72,73
 716 228 716 228 724 351 c 128,-1,74
 732 474 732 474 674 510 c 1,75,76
 584 548 584 548 522 471 c 1,77,78
 495 422 495 422 495 358 c 2,79,-1
 495 112 l 1,68,-1
EndSplineSet
Ligature2: "'akhn' Akhand in Malay+AQEA-lam lookup 0" uni0D28 uni0D4D uni0D2E
EndChar

StartChar: glyph173
Encoding: 65575 -1 111
Width: 1645
GlyphClass: 3
Flags: W
LayerCount: 2
Fore
SplineSet
1133 52 m 1,0,-1
 1441 52 l 2,1,2
 1474 52 1474 52 1488.5 64 c 128,-1,3
 1503 76 1503 76 1502 118 c 2,4,-1
 1502 314 l 2,5,6
 1502 507 1502 507 1414 557 c 0,7,8
 1374 578 1374 578 1324 578 c 0,9,10
 1194 578 1194 578 1152 469 c 0,11,12
 1133 424 1133 424 1133 358 c 2,13,-1
 1133 52 l 1,0,-1
761 52 m 1,14,-1
 1051 52 l 1,15,-1
 1051 367 l 2,16,17
 1051 534 1051 534 1177 598 c 0,18,19
 1242 629 1242 629 1324 629 c 0,20,21
 1441 629 1441 629 1515 558 c 2,22,-1
 1530 543 l 2,23,24
 1584 478 1584 478 1584 316 c 2,25,-1
 1584 98 l 2,26,27
 1584 47 1584 47 1550 19 c 0,28,29
 1527 0 1527 0 1441 0 c 2,30,-1
 748 0 l 2,31,32
 685 0 685 0 680 12 c 0,33,34
 672 28 672 28 707 60 c 0,35,36
 763 119 763 119 795 214 c 0,37,38
 829 305 829 305 812 401 c 0,39,40
 803 450 803 450 779 486 c 0,41,42
 736 553 736 553 679 570 c 0,43,44
 656 577 656 577 640 575 c 0,45,46
 580 575 580 575 541.5 529.5 c 128,-1,47
 503 484 503 484 499 418 c 2,48,-1
 499 56 l 2,49,50
 497 17 497 17 468 3 c 0,51,52
 450 -4 450 -4 437 6 c 0,53,54
 419 18 419 18 413 55 c 1,55,-1
 413 432 l 2,56,57
 404 530 404 530 335 561 c 2,58,-1
 294 574 l 2,59,60
 246 588 246 588 203.5 567 c 128,-1,61
 161 546 161 546 129 508 c 0,62,63
 66 431 66 431 74 303 c 2,64,-1
 76 283 l 2,65,66
 77 262 77 262 85 228 c 0,67,68
 105 155 105 155 147 98 c 0,69,70
 155 88 155 88 173 68 c 0,71,72
 231 2 231 2 214 2 c 1,73,-1
 202 5 l 1,74,75
 186 12 186 12 157 32 c 0,76,77
 75 91 75 91 27 198 c 0,78,79
 -16 324 -16 324 9 430 c 0,80,81
 21 487 21 487 53 526 c 0,82,83
 117 622 117 622 250 630 c 0,84,85
 256 631 256 631 267 631 c 0,86,87
 379 630 379 630 447 547 c 0,88,89
 457 531 457 531 462 524 c 1,90,91
 524 631 524 631 651 631 c 0,92,93
 761 628 761 628 844 518 c 0,94,95
 905 429 905 429 897 310 c 2,96,-1
 895 289 l 2,97,98
 886 222 886 222 850 160 c 128,-1,99
 814 98 814 98 761 52 c 1,14,-1
EndSplineSet
Ligature2: "'akhn' Akhand in Malay+AQEA-lam lookup 0" uni0D28 uni0D4D uni0D25
EndChar

StartChar: glyph174
Encoding: 65576 -1 112
Width: 1157
GlyphClass: 3
Flags: W
LayerCount: 2
Fore
SplineSet
0 103 m 2,0,-1
 0 367 l 2,1,2
 0 507 0 507 122 581 c 0,3,4
 203 629 203 629 311.5 629 c 128,-1,5
 420 629 420 629 500 572 c 0,6,7
 532 554 532 554 552 515 c 1,8,9
 581 553 581 553 627 581 c 0,10,11
 710 629 710 629 819 629 c 128,-1,12
 928 629 928 629 1007 572 c 0,13,14
 1023 561 1023 561 1040 543 c 0,15,16
 1094 480 1094 480 1094 316 c 2,17,-1
 1094 98 l 2,18,19
 1094 48 1094 48 1061 19 c 0,20,21
 1038 0 1038 0 950 0 c 2,22,-1
 612 0 l 2,23,24
 568 0 568 0 542 12 c 1,25,26
 514 0 514 0 444 0 c 2,27,-1
 105 0 l 2,28,29
 49 0 49 0 23 20 c 0,30,31
 0 43 0 43 0 103 c 2,0,-1
82 112 m 1,32,-1
 83 77 l 1,33,-1
 86 72 l 1,34,35
 126 89 126 89 175 128 c 0,36,37
 302 227 302 227 310 351.5 c 128,-1,38
 318 476 318 476 260 510 c 1,39,40
 168 546 168 546 108 470 c 1,41,42
 82 424 82 424 82 358 c 2,43,-1
 82 112 l 1,32,-1
616 472 m 0,44,45
 588 424 588 424 588 358 c 2,46,-1
 588 112 l 1,47,-1
 589 77 l 1,48,-1
 592 72 l 1,49,50
 632 89 632 89 681 128 c 0,51,52
 808 228 808 228 816.5 351 c 128,-1,53
 825 474 825 474 766 510 c 1,54,55
 676 548 676 548 616 472 c 0,44,45
622 52 m 1,56,-1
 950 52 l 2,57,58
 992 50 992 50 1002 68 c 1,59,60
 1012 79 1012 79 1012 118 c 2,61,-1
 1012 314 l 2,62,63
 1012 578 1012 578 817 578 c 0,64,65
 792 578 792 578 770 574 c 1,66,67
 822 567 822 567 870 514 c 0,68,69
 884 494 884 494 886 492 c 1,70,71
 913 447 913 447 907 387 c 2,72,-1
 905 371 l 2,73,74
 901 342 901 342 890 310 c 0,75,76
 816 124 816 124 622 52 c 1,56,-1
610 466 m 1,77,78
 604 456 604 456 599 445 c 1,79,-1
 610 466 l 1,77,78
506 314 m 2,80,81
 506 578 506 578 311 578 c 0,82,83
 286 578 286 578 264 574 c 1,84,85
 319 566 319 566 363 514 c 2,86,-1
 379 492 l 2,87,88
 406 449 406 449 401 387 c 2,89,-1
 399 371 l 2,90,91
 395 342 395 342 384 310 c 0,92,93
 310 124 310 124 116 52 c 1,94,-1
 444 52 l 2,95,96
 486 50 486 50 494 68 c 1,97,98
 506 80 506 80 506 118 c 2,99,-1
 506 314 l 2,80,81
104 467 m 1,100,101
 97 456 97 456 93 445 c 1,102,-1
 104 467 l 1,100,101
EndSplineSet
Ligature2: "'akhn' Akhand in Malay+AQEA-lam lookup 0" uni0D2E uni0D4D uni0D2E
EndChar

StartChar: glyph175
Encoding: 65577 -1 113
Width: 1286
GlyphClass: 3
Flags: W
LayerCount: 2
Fore
SplineSet
817 330 m 0,0,1
 817 432 817 432 781 486 c 0,2,3
 756 537 756 537 708 562 c 0,4,5
 682 575 682 575 651 574 c 0,6,7
 589 574 589 574 546 528 c 2,8,-1
 527 506 l 1,9,10
 505 469 505 469 502 418 c 2,11,-1
 502 58 l 2,12,13
 499 12 499 12 469 2 c 0,14,15
 444 -8 444 -8 425 19 c 1,16,17
 418 34 418 34 415 57 c 2,18,-1
 415 432 l 2,19,20
 406 530 406 530 337 561 c 2,21,-1
 297 574 l 2,22,23
 250 588 250 588 195 560 c 0,24,25
 70 492 70 492 78 307 c 0,26,27
 79 300 79 300 80 275 c 0,28,29
 87 167 87 167 175 68 c 0,30,31
 227 12 227 12 218 1 c 1,32,-1
 197 8 l 1,33,-1
 159 32 l 2,34,35
 81 89 81 89 29 198 c 0,36,37
 -17 334 -17 334 9 432 c 0,38,39
 21 478 21 478 55 526 c 0,40,41
 119 605 119 605 190 623 c 0,42,43
 218 629 218 629 269 631 c 0,44,45
 384 630 384 630 450 543 c 0,46,47
 457 535 457 535 464 524 c 1,48,49
 526 631 526 631 653 631 c 0,50,51
 750 628 750 628 815 568 c 2,52,-1
 836 547 l 2,53,54
 901 475 901 475 901 329 c 0,55,56
 901 215 901 215 799 92 c 0,57,58
 778 65 778 65 763 52 c 1,59,-1
 1103 52 l 2,60,61
 1127 52 1127 52 1135 70 c 1,62,63
 1140 76 1140 76 1140 111 c 2,64,-1
 1140 563 l 2,65,66
 1140 593 1140 593 1173.5 604 c 128,-1,67
 1207 615 1207 615 1213 619.5 c 128,-1,68
 1219 624 1219 624 1223 632 c 1,69,-1
 1223 112 l 2,70,71
 1223 56 1223 56 1210 34 c 0,72,73
 1194 0 1194 0 1115 0 c 2,74,-1
 750 0 l 2,75,76
 692 0 692 0 682.5 9 c 128,-1,77
 673 18 673 18 708 56 c 0,78,79
 786 137 786 137 810 256 c 0,80,81
 817 290 817 290 817 330 c 0,0,1
EndSplineSet
Ligature2: "'akhn' Akhand in Malay+AQEA-lam lookup 0" uni0D2E uni0D4D uni0D2A
EndChar

StartChar: glyph177
Encoding: 65578 -1 114
Width: 1976
GlyphClass: 3
Flags: W
LayerCount: 2
Fore
SplineSet
1463 55 m 1,0,-1
 1770 55 l 2,1,2
 1807 55 1807 55 1816 67 c 1,3,-1
 1821 72 l 1,4,5
 1833 81 1833 81 1833 121 c 2,6,-1
 1833 317 l 2,7,8
 1833 510 1833 510 1745 560 c 0,9,10
 1705 581 1705 581 1655 581 c 0,11,12
 1526 581 1526 581 1482 472 c 0,13,14
 1463 427 1463 427 1463 361 c 2,15,-1
 1463 55 l 1,0,-1
653 631 m 0,16,17
 859 631 859 631 857 349 c 0,18,19
 853 58 853 58 1008 58 c 0,20,21
 1091 58 1091 58 1139 151 c 0,22,23
 1176 218 1176 218 1176 306 c 0,24,25
 1176 438 1176 438 1096 525 c 1,26,27
 1092 531 1092 531 1048.5 576.5 c 128,-1,28
 1005 622 1005 622 1012 627 c 1,29,30
 1013 630 1013 630 1027 626 c 0,31,32
 1140 595 1140 595 1206 496 c 0,33,34
 1261 414 1261 414 1266 297 c 0,35,36
 1266 146 1266 146 1168 61 c 2,37,-1
 1159 55 l 1,38,-1
 1381 55 l 1,39,-1
 1381 370 l 2,40,41
 1381 536 1381 536 1507 601 c 0,42,43
 1569 632 1569 632 1655 632 c 0,44,45
 1773 632 1773 632 1846 561 c 2,46,-1
 1859 547 l 2,47,48
 1915 483 1915 483 1915 319 c 2,49,-1
 1915 101 l 2,50,51
 1915 50 1915 50 1881 24 c 0,52,53
 1857 3 1857 3 1770 3 c 2,54,-1
 1012 3 l 2,55,56
 883 3 883 3 816 109 c 0,57,58
 773 181 773 181 773 272 c 0,59,60
 773 432 773 432 767 472 c 0,61,62
 755 550 755 550 696 567 c 2,63,-1
 660 573 l 2,64,65
 654 574 654 574 641 574 c 0,66,67
 579 574 579 574 538 524 c 0,68,69
 506 481 506 481 503 418 c 2,70,-1
 503 60 l 2,71,72
 500 12 500 12 470 2 c 0,73,74
 442 -6 442 -6 425 20 c 1,75,76
 416 40 416 40 416 57 c 2,77,-1
 416 432 l 2,78,79
 407 530 407 530 338 561 c 2,80,-1
 298 574 l 2,81,82
 215 598 215 598 132 508 c 0,83,84
 71 435 71 435 77 304 c 0,85,86
 77 276 77 276 88 228 c 0,87,88
 107 159 107 159 150 98 c 0,89,90
 155 91 155 91 176 68 c 0,91,92
 235 2 235 2 218 2 c 1,93,-1
 206 5 l 2,94,95
 191 11 191 11 160 32 c 0,96,97
 94 77 94 77 30 198 c 1,98,99
 -17 332 -17 332 10 432 c 0,100,101
 22 478 22 478 56 526 c 0,102,103
 125 610 125 610 216 626 c 0,104,105
 232 629 232 629 270 631 c 0,106,107
 384 630 384 630 450 547 c 0,108,109
 458 537 458 537 465 524 c 1,110,111
 527 631 527 631 653 631 c 0,16,17
EndSplineSet
Ligature2: "'akhn' Akhand in Malay+AQEA-lam lookup 0" uni0D38 uni0D4D uni0D25
EndChar

